NotoSerifBengali-SemiCondensedThin.ufo
<glyph name="exclam" format="2">
  <advance width="258.43333333333334"/>
  <unicode hex="0021"/>
  <outline>
    <contour>
      <point x="123.33333333333333" y="167.0" type="line"/>
      <point x="144.79999999999998" y="167.0" type="line"/>
      <point x="147.43333333333334" y="714.0" type="line"/>
      <point x="119.43333333333334" y="714.0" type="line"/>
    </contour>
    <contour>
      <point x="132.43333333333334" y="-5.0" type="curve" smooth="yes"/>
      <point x="147.7" y="-5.0"/>
      <point x="161.06666666666666" y="4.366666666666666"/>
      <point x="161.06666666666666" y="34.63333333333333" type="curve" smooth="yes"/>
      <point x="161.06666666666666" y="64.63333333333333"/>
      <point x="147.7" y="73.36666666666667"/>
      <point x="132.43333333333334" y="73.36666666666667" type="curve" smooth="yes"/>
      <point x="116.7" y="73.36666666666667"/>
      <point x="103.06666666666668" y="64.63333333333333"/>
      <point x="103.06666666666668" y="34.63333333333333" type="curve" smooth="yes"/>
      <point x="103.06666666666668" y="4.366666666666666"/>
      <point x="116.7" y="-5.0"/>
    </contour>
  </outline>
</glyph>
<glyph name="quotedbl" format="2">
  <advance width="263.5"/>
  <unicode hex="0022"/>
  <outline>
    <contour>
      <point x="191.4333333333333" y="518.0" type="line"/>
      <point x="211.06666666666666" y="518.0" type="line"/>
      <point x="221.8" y="714.0" type="line"/>
      <point x="179.43333333333334" y="714.0" type="line"/>
    </contour>
    <contour>
      <point x="53.7" y="518.0" type="line"/>
      <point x="73.33333333333333" y="518.0" type="line"/>
      <point x="84.06666666666666" y="714.0" type="line"/>
      <point x="41.7" y="714.0" type="line"/>
    </contour>
  </outline>
</glyph>
<glyph name="quotesingle" format="2">
  <advance width="125.76666666666667"/>
  <unicode hex="0027"/>
  <outline>
    <contour>
      <point x="53.7" y="527.5333333333333" type="line"/>
      <point x="73.33333333333333" y="527.5333333333333" type="line"/>
      <point x="84.06666666666666" y="714.0" type="line"/>
      <point x="41.7" y="714.0" type="line"/>
    </contour>
  </outline>
</glyph>
<glyph name="parenleft" format="2">
  <advance width="274.83333333333337"/>
  <unicode hex="0028"/>
  <outline>
    <contour>
      <point x="216.63333333333333" y="-114.36666666666666" type="curve"/>
      <point x="216.63333333333333" y="-88.9" type="line"/>
      <point x="96.33333333333334" y="-32.733333333333334"/>
      <point x="68.46666666666667" y="134.0"/>
      <point x="68.46666666666667" y="315.0" type="curve" smooth="yes"/>
      <point x="68.46666666666667" y="496.0"/>
      <point x="94.43333333333334" y="667.8"/>
      <point x="216.63333333333333" y="718.2666666666667" type="curve"/>
      <point x="216.63333333333333" y="744.3666666666667" type="line"/>
      <point x="98.76666666666667" y="696.3"/>
      <point x="40.46666666666667" y="578.9333333333333"/>
      <point x="40.46666666666667" y="315.0" type="curve" smooth="yes"/>
      <point x="40.46666666666667" y="50.6"/>
      <point x="98.76666666666667" y="-65.03333333333333"/>
    </contour>
  </outline>
</glyph>
<glyph name="parenright" format="2">
  <advance width="312.20000000000005"/>
  <unicode hex="0029"/>
  <outline>
    <contour>
      <point x="95.2" y="-114.36666666666666" type="line"/>
      <point x="213.06666666666666" y="-65.03333333333333"/>
      <point x="271.3666666666667" y="50.6"/>
      <point x="271.3666666666667" y="315.0" type="curve" smooth="yes"/>
      <point x="271.3666666666667" y="578.9333333333333"/>
      <point x="213.06666666666666" y="696.3"/>
      <point x="95.2" y="744.3666666666667" type="curve"/>
      <point x="95.2" y="718.2666666666667" type="line"/>
      <point x="217.4" y="667.8"/>
      <point x="242.73333333333335" y="496.0"/>
      <point x="242.73333333333335" y="315.0" type="curve" smooth="yes"/>
      <point x="242.73333333333335" y="134.0"/>
      <point x="215.5" y="-32.733333333333334"/>
      <point x="95.2" y="-88.9" type="curve"/>
    </contour>
  </outline>
</glyph>
<glyph name="asterisk" format="2">
  <advance width="391.7666666666667"/>
  <unicode hex="002A"/>
  <outline>
    <contour>
      <point x="172.43333333333334" y="379.4666666666667" type="line"/>
      <point x="216.33333333333331" y="379.4666666666667" type="line"/>
      <point x="202.7" y="552.5333333333333" type="line"/>
      <point x="328.1666666666667" y="467.1666666666667" type="line"/>
      <point x="344.8" y="507.09999999999997" type="line"/>
      <point x="201.53333333333333" y="569.7333333333333" type="line"/>
      <point x="344.8" y="632.3666666666667" type="line"/>
      <point x="328.1666666666667" y="674.1999999999999" type="line"/>
      <point x="202.7" y="586.9333333333333" type="line"/>
      <point x="215.06666666666666" y="760.0" type="line"/>
      <point x="172.43333333333334" y="760.0" type="line"/>
      <point x="185.7" y="587.9333333333333" type="line"/>
      <point x="60.86666666666667" y="676.1999999999999" type="line"/>
      <point x="42.6" y="633.3666666666667" type="line"/>
      <point x="185.23333333333332" y="569.7333333333333" type="line"/>
      <point x="42.6" y="506.09999999999997" type="line"/>
      <point x="60.86666666666667" y="465.1666666666667" type="line"/>
      <point x="185.06666666666666" y="552.1666666666667" type="line"/>
    </contour>
  </outline>
</glyph>
<glyph name="plus" format="2">
  <advance width="509.8666666666667"/>
  <unicode hex="002B"/>
  <outline>
    <contour>
      <point x="240.43333333333334" y="143.0" type="line"/>
      <point x="269.1666666666667" y="143.0" type="line"/>
      <point x="269.1666666666667" y="343.3666666666667" type="line"/>
      <point x="450.3666666666667" y="343.3666666666667" type="line"/>
      <point x="450.3666666666667" y="371.3666666666667" type="line"/>
      <point x="269.1666666666667" y="371.3666666666667" type="line"/>
      <point x="269.1666666666667" y="572.0" type="line"/>
      <point x="240.43333333333334" y="572.0" type="line"/>
      <point x="240.43333333333334" y="371.3666666666667" type="line"/>
      <point x="59.5" y="371.3666666666667" type="line"/>
      <point x="59.5" y="343.3666666666667" type="line"/>
      <point x="240.43333333333334" y="343.3666666666667" type="line"/>
    </contour>
  </outline>
</glyph>
<glyph name="comma" format="2">
  <advance width="221.6"/>
  <unicode hex="002C"/>
  <outline>
    <contour>
      <point x="56.733333333333334" y="-154.0" type="line"/>
      <point x="134.0666666666667" y="-125.9"/>
      <point x="163.6" y="-63.699999999999996"/>
      <point x="163.6" y="0.0" type="curve" smooth="yes"/>
      <point x="163.6" y="53.46666666666667"/>
      <point x="140.23333333333332" y="73.0"/>
      <point x="114.43333333333334" y="73.0" type="curve" smooth="yes"/>
      <point x="96.16666666666666" y="73.0"/>
      <point x="86.33333333333334" y="60.73333333333333"/>
      <point x="86.33333333333334" y="43.83333333333333" type="curve" smooth="yes"/>
      <point x="86.33333333333334" y="16.633333333333333"/>
      <point x="132.23333333333332" y="6.566666666666666"/>
      <point x="132.23333333333332" y="-28.533333333333335" type="curve" smooth="yes"/>
      <point x="132.23333333333332" y="-61.0"/>
      <point x="111.33333333333334" y="-113.16666666666667"/>
      <point x="56.733333333333334" y="-130.53333333333333" type="curve"/>
    </contour>
  </outline>
</glyph>
<glyph name="hyphen" format="2">
  <advance width="282.8666666666667"/>
  <unicode hex="002D"/>
  <outline>
    <contour>
      <point x="23.166666666666668" y="259.0" type="line"/>
      <point x="259.7" y="259.0" type="line"/>
      <point x="259.7" y="287.0" type="line"/>
      <point x="23.166666666666668" y="287.0" type="line"/>
    </contour>
  </outline>
</glyph>
<glyph name="period" format="2">
  <advance width="208.9333333333333"/>
  <unicode hex="002E"/>
  <outline>
    <contour>
      <point x="121.8" y="-5.366666666666666" type="curve" smooth="yes"/>
      <point x="137.06666666666666" y="-5.366666666666666"/>
      <point x="150.0666666666667" y="4.0"/>
      <point x="150.0666666666667" y="34.266666666666666" type="curve" smooth="yes"/>
      <point x="150.0666666666667" y="64.26666666666667"/>
      <point x="137.06666666666666" y="73.0"/>
      <point x="121.8" y="73.0" type="curve" smooth="yes"/>
      <point x="106.06666666666666" y="73.0"/>
      <point x="92.43333333333334" y="64.26666666666667"/>
      <point x="92.43333333333334" y="34.266666666666666" type="curve" smooth="yes"/>
      <point x="92.43333333333334" y="4.0"/>
      <point x="106.06666666666666" y="-5.366666666666666"/>
    </contour>
  </outline>
</glyph>
<glyph name="slash" format="2">
  <advance width="262.7"/>
  <unicode hex="002F"/>
  <outline>
    <contour>
      <point x="0.0" y="-121.0" type="line"/>
      <point x="29.0" y="-121.0" type="line"/>
      <point x="262.7" y="760.0" type="line"/>
      <point x="233.7" y="760.0" type="line"/>
    </contour>
  </outline>
</glyph>
<glyph name="zero" format="2">
  <advance width="509.8666666666667"/>
  <unicode hex="0030"/>
  <outline>
    <contour>
      <point x="255.06666666666666" y="-10.0" type="curve" smooth="yes"/>
      <point x="387.4" y="-10.0"/>
      <point x="456.3666666666667" y="109.43333333333332"/>
      <point x="456.3666666666667" y="358.0" type="curve" smooth="yes"/>
      <point x="456.3666666666667" y="605.0666666666666"/>
      <point x="388.9666666666667" y="724.0"/>
      <point x="256.06666666666666" y="724.0" type="curve" smooth="yes"/>
      <point x="114.16666666666667" y="724.0"/>
      <point x="53.13333333333333" y="598.8666666666666"/>
      <point x="53.13333333333333" y="359.0" type="curve" smooth="yes"/>
      <point x="53.13333333333333" y="107.66666666666667"/>
      <point x="118.0" y="-10.0"/>
    </contour>
    <contour>
      <point x="254.43333333333334" y="15.0" type="curve" smooth="yes"/>
      <point x="132.9" y="15.0"/>
      <point x="81.13333333333333" y="128.33333333333334"/>
      <point x="81.13333333333333" y="358.0" type="curve" smooth="yes"/>
      <point x="81.13333333333333" y="576.9"/>
      <point x="126.56666666666666" y="699.0"/>
      <point x="255.43333333333334" y="699.0" type="curve" smooth="yes"/>
      <point x="380.4" y="699.0"/>
      <point x="428.3666666666667" y="581.3333333333334"/>
      <point x="428.3666666666667" y="358.0" type="curve" smooth="yes"/>
      <point x="428.3666666666667" y="133.4"/>
      <point x="376.6" y="15.0"/>
    </contour>
  </outline>
</glyph>
<glyph name="one" format="2">
  <advance width="509.8666666666667"/>
  <unicode hex="0031"/>
  <outline>
    <contour>
      <point x="111.33333333333333" y="0.0" type="line"/>
      <point x="428.8666666666667" y="0.0" type="line"/>
      <point x="428.8666666666667" y="21.266666666666666" type="line"/>
      <point x="342.33333333333337" y="21.266666666666666" type="line" smooth="yes"/>
      <point x="293.06666666666666" y="21.266666666666666"/>
      <point x="286.33333333333337" y="30.633333333333333"/>
      <point x="286.33333333333337" y="106.9" type="curve" smooth="yes"/>
      <point x="286.33333333333337" y="718.0" type="line"/>
      <point x="267.06666666666666" y="718.0" type="line"/>
      <point x="231.3" y="676.1333333333333" type="line" smooth="yes"/>
      <point x="180.23333333333332" y="616.0666666666667"/>
      <point x="135.0" y="588.1333333333333"/>
      <point x="78.83333333333333" y="581.3000000000001" type="curve"/>
      <point x="78.83333333333333" y="570.6666666666667"/>
      <point x="88.66666666666666" y="562.7666666666668"/>
      <point x="108.26666666666667" y="562.7666666666668" type="curve" smooth="yes"/>
      <point x="154.16666666666666" y="562.7666666666668"/>
      <point x="199.03333333333336" y="596.8000000000001"/>
      <point x="258.3333333333333" y="672.4333333333334" type="curve"/>
      <point x="258.3333333333333" y="106.9" type="line" smooth="yes"/>
      <point x="258.3333333333333" y="30.633333333333333"/>
      <point x="251.6" y="21.266666666666666"/>
      <point x="202.33333333333334" y="21.266666666666666" type="curve" smooth="yes"/>
      <point x="111.33333333333333" y="21.266666666666666" type="line"/>
    </contour>
  </outline>
</glyph>
<glyph name="two" format="2">
  <advance width="509.8666666666667"/>
  <unicode hex="0032"/>
  <outline>
    <contour>
      <point x="52.96666666666667" y="0.0" type="line"/>
      <point x="427.93333333333334" y="0.0" type="line"/>
      <point x="431.8333333333333" y="128.46666666666667" type="line"/>
      <point x="411.83333333333337" y="128.46666666666667" type="line"/>
      <point x="410.20000000000005" y="95.36666666666666" type="line" smooth="yes"/>
      <point x="407.93333333333334" y="41.2"/>
      <point x="401.93333333333334" y="26.099999999999998"/>
      <point x="349.56666666666666" y="26.099999999999998" type="curve" smooth="yes"/>
      <point x="86.86666666666666" y="26.099999999999998" type="line"/>
      <point x="268.09999999999997" y="261.46666666666664" type="line" smooth="yes"/>
      <point x="358.2333333333333" y="375.7666666666667"/>
      <point x="405.0333333333333" y="439.3666666666667"/>
      <point x="405.0333333333333" y="547.2333333333333" type="curve" smooth="yes"/>
      <point x="405.0333333333333" y="640.9666666666667"/>
      <point x="352.96666666666664" y="724.0"/>
      <point x="233.83333333333334" y="724.0" type="curve" smooth="yes"/>
      <point x="121.73333333333333" y="724.0"/>
      <point x="71.96666666666665" y="650.0"/>
      <point x="71.96666666666665" y="602.0" type="curve" smooth="yes"/>
      <point x="71.96666666666665" y="576.5333333333334"/>
      <point x="80.96666666666667" y="563.6333333333333"/>
      <point x="94.96666666666667" y="563.6333333333333" type="curve"/>
      <point x="94.96666666666667" y="645.3333333333334"/>
      <point x="142.8" y="699.0"/>
      <point x="233.83333333333334" y="699.0" type="curve" smooth="yes"/>
      <point x="340.96666666666664" y="699.0"/>
      <point x="377.03333333333336" y="621.9"/>
      <point x="377.03333333333336" y="544.1333333333333" type="curve" smooth="yes"/>
      <point x="377.03333333333336" y="450.0"/>
      <point x="336.06666666666666" y="388.23333333333335"/>
      <point x="238.1" y="262.90000000000003" type="curve" smooth="yes"/>
      <point x="52.96666666666667" y="22.0" type="line"/>
    </contour>
  </outline>
</glyph>
<glyph name="three" format="2">
  <advance width="509.8666666666667"/>
  <unicode hex="0033"/>
  <outline>
    <contour>
      <point x="232.73333333333335" y="-9.0" type="curve" smooth="yes"/>
      <point x="341.8333333333333" y="-9.0"/>
      <point x="428.5" y="59.833333333333336"/>
      <point x="428.5" y="188.73333333333332" type="curve" smooth="yes"/>
      <point x="428.5" y="322.3666666666667"/>
      <point x="342.66666666666663" y="369.1"/>
      <point x="262.0333333333333" y="376.0" type="curve"/>
      <point x="335.7" y="392.53333333333336"/>
      <point x="405.70000000000005" y="450.1"/>
      <point x="405.70000000000005" y="557.8333333333333" type="curve" smooth="yes"/>
      <point x="405.70000000000005" y="660.1"/>
      <point x="343.2" y="724.0"/>
      <point x="243.2" y="724.0" type="curve" smooth="yes"/>
      <point x="138.13333333333335" y="724.0"/>
      <point x="83.60000000000001" y="660.4"/>
      <point x="83.60000000000001" y="599.9666666666667" type="curve" smooth="yes"/>
      <point x="83.60000000000001" y="575.6666666666666"/>
      <point x="92.06666666666666" y="563.1333333333334"/>
      <point x="104.60000000000001" y="563.1333333333334" type="curve"/>
      <point x="105.23333333333333" y="646.6"/>
      <point x="152.23333333333335" y="699.0"/>
      <point x="242.56666666666666" y="699.0" type="curve" smooth="yes"/>
      <point x="327.5" y="699.0"/>
      <point x="377.7" y="647.7333333333333"/>
      <point x="377.7" y="558.1" type="curve" smooth="yes"/>
      <point x="377.7" y="449.09999999999997"/>
      <point x="302.4666666666667" y="387.0"/>
      <point x="200.66666666666666" y="387.0" type="curve"/>
      <point x="180.03333333333333" y="387.0" type="line"/>
      <point x="180.03333333333333" y="362.0" type="line"/>
      <point x="201.93333333333334" y="362.0" type="line" smooth="yes"/>
      <point x="337.3666666666667" y="362.0"/>
      <point x="400.50000000000006" y="300.73333333333335"/>
      <point x="400.50000000000006" y="189.73333333333332" type="curve" smooth="yes"/>
      <point x="400.50000000000006" y="79.66666666666667"/>
      <point x="332.3" y="16.0"/>
      <point x="231.46666666666667" y="16.0" type="curve" smooth="yes"/>
      <point x="129.4" y="16.0"/>
      <point x="84.23333333333333" y="62.06666666666666"/>
      <point x="84.23333333333333" y="136.0" type="curve"/>
      <point x="71.76666666666667" y="136.0"/>
      <point x="61.96666666666666" y="124.7"/>
      <point x="61.96666666666666" y="100.53333333333333" type="curve" smooth="yes"/>
      <point x="61.96666666666666" y="45.8"/>
      <point x="117.4" y="-9.0"/>
    </contour>
  </outline>
</glyph>
<glyph name="four" format="2">
  <advance width="509.8666666666667"/>
  <unicode hex="0034"/>
  <outline>
    <contour>
      <point x="238.6" y="0.0" type="line"/>
      <point x="453.8333333333333" y="0.0" type="line"/>
      <point x="453.8333333333333" y="20.0" type="line"/>
      <point x="424.3666666666667" y="20.0" type="line" smooth="yes"/>
      <point x="372.9" y="20.0"/>
      <point x="366.16666666666663" y="30.266666666666666"/>
      <point x="366.16666666666663" y="105.43333333333334" type="curve" smooth="yes"/>
      <point x="366.16666666666663" y="208.0" type="line"/>
      <point x="496.0666666666667" y="208.0" type="line"/>
      <point x="496.0666666666667" y="233.0" type="line"/>
      <point x="366.16666666666663" y="233.0" type="line"/>
      <point x="366.16666666666663" y="714.0" type="line"/>
      <point x="338.1666666666667" y="714.0" type="line"/>
      <point x="19.533333333333335" y="225.36666666666665" type="line"/>
      <point x="19.533333333333335" y="208.0" type="line"/>
      <point x="339.1666666666667" y="208.0" type="line"/>
      <point x="339.1666666666667" y="105.43333333333334" type="line" smooth="yes"/>
      <point x="339.1666666666667" y="30.266666666666666"/>
      <point x="332.43333333333334" y="20.0"/>
      <point x="281.33333333333337" y="20.0" type="curve" smooth="yes"/>
      <point x="238.6" y="20.0" type="line"/>
    </contour>
    <contour>
      <point x="53.06666666666666" y="233.0" type="line"/>
      <point x="235.0" y="511.6333333333334" type="line" smooth="yes"/>
      <point x="266.23333333333335" y="558.7"/>
      <point x="330.0" y="659.8"/>
      <point x="341.1666666666667" y="682.0666666666667" type="curve"/>
      <point x="339.8" y="619.3333333333334"/>
      <point x="339.1666666666667" y="505.5333333333333"/>
      <point x="339.1666666666667" y="447.5333333333333" type="curve" smooth="yes"/>
      <point x="339.1666666666667" y="233.0" type="line"/>
    </contour>
  </outline>
</glyph>
<glyph name="five" format="2">
  <advance width="509.8666666666667"/>
  <unicode hex="0035"/>
  <outline>
    <contour>
      <point x="228.5666666666667" y="-10.0" type="curve" smooth="yes"/>
      <point x="355.96666666666664" y="-10.0"/>
      <point x="430.4" y="75.93333333333332"/>
      <point x="430.4" y="216.63333333333333" type="curve" smooth="yes"/>
      <point x="430.4" y="353.26666666666665"/>
      <point x="343.3" y="423.0"/>
      <point x="237.43333333333334" y="423.0" type="curve" smooth="yes"/>
      <point x="187.03333333333333" y="423.0"/>
      <point x="153.6" y="412.6333333333333"/>
      <point x="124.26666666666668" y="400.6333333333333" type="curve"/>
      <point x="147.43333333333334" y="686.0" type="line"/>
      <point x="322.53333333333336" y="686.0" type="line" smooth="yes"/>
      <point x="373.5" y="686.0"/>
      <point x="381.1333333333333" y="682.5333333333334"/>
      <point x="383.1333333333334" y="629.9" type="curve" smooth="yes"/>
      <point x="384.1333333333333" y="603.0" type="line"/>
      <point x="404.1333333333333" y="603.0" type="line"/>
      <point x="401.1333333333334" y="714.0" type="line"/>
      <point x="124.43333333333332" y="714.0" type="line"/>
      <point x="96.63333333333333" y="370.43333333333334" type="line"/>
      <point x="110.9" y="366.43333333333334" type="line"/>
      <point x="141.76666666666668" y="384.8"/>
      <point x="183.73333333333332" y="398.0"/>
      <point x="236.53333333333336" y="398.0" type="curve" smooth="yes"/>
      <point x="334.93333333333334" y="398.0"/>
      <point x="402.4" y="336.26666666666665"/>
      <point x="402.4" y="216.0" type="curve" smooth="yes"/>
      <point x="402.4" y="86.76666666666667"/>
      <point x="337.8" y="15.0"/>
      <point x="227.93333333333334" y="15.0" type="curve" smooth="yes"/>
      <point x="148.79999999999998" y="15.0"/>
      <point x="88.19999999999999" y="53.06666666666667"/>
      <point x="88.19999999999999" y="126.0" type="curve"/>
      <point x="75.73333333333335" y="126.0"/>
      <point x="65.2" y="117.53333333333333"/>
      <point x="65.2" y="91.16666666666666" type="curve" smooth="yes"/>
      <point x="65.2" y="45.6"/>
      <point x="121.93333333333335" y="-10.0"/>
    </contour>
  </outline>
</glyph>
<glyph name="six" format="2">
  <advance width="509.8666666666667"/>
  <unicode hex="0036"/>
  <outline>
    <contour>
      <point x="268.8" y="-10.0" type="curve" smooth="yes"/>
      <point x="377.70000000000005" y="-10.0"/>
      <point x="445.83333333333337" y="68.33333333333333"/>
      <point x="445.83333333333337" y="218.53333333333333" type="curve" smooth="yes"/>
      <point x="445.83333333333337" y="354.6333333333333"/>
      <point x="377.1" y="427.73333333333335"/>
      <point x="270.33333333333337" y="427.73333333333335" type="curve" smooth="yes"/>
      <point x="193.9" y="427.73333333333335"/>
      <point x="136.76666666666665" y="388.70000000000005"/>
      <point x="100.56666666666666" y="355.9" type="curve"/>
      <point x="100.2" y="600.4"/>
      <point x="175.63333333333335" y="699.0"/>
      <point x="290.93333333333334" y="699.0" type="curve" smooth="yes"/>
      <point x="366.6333333333334" y="699.0"/>
      <point x="401.5" y="664.1666666666667"/>
      <point x="401.5" y="588.2666666666667" type="curve"/>
      <point x="414.03333333333336" y="588.2666666666667"/>
      <point x="422.76666666666665" y="598.9666666666667"/>
      <point x="422.76666666666665" y="624.3666666666667" type="curve" smooth="yes"/>
      <point x="422.76666666666665" y="675.6666666666666"/>
      <point x="384.1333333333333" y="724.0"/>
      <point x="291.93333333333334" y="724.0" type="curve" smooth="yes"/>
      <point x="164.36666666666667" y="724.0"/>
      <point x="72.56666666666668" y="628.7666666666667"/>
      <point x="72.56666666666668" y="338.3666666666667" type="curve" smooth="yes"/>
      <point x="72.56666666666668" y="98.7"/>
      <point x="146.33333333333334" y="-10.0"/>
    </contour>
    <contour>
      <point x="271.06666666666666" y="15.0" type="curve" smooth="yes"/>
      <point x="158.53333333333336" y="15.0"/>
      <point x="103.83333333333333" y="119.5"/>
      <point x="100.56666666666666" y="322.06666666666666" type="curve"/>
      <point x="131.0" y="353.3666666666667"/>
      <point x="187.03333333333333" y="402.73333333333335"/>
      <point x="270.33333333333337" y="402.73333333333335" type="curve" smooth="yes"/>
      <point x="370.3333333333333" y="402.73333333333335"/>
      <point x="417.83333333333337" y="331.3333333333333"/>
      <point x="417.83333333333337" y="219.53333333333333" type="curve" smooth="yes"/>
      <point x="417.83333333333337" y="90.93333333333334"/>
      <point x="367.6666666666667" y="15.0"/>
    </contour>
  </outline>
</glyph>
<glyph name="seven" format="2">
  <advance width="509.8666666666667"/>
  <unicode hex="0037"/>
  <outline>
    <contour>
      <point x="168.70000000000002" y="0.0" type="line"/>
      <point x="198.7" y="0.0" type="line"/>
      <point x="450.8333333333333" y="692.0" type="line"/>
      <point x="450.8333333333333" y="714.0" type="line"/>
      <point x="59.86666666666667" y="714.0" type="line"/>
      <point x="54.6" y="570.0" type="line"/>
      <point x="74.60000000000001" y="570.0" type="line"/>
      <point x="78.23333333333333" y="631.9" type="line" smooth="yes"/>
      <point x="81.23333333333333" y="681.2666666666667"/>
      <point x="91.5" y="686.0"/>
      <point x="127.13333333333333" y="686.0" type="curve" smooth="yes"/>
      <point x="420.83333333333337" y="686.0" type="line"/>
    </contour>
  </outline>
</glyph>
<glyph name="eight" format="2">
  <advance width="509.8666666666667"/>
  <unicode hex="0038"/>
  <outline>
    <contour>
      <point x="254.0" y="-10.0" type="curve" smooth="yes"/>
      <point x="368.7" y="-10.0"/>
      <point x="447.56666666666666" y="51.83333333333333"/>
      <point x="447.56666666666666" y="166.9333333333333" type="curve" smooth="yes"/>
      <point x="447.56666666666666" y="271.76666666666665"/>
      <point x="399.56666666666666" y="320.3"/>
      <point x="291.5" y="374.0" type="curve"/>
      <point x="380.8666666666667" y="413.7"/>
      <point x="427.6666666666667" y="466.7"/>
      <point x="427.6666666666667" y="559.8000000000001" type="curve" smooth="yes"/>
      <point x="427.6666666666667" y="651.9"/>
      <point x="368.9666666666667" y="724.0"/>
      <point x="256.8" y="724.0" type="curve" smooth="yes"/>
      <point x="153.93333333333334" y="724.0"/>
      <point x="85.1" y="656.5999999999999"/>
      <point x="85.1" y="557.0666666666667" type="curve" smooth="yes"/>
      <point x="85.1" y="465.2"/>
      <point x="141.79999999999998" y="416.06666666666666"/>
      <point x="228.10000000000002" y="376.0" type="curve"/>
      <point x="124.16666666666667" y="335.4666666666667"/>
      <point x="62.66666666666667" y="271.73333333333335"/>
      <point x="62.66666666666667" y="169.73333333333335" type="curve" smooth="yes"/>
      <point x="62.66666666666667" y="58.46666666666666"/>
      <point x="128.83333333333334" y="-10.0"/>
    </contour>
    <contour>
      <point x="254.63333333333335" y="15.000000000000002" type="curve" smooth="yes"/>
      <point x="145.89999999999998" y="15.000000000000002"/>
      <point x="90.66666666666667" y="73.2"/>
      <point x="90.66666666666667" y="169.36666666666667" type="curve" smooth="yes"/>
      <point x="90.66666666666667" y="253.63333333333335"/>
      <point x="142.13333333333333" y="323.53333333333336"/>
      <point x="259.43333333333334" y="362.0" type="curve"/>
      <point x="387.8333333333333" y="305.03333333333336"/>
      <point x="419.56666666666666" y="250.13333333333333"/>
      <point x="419.56666666666666" y="166.20000000000002" type="curve" smooth="yes"/>
      <point x="419.56666666666666" y="64.93333333333334"/>
      <point x="352.5333333333333" y="15.000000000000002"/>
    </contour>
    <contour>
      <point x="260.8" y="387.3666666666667" type="curve"/>
      <point x="163.6" y="431.1666666666667"/>
      <point x="113.1" y="469.73333333333335"/>
      <point x="113.1" y="559.2666666666667" type="curve" smooth="yes"/>
      <point x="113.1" y="644.1666666666667"/>
      <point x="168.86666666666667" y="699.0"/>
      <point x="257.43333333333334" y="699.0" type="curve" smooth="yes"/>
      <point x="360.33333333333337" y="699.0"/>
      <point x="399.66666666666663" y="629.5333333333333"/>
      <point x="399.66666666666663" y="559.8000000000001" type="curve" smooth="yes"/>
      <point x="399.66666666666663" y="474.7"/>
      <point x="362.73333333333335" y="428.1"/>
    </contour>
  </outline>
</glyph>
<glyph name="nine" format="2">
  <advance width="509.8666666666667"/>
  <unicode hex="0039"/>
  <outline>
    <contour>
      <point x="209.03333333333336" y="-11.733333333333333" type="curve"/>
      <point x="368.50000000000006" y="-11.733333333333333"/>
      <point x="436.93333333333334" y="111.16666666666666"/>
      <point x="436.93333333333334" y="388.0" type="curve" smooth="yes"/>
      <point x="436.93333333333334" y="619.8000000000001"/>
      <point x="360.4" y="724.0"/>
      <point x="237.9" y="724.0" type="curve" smooth="yes"/>
      <point x="122.63333333333334" y="724.0"/>
      <point x="63.66666666666667" y="631.4"/>
      <point x="63.66666666666667" y="490.3333333333333" type="curve" smooth="yes"/>
      <point x="63.66666666666667" y="365.56666666666666"/>
      <point x="125.66666666666667" y="286.26666666666665"/>
      <point x="246.16666666666669" y="286.26666666666665" type="curve" smooth="yes"/>
      <point x="330.4" y="286.26666666666665"/>
      <point x="380.56666666666666" y="329.5"/>
      <point x="408.93333333333334" y="357.6333333333333" type="curve"/>
      <point x="406.73333333333335" y="128.66666666666666"/>
      <point x="343.3666666666667" y="13.266666666666666"/>
      <point x="214.46666666666667" y="13.266666666666666" type="curve" smooth="yes"/>
      <point x="155.39999999999998" y="13.266666666666666"/>
      <point x="121.06666666666666" y="38.5"/>
      <point x="102.1" y="80.0" type="curve"/>
      <point x="96.10000000000001" y="77.0"/>
      <point x="93.1" y="70.0"/>
      <point x="93.1" y="58.166666666666664" type="curve" smooth="yes"/>
      <point x="93.1" y="26.433333333333334"/>
      <point x="131.10000000000002" y="-11.733333333333333"/>
    </contour>
    <contour>
      <point x="243.63333333333335" y="311.2666666666667" type="curve" smooth="yes"/>
      <point x="144.16666666666669" y="311.26666666666665"/>
      <point x="91.66666666666667" y="378.1333333333333"/>
      <point x="91.66666666666667" y="491.8" type="curve" smooth="yes"/>
      <point x="91.66666666666667" y="610.1333333333333"/>
      <point x="132.63333333333333" y="699.0"/>
      <point x="237.89999999999998" y="699.0" type="curve" smooth="yes"/>
      <point x="348.3333333333333" y="699.0"/>
      <point x="408.93333333333334" y="594.1333333333333"/>
      <point x="408.93333333333334" y="391.93333333333334" type="curve"/>
      <point x="369.0" y="348.2"/>
      <point x="323.6666666666667" y="311.26666666666665"/>
    </contour>
  </outline>
</glyph>
<glyph name="colon" format="2">
  <advance width="209.3"/>
  <unicode hex="003A"/>
  <outline>
    <contour>
      <point x="121.80000000000001" y="431.90000000000003" type="curve" smooth="yes"/>
      <point x="137.06666666666666" y="431.90000000000003"/>
      <point x="150.43333333333334" y="440.9"/>
      <point x="150.43333333333334" y="471.5333333333333" type="curve" smooth="yes"/>
      <point x="150.43333333333334" y="501.53333333333336"/>
      <point x="137.06666666666666" y="509.9"/>
      <point x="121.80000000000001" y="509.9" type="curve" smooth="yes"/>
      <point x="106.06666666666668" y="509.9"/>
      <point x="92.43333333333334" y="501.53333333333336"/>
      <point x="92.43333333333334" y="471.5333333333333" type="curve" smooth="yes"/>
      <point x="92.43333333333334" y="440.9"/>
      <point x="106.06666666666668" y="431.90000000000003"/>
    </contour>
    <contour>
      <point x="121.80000000000001" y="-5.0" type="curve" smooth="yes"/>
      <point x="137.06666666666666" y="-5.0"/>
      <point x="150.43333333333334" y="4.0"/>
      <point x="150.43333333333334" y="34.63333333333333" type="curve" smooth="yes"/>
      <point x="150.43333333333334" y="64.63333333333333"/>
      <point x="137.06666666666666" y="73.0"/>
      <point x="121.80000000000001" y="73.0" type="curve" smooth="yes"/>
      <point x="106.06666666666668" y="73.0"/>
      <point x="92.43333333333334" y="64.63333333333333"/>
      <point x="92.43333333333334" y="34.63333333333333" type="curve" smooth="yes"/>
      <point x="92.43333333333334" y="4.0"/>
      <point x="106.06666666666668" y="-5.0"/>
    </contour>
  </outline>
</glyph>
<glyph name="semicolon" format="2">
  <advance width="237.23333333333332"/>
  <unicode hex="003B"/>
  <outline>
    <contour>
      <point x="56.733333333333334" y="-154.0" type="line"/>
      <point x="134.06666666666666" y="-125.9"/>
      <point x="163.6" y="-63.699999999999996"/>
      <point x="163.6" y="0.0" type="curve" smooth="yes"/>
      <point x="163.6" y="53.46666666666667"/>
      <point x="139.6" y="73.0"/>
      <point x="114.43333333333334" y="73.0" type="curve" smooth="yes"/>
      <point x="96.16666666666667" y="73.0"/>
      <point x="86.33333333333333" y="60.73333333333333"/>
      <point x="86.33333333333333" y="43.83333333333333" type="curve" smooth="yes"/>
      <point x="86.33333333333333" y="16.633333333333333"/>
      <point x="132.23333333333335" y="6.566666666666666"/>
      <point x="132.23333333333335" y="-28.533333333333335" type="curve"/>
      <point x="132.23333333333335" y="-61.0"/>
      <point x="111.33333333333333" y="-113.16666666666667"/>
      <point x="56.733333333333334" y="-130.53333333333333" type="curve"/>
    </contour>
    <contour>
      <point x="121.80000000000001" y="431.90000000000003" type="curve" smooth="yes"/>
      <point x="137.43333333333334" y="431.90000000000003"/>
      <point x="150.43333333333334" y="440.9"/>
      <point x="150.43333333333334" y="471.5333333333333" type="curve" smooth="yes"/>
      <point x="150.43333333333334" y="501.53333333333336"/>
      <point x="137.43333333333334" y="509.9"/>
      <point x="121.80000000000001" y="509.9" type="curve" smooth="yes"/>
      <point x="106.06666666666668" y="509.9"/>
      <point x="92.43333333333334" y="501.53333333333336"/>
      <point x="92.43333333333334" y="471.5333333333333" type="curve" smooth="yes"/>
      <point x="92.43333333333334" y="440.9"/>
      <point x="106.06666666666668" y="431.90000000000003"/>
    </contour>
  </outline>
</glyph>
<glyph name="less" format="2">
  <advance width="509.8666666666667"/>
  <unicode hex="003C"/>
  <outline>
    <contour>
      <point x="450.3666666666667" y="117.63333333333334" type="line"/>
      <point x="450.3666666666667" y="150.46666666666667" type="line"/>
      <point x="89.86666666666667" y="357.0" type="line"/>
      <point x="450.3666666666667" y="565.5333333333333" type="line"/>
      <point x="450.3666666666667" y="598.3666666666667" type="line"/>
      <point x="59.5" y="371.0" type="line"/>
      <point x="59.5" y="344.0" type="line"/>
    </contour>
  </outline>
</glyph>
<glyph name="equal" format="2">
  <advance width="508.76666666666665"/>
  <unicode hex="003D"/>
  <outline>
    <contour>
      <point x="60.76666666666667" y="448.06666666666666" type="line"/>
      <point x="446.73333333333335" y="448.06666666666666" type="line"/>
      <point x="446.73333333333335" y="476.06666666666666" type="line"/>
      <point x="60.76666666666667" y="476.06666666666666" type="line"/>
    </contour>
    <contour>
      <point x="60.76666666666667" y="238.3" type="line"/>
      <point x="446.73333333333335" y="238.3" type="line"/>
      <point x="446.73333333333335" y="266.29999999999995" type="line"/>
      <point x="60.76666666666667" y="266.29999999999995" type="line"/>
    </contour>
  </outline>
</glyph>
<glyph name="question" format="2">
  <advance width="391.90000000000003"/>
  <unicode hex="003F"/>
  <outline>
    <contour>
      <point x="170.53333333333333" y="167.0" type="line"/>
      <point x="192.53333333333333" y="167.0" type="line"/>
      <point x="195.16666666666669" y="323.0" type="line"/>
      <point x="296.4666666666667" y="372.8"/>
      <point x="348.43333333333334" y="439.90000000000003"/>
      <point x="348.43333333333334" y="551.3666666666667" type="curve" smooth="yes"/>
      <point x="348.43333333333334" y="655.1333333333333"/>
      <point x="286.09999999999997" y="724.0"/>
      <point x="187.26666666666668" y="724.0" type="curve" smooth="yes"/>
      <point x="73.46666666666667" y="724.0"/>
      <point x="36.1" y="651.8666666666667"/>
      <point x="36.1" y="611.3666666666667" type="curve" smooth="yes"/>
      <point x="36.1" y="582.9"/>
      <point x="45.199999999999996" y="569.0"/>
      <point x="57.733333333333334" y="569.0" type="curve"/>
      <point x="57.733333333333334" y="633.7666666666667"/>
      <point x="88.53333333333333" y="699.0"/>
      <point x="188.53333333333333" y="699.0" type="curve" smooth="yes"/>
      <point x="271.6666666666667" y="699.0"/>
      <point x="320.43333333333334" y="639.4666666666667"/>
      <point x="320.43333333333334" y="550.6333333333333" type="curve" smooth="yes"/>
      <point x="320.43333333333334" y="449.83333333333337"/>
      <point x="272.2" y="387.53333333333336"/>
      <point x="167.53333333333333" y="337.0" type="curve"/>
    </contour>
    <contour>
      <point x="181.26666666666668" y="-5.0" type="curve" smooth="yes"/>
      <point x="197.63333333333333" y="-5.0"/>
      <point x="211.0" y="4.0"/>
      <point x="211.0" y="34.63333333333333" type="curve" smooth="yes"/>
      <point x="211.0" y="64.63333333333334"/>
      <point x="197.63333333333333" y="73.0"/>
      <point x="181.26666666666668" y="73.0" type="curve" smooth="yes"/>
      <point x="166.26666666666668" y="73.0"/>
      <point x="152.63333333333333" y="64.63333333333334"/>
      <point x="152.63333333333333" y="34.63333333333333" type="curve" smooth="yes"/>
      <point x="152.63333333333333" y="4.0"/>
      <point x="166.26666666666668" y="-5.0"/>
    </contour>
  </outline>
</glyph>
<glyph name="bracketleft" format="2">
  <advance width="242.5"/>
  <unicode hex="005B"/>
  <outline>
    <contour>
      <point x="67.39999999999999" y="-128.0" type="line"/>
      <point x="212.86666666666665" y="-128.0" type="line"/>
      <point x="212.86666666666665" y="-108.0" type="line"/>
      <point x="151.4" y="-108.0" type="line" smooth="yes"/>
      <point x="101.4" y="-108.0"/>
      <point x="95.4" y="-97.0"/>
      <point x="95.4" y="-20.0" type="curve" smooth="yes"/>
      <point x="95.4" y="652.0" type="line" smooth="yes"/>
      <point x="95.4" y="729.0"/>
      <point x="101.4" y="740.0"/>
      <point x="151.4" y="740.0" type="curve" smooth="yes"/>
      <point x="212.86666666666665" y="740.0" type="line"/>
      <point x="212.86666666666665" y="760.0" type="line"/>
      <point x="67.39999999999999" y="760.0" type="line"/>
    </contour>
  </outline>
</glyph>
<glyph name="bracketright" format="2">
  <advance width="303.93333333333334"/>
  <unicode hex="005D"/>
  <outline>
    <contour>
      <point x="90.33333333333334" y="-128.0" type="line"/>
      <point x="235.8" y="-128.0" type="line"/>
      <point x="235.8" y="760.0" type="line"/>
      <point x="90.33333333333334" y="760.0" type="line"/>
      <point x="90.33333333333334" y="740.0" type="line"/>
      <point x="151.8" y="740.0" type="line" smooth="yes"/>
      <point x="201.8" y="740.0"/>
      <point x="207.8" y="729.0"/>
      <point x="207.8" y="652.0" type="curve" smooth="yes"/>
      <point x="207.8" y="-20.0" type="line" smooth="yes"/>
      <point x="207.8" y="-97.0"/>
      <point x="201.8" y="-108.0"/>
      <point x="151.8" y="-108.0" type="curve" smooth="yes"/>
      <point x="90.33333333333334" y="-108.0" type="line"/>
    </contour>
  </outline>
</glyph>
<glyph name="asciicircum" format="2">
  <advance width="509.5"/>
  <unicode hex="005E"/>
  <outline>
    <contour>
      <point x="50.766666666666666" y="271.6333333333333" type="line"/>
      <point x="82.13333333333333" y="271.6333333333333" type="line"/>
      <point x="253.43333333333334" y="673.8666666666667" type="line"/>
      <point x="426.73333333333335" y="271.6333333333333" type="line"/>
      <point x="458.1" y="271.6333333333333" type="line"/>
      <point x="265.43333333333334" y="714.0" type="line"/>
      <point x="240.79999999999998" y="714.0" type="line"/>
    </contour>
  </outline>
</glyph>
<glyph name="braceleft" format="2">
  <advance width="322.8666666666666"/>
  <unicode hex="007B"/>
  <outline>
    <contour>
      <point x="240.0" y="-132.0" type="curve" smooth="yes"/>
      <point x="266.70000000000005" y="-132.0" type="line"/>
      <point x="266.70000000000005" y="-107.0" type="line"/>
      <point x="241.83333333333334" y="-107.0" type="line" smooth="yes"/>
      <point x="187.4" y="-107.0"/>
      <point x="163.5" y="-68.73333333333333"/>
      <point x="163.5" y="8.566666666666666" type="curve" smooth="yes"/>
      <point x="163.5" y="182.6" type="line" smooth="yes"/>
      <point x="163.5" y="259.3666666666667"/>
      <point x="129.96666666666667" y="305.53333333333336"/>
      <point x="74.0" y="314.26666666666665" type="curve"/>
      <point x="74.0" y="316.26666666666665" type="line"/>
      <point x="129.33333333333334" y="324.3666666666667"/>
      <point x="163.5" y="371.9"/>
      <point x="163.5" y="447.4" type="curve" smooth="yes"/>
      <point x="163.5" y="617.8" type="line" smooth="yes"/>
      <point x="163.5" y="697.3666666666667"/>
      <point x="187.4" y="735.0"/>
      <point x="245.0" y="735.0" type="curve" smooth="yes"/>
      <point x="266.70000000000005" y="735.0" type="line"/>
      <point x="266.70000000000005" y="760.0" type="line"/>
      <point x="239.26666666666665" y="760.0" type="line" smooth="yes"/>
      <point x="171.93333333333334" y="760.0"/>
      <point x="135.23333333333332" y="708.1666666666666"/>
      <point x="135.23333333333332" y="621.0" type="curve" smooth="yes"/>
      <point x="135.23333333333332" y="450.1333333333333" type="line" smooth="yes"/>
      <point x="135.23333333333332" y="355.6333333333333"/>
      <point x="88.26666666666667" y="328.56666666666666"/>
      <point x="25.4" y="324.73333333333335" type="curve"/>
      <point x="25.4" y="304.53333333333336" type="line"/>
      <point x="88.26666666666667" y="300.06666666666666"/>
      <point x="135.23333333333332" y="274.3666666666667"/>
      <point x="135.23333333333332" y="179.23333333333332" type="curve" smooth="yes"/>
      <point x="135.23333333333332" y="8.0" type="line" smooth="yes"/>
      <point x="135.23333333333332" y="-77.63333333333333"/>
      <point x="171.5666666666667" y="-132.0"/>
    </contour>
  </outline>
</glyph>
<glyph name="braceright" format="2">
  <advance width="348.7"/>
  <unicode hex="007D"/>
  <outline>
    <contour>
      <point x="99.86666666666666" y="-132.0" type="line"/>
      <point x="126.56666666666666" y="-132.0" type="line" smooth="yes"/>
      <point x="194.36666666666667" y="-132.0"/>
      <point x="230.7" y="-77.63333333333333"/>
      <point x="230.7" y="8.0" type="curve" smooth="yes"/>
      <point x="230.7" y="179.23333333333332" type="line" smooth="yes"/>
      <point x="230.7" y="274.3666666666667"/>
      <point x="278.3" y="300.06666666666666"/>
      <point x="341.1666666666667" y="304.53333333333336" type="curve"/>
      <point x="341.1666666666667" y="324.73333333333335" type="line"/>
      <point x="278.3" y="328.56666666666666"/>
      <point x="230.7" y="355.6333333333333"/>
      <point x="230.7" y="450.1333333333333" type="curve" smooth="yes"/>
      <point x="230.7" y="621.0" type="line" smooth="yes"/>
      <point x="230.7" y="708.1666666666666"/>
      <point x="194.00000000000003" y="760.0"/>
      <point x="127.3" y="760.0" type="curve" smooth="yes"/>
      <point x="99.86666666666666" y="760.0" type="line"/>
      <point x="99.86666666666666" y="735.0" type="line"/>
      <point x="121.56666666666666" y="735.0" type="line" smooth="yes"/>
      <point x="179.16666666666666" y="735.0"/>
      <point x="203.06666666666666" y="697.3666666666667"/>
      <point x="203.06666666666666" y="617.8" type="curve" smooth="yes"/>
      <point x="203.06666666666666" y="447.4" type="line" smooth="yes"/>
      <point x="203.06666666666666" y="371.9"/>
      <point x="237.23333333333335" y="324.3666666666667"/>
      <point x="291.93333333333334" y="316.26666666666665" type="curve"/>
      <point x="291.93333333333334" y="314.26666666666665" type="line"/>
      <point x="236.6" y="305.53333333333336"/>
      <point x="203.06666666666666" y="259.3666666666667"/>
      <point x="203.06666666666666" y="182.6" type="curve" smooth="yes"/>
      <point x="203.06666666666666" y="8.566666666666666" type="line" smooth="yes"/>
      <point x="203.06666666666666" y="-68.73333333333333"/>
      <point x="179.16666666666666" y="-107.0"/>
      <point x="124.73333333333333" y="-107.0" type="curve" smooth="yes"/>
      <point x="99.86666666666666" y="-107.0" type="line"/>
    </contour>
  </outline>
</glyph>
<glyph name="multiply" format="2">
  <advance width="509.8666666666667"/>
  <unicode hex="00D7"/>
  <outline>
    <contour>
      <point x="81.43333333333332" y="145.56666666666666" type="line"/>
      <point x="257.0" y="338.1" type="line"/>
      <point x="432.56666666666666" y="145.56666666666666" type="line"/>
      <point x="453.6666666666667" y="164.20000000000002" type="line"/>
      <point x="276.26666666666665" y="359.2" type="line"/>
      <point x="453.6666666666667" y="555.5666666666667" type="line"/>
      <point x="433.56666666666666" y="574.4666666666667" type="line"/>
      <point x="257.0" y="380.66666666666663" type="line"/>
      <point x="81.06666666666666" y="573.8333333333334" type="line"/>
      <point x="60.96666666666667" y="554.9333333333334" type="line"/>
      <point x="238.36666666666667" y="359.2" type="line"/>
      <point x="61.6" y="164.83333333333331" type="line"/>
    </contour>
  </outline>
</glyph>
<glyph name="divide" format="2">
  <advance width="509.8666666666667"/>
  <unicode hex="00F7"/>
  <outline>
    <contour>
      <point x="59.5" y="343.3666666666667" type="line"/>
      <point x="450.3666666666667" y="343.3666666666667" type="line"/>
      <point x="450.3666666666667" y="371.3666666666667" type="line"/>
      <point x="59.5" y="371.3666666666667" type="line"/>
    </contour>
    <contour>
      <point x="255.43333333333334" y="139.60000000000002" type="curve" smooth="yes"/>
      <point x="275.6" y="139.60000000000002"/>
      <point x="292.03333333333336" y="149.5"/>
      <point x="292.03333333333336" y="179.4" type="curve" smooth="yes"/>
      <point x="292.03333333333336" y="211.3"/>
      <point x="275.6" y="220.5666666666667"/>
      <point x="255.43333333333334" y="220.5666666666667" type="curve" smooth="yes"/>
      <point x="234.26666666666668" y="220.5666666666667"/>
      <point x="219.2" y="211.3"/>
      <point x="219.2" y="179.4" type="curve" smooth="yes"/>
      <point x="219.2" y="149.5"/>
      <point x="234.26666666666668" y="139.60000000000002"/>
    </contour>
    <contour>
      <point x="255.43333333333334" y="495.90000000000003" type="curve" smooth="yes"/>
      <point x="275.6" y="495.90000000000003"/>
      <point x="292.03333333333336" y="505.8"/>
      <point x="292.03333333333336" y="536.3333333333334" type="curve" smooth="yes"/>
      <point x="292.03333333333336" y="567.6"/>
      <point x="275.6" y="576.8666666666667"/>
      <point x="255.43333333333334" y="576.8666666666667" type="curve" smooth="yes"/>
      <point x="234.26666666666668" y="576.8666666666667"/>
      <point x="219.2" y="567.6"/>
      <point x="219.2" y="536.3333333333334" type="curve" smooth="yes"/>
      <point x="219.2" y="505.8"/>
      <point x="234.26666666666668" y="495.90000000000003"/>
    </contour>
  </outline>
</glyph>
<glyph name="anudatta-deva" format="2">
  <unicode hex="0952"/>
  <anchor x="-299.0" y="340.0" name="_vedic"/>
  <outline>
    <contour>
      <point x="-482.56666666666666" y="-127.0" type="line"/>
      <point x="-114.8" y="-127.0" type="line"/>
      <point x="-114.8" y="-107.0" type="line"/>
      <point x="-482.56666666666666" y="-107.0" type="line"/>
    </contour>
  </outline>
</glyph>
<glyph name="danda-deva" format="2">
  <advance width="423.5"/>
  <unicode hex="0964"/>
  <outline>
    <contour>
      <point x="323.3333333333333" y="-10.0" type="line"/>
      <point x="326.3333333333333" y="-9.0" type="line"/>
      <point x="326.3333333333333" y="595.0" type="line"/>
      <point x="306.3333333333333" y="612.0" type="line"/>
      <point x="303.3333333333333" y="612.0" type="line"/>
      <point x="303.3333333333333" y="3.0" type="line"/>
    </contour>
  </outline>
</glyph>
<glyph name="dbldanda-deva" format="2">
  <advance width="559.3666666666667"/>
  <unicode hex="0965"/>
  <outline>
    <contour>
      <point x="459.2" y="-10.0" type="line"/>
      <point x="462.2" y="-9.0" type="line"/>
      <point x="462.2" y="595.0" type="line"/>
      <point x="442.2" y="612.0" type="line"/>
      <point x="439.2" y="612.0" type="line"/>
      <point x="439.2" y="3.0" type="line"/>
    </contour>
    <contour>
      <point x="323.3333333333333" y="-10.0" type="line"/>
      <point x="326.3333333333333" y="-9.0" type="line"/>
      <point x="326.3333333333333" y="595.0" type="line"/>
      <point x="306.3333333333333" y="612.0" type="line"/>
      <point x="303.3333333333333" y="612.0" type="line"/>
      <point x="303.3333333333333" y="3.0" type="line"/>
    </contour>
  </outline>
</glyph>
<glyph name="anji-beng" format="2">
  <advance width="460.46666666666664"/>
  <unicode hex="0980"/>
  <anchor x="241.73333333333335" y="602.0" name="top"/>
  <outline>
    <contour>
      <point x="371.1" y="22.0" type="curve" smooth="yes"/>
      <point x="392.0" y="22.0"/>
      <point x="407.6333333333333" y="37.0"/>
      <point x="407.6333333333333" y="59.0" type="curve" smooth="yes"/>
      <point x="407.6333333333333" y="83.63333333333333"/>
      <point x="392.73333333333335" y="98.0"/>
      <point x="371.83333333333337" y="98.0" type="curve" smooth="yes"/>
      <point x="350.3" y="98.0"/>
      <point x="342.6666666666667" y="86.0"/>
      <point x="340.66666666666663" y="71.0" type="curve"/>
      <point x="351.3" y="69.0" type="line"/>
      <point x="351.3" y="506.0" type="line" smooth="yes"/>
      <point x="351.3" y="576.0"/>
      <point x="316.9666666666667" y="626.0"/>
      <point x="240.76666666666668" y="626.0" type="curve" smooth="yes"/>
      <point x="146.03333333333336" y="626.0"/>
      <point x="66.56666666666666" y="546.6333333333333"/>
      <point x="66.56666666666666" y="437.0" type="curve" smooth="yes"/>
      <point x="66.56666666666666" y="349.0"/>
      <point x="114.16666666666667" y="286.0"/>
      <point x="189.36666666666667" y="286.0" type="curve" smooth="yes"/>
      <point x="228.79999999999998" y="286.0"/>
      <point x="249.6" y="307.3666666666667"/>
      <point x="249.6" y="342.0" type="curve" smooth="yes"/>
      <point x="249.6" y="370.6333333333333"/>
      <point x="232.0666666666667" y="391.0"/>
      <point x="203.53333333333336" y="391.0" type="curve" smooth="yes"/>
      <point x="177.63333333333335" y="391.0"/>
      <point x="159.10000000000002" y="371.0"/>
      <point x="159.10000000000002" y="344.0" type="curve" smooth="yes"/>
      <point x="159.10000000000002" y="324.0"/>
      <point x="167.36666666666667" y="309.73333333333335"/>
      <point x="176.53333333333336" y="303.0" type="curve"/>
      <point x="192.0" y="315.73333333333335" type="line"/>
      <point x="185.36666666666667" y="312.73333333333335"/>
      <point x="179.1" y="311.73333333333335"/>
      <point x="173.46666666666667" y="311.73333333333335" type="curve" smooth="yes"/>
      <point x="131.96666666666667" y="311.73333333333335"/>
      <point x="90.2" y="356.7333333333333"/>
      <point x="90.2" y="428.0" type="curve" smooth="yes"/>
      <point x="90.2" y="535.6333333333333"/>
      <point x="164.13333333333333" y="602.0"/>
      <point x="246.76666666666668" y="602.0" type="curve" smooth="yes"/>
      <point x="299.8" y="602.0"/>
      <point x="328.66666666666663" y="567.0"/>
      <point x="328.66666666666663" y="500.0" type="curve" smooth="yes"/>
      <point x="328.66666666666663" y="69.9" type="line" smooth="yes"/>
      <point x="328.66666666666663" y="39.63333333333333"/>
      <point x="345.6666666666667" y="22.0"/>
    </contour>
  </outline>
</glyph>
<glyph name="anusvara-beng" format="2">
  <advance width="366.2666666666667"/>
  <unicode hex="0982"/>
  <anchor x="-166.4" y="0.0" name="vedic"/>
  <outline>
    <contour>
      <point x="179.36666666666667" y="380.0" type="curve" smooth="yes"/>
      <point x="245.3" y="380.0"/>
      <point x="291.5333333333333" y="433.0"/>
      <point x="291.5333333333333" y="510.46666666666664" type="curve" smooth="yes"/>
      <point x="291.5333333333333" y="578.3666666666667"/>
      <point x="253.5" y="628.0"/>
      <point x="187.36666666666667" y="628.0" type="curve" smooth="yes"/>
      <point x="120.96666666666667" y="628.0"/>
      <point x="75.1" y="574.0"/>
      <point x="75.1" y="500.0" type="curve" smooth="yes"/>
      <point x="75.1" y="432.3666666666666"/>
      <point x="112.33333333333333" y="380.0"/>
    </contour>
    <contour>
      <point x="173.2" y="404.0" type="curve" smooth="yes"/>
      <point x="128.7" y="404.0"/>
      <point x="98.73333333333333" y="441.0"/>
      <point x="98.73333333333333" y="494.0" type="curve" smooth="yes"/>
      <point x="98.73333333333333" y="552.6333333333333"/>
      <point x="135.23333333333335" y="604.0"/>
      <point x="193.43333333333334" y="604.0" type="curve" smooth="yes"/>
      <point x="237.3" y="604.0"/>
      <point x="268.6333333333333" y="570.3666666666667"/>
      <point x="268.6333333333333" y="516.3666666666667" type="curve" smooth="yes"/>
      <point x="268.6333333333333" y="455.3666666666667"/>
      <point x="232.03333333333336" y="404.0"/>
    </contour>
    <contour>
      <point x="302.06666666666666" y="-24.0" type="curve"/>
      <point x="318.6" y="-14.0" type="line"/>
      <point x="268.4666666666667" y="105.0"/>
      <point x="184.1" y="203.63333333333333"/>
      <point x="97.36666666666666" y="278.0" type="curve"/>
      <point x="79.36666666666667" y="253.0" type="line"/>
      <point x="168.73333333333332" y="191.0"/>
      <point x="255.36666666666667" y="73.9"/>
    </contour>
  </outline>
</glyph>
<glyph name="visarga-beng" format="2">
  <advance width="367.9"/>
  <unicode hex="0983"/>
  <anchor x="-166.4" y="0.0" name="vedic"/>
  <outline>
    <contour>
      <point x="179.36666666666667" y="378.1" type="curve" smooth="yes"/>
      <point x="245.93333333333334" y="378.1"/>
      <point x="292.8" y="431.1"/>
      <point x="292.8" y="508.56666666666666" type="curve" smooth="yes"/>
      <point x="292.8" y="575.8333333333334"/>
      <point x="253.5" y="625.4666666666667"/>
      <point x="188.0" y="625.4666666666667" type="curve" smooth="yes"/>
      <point x="120.96666666666667" y="625.4666666666667"/>
      <point x="75.1" y="571.4666666666667"/>
      <point x="75.1" y="498.1" type="curve" smooth="yes"/>
      <point x="75.1" y="430.46666666666664"/>
      <point x="113.6" y="378.1"/>
    </contour>
    <contour>
      <point x="173.2" y="402.1" type="curve" smooth="yes"/>
      <point x="128.7" y="402.1"/>
      <point x="99.36666666666666" y="439.1"/>
      <point x="99.36666666666666" y="492.1" type="curve" smooth="yes"/>
      <point x="99.36666666666666" y="550.7333333333333"/>
      <point x="135.23333333333335" y="602.1"/>
      <point x="194.06666666666666" y="602.1" type="curve" smooth="yes"/>
      <point x="237.93333333333334" y="602.1"/>
      <point x="269.26666666666665" y="567.8333333333334"/>
      <point x="269.26666666666665" y="513.8333333333334" type="curve" smooth="yes"/>
      <point x="269.26666666666665" y="453.4666666666667"/>
      <point x="232.66666666666669" y="402.1"/>
    </contour>
    <contour>
      <point x="179.36666666666667" y="3.3666666666666667" type="curve" smooth="yes"/>
      <point x="245.93333333333334" y="3.3666666666666667"/>
      <point x="292.8" y="56.36666666666667"/>
      <point x="292.8" y="133.83333333333334" type="curve" smooth="yes"/>
      <point x="292.8" y="201.1"/>
      <point x="253.5" y="250.73333333333332"/>
      <point x="188.0" y="250.73333333333332" type="curve" smooth="yes"/>
      <point x="120.96666666666667" y="250.73333333333332"/>
      <point x="75.1" y="196.73333333333332"/>
      <point x="75.1" y="123.36666666666666" type="curve" smooth="yes"/>
      <point x="75.1" y="55.733333333333334"/>
      <point x="113.6" y="3.3666666666666667"/>
    </contour>
    <contour>
      <point x="173.2" y="27.366666666666667" type="curve" smooth="yes"/>
      <point x="128.7" y="27.366666666666667"/>
      <point x="99.36666666666666" y="64.36666666666666"/>
      <point x="99.36666666666666" y="117.36666666666666" type="curve" smooth="yes"/>
      <point x="99.36666666666666" y="176.0"/>
      <point x="135.23333333333335" y="227.36666666666667"/>
      <point x="194.06666666666666" y="227.36666666666667" type="curve" smooth="yes"/>
      <point x="237.93333333333334" y="227.36666666666667"/>
      <point x="269.26666666666665" y="193.1"/>
      <point x="269.26666666666665" y="139.1" type="curve" smooth="yes"/>
      <point x="269.26666666666665" y="78.73333333333333"/>
      <point x="232.66666666666669" y="27.366666666666667"/>
    </contour>
  </outline>
</glyph>
<glyph name="aa-beng" format="2">
  <advance width="872.6999999999999"/>
  <unicode hex="0986"/>
  <anchor x="591.3333333333333" y="-13.0" name="bottom"/>
  <anchor x="593.9666666666666" y="50.0" name="bottom.rakaar"/>
  <anchor x="593.9666666666666" y="6.0" name="bottom.rvocalic"/>
  <anchor x="584.7" y="0.0" name="bottom.virama"/>
  <anchor x="783.8666666666667" y="602.0" name="top"/>
  <anchor x="783.8666666666667" y="544.0" name="topright"/>
  <anchor x="436.0333333333333" y="0.0" name="vedic"/>
  <outline>
    <contour>
      <point x="590.9666666666667" y="-3.0" type="line"/>
      <point x="593.9666666666667" y="-2.0" type="line"/>
      <point x="593.9666666666667" y="602.0" type="line"/>
      <point x="688.0333333333334" y="602.0" type="line"/>
      <point x="674.7666666666667" y="622.0" type="line"/>
      <point x="-17.533333333333335" y="622.0" type="line"/>
      <point x="-4.266666666666667" y="602.0" type="line"/>
      <point x="571.3333333333333" y="602.0" type="line"/>
      <point x="571.3333333333333" y="46.666666666666664" type="line"/>
      <point x="580.0666666666667" y="43.733333333333334" type="line"/>
      <point x="556.0999999999999" y="118.6"/>
      <point x="513.2" y="178.79999999999998"/>
      <point x="456.70000000000005" y="228.63333333333335" type="curve"/>
      <point x="448.3333333333333" y="205.26666666666668" type="line"/>
      <point x="506.09999999999997" y="155.43333333333334"/>
      <point x="546.1" y="91.96666666666667"/>
      <point x="576.3333333333334" y="10.633333333333333" type="curve"/>
    </contour>
    <contour>
      <point x="324.0333333333333" y="133.0" type="curve" smooth="yes"/>
      <point x="413.23333333333335" y="133.0"/>
      <point x="479.06666666666666" y="187.0"/>
      <point x="482.3333333333333" y="311.1666666666667" type="curve" smooth="yes"/>
      <point x="485.96666666666664" y="441.3666666666666"/>
      <point x="410.96666666666664" y="515.8"/>
      <point x="315.1333333333333" y="512.6333333333333" type="curve" smooth="yes"/>
      <point x="254.73333333333338" y="510.73333333333335"/>
      <point x="229.26666666666665" y="485.3666666666667"/>
      <point x="229.26666666666665" y="447.3666666666667" type="curve" smooth="yes"/>
      <point x="229.26666666666665" y="414.1"/>
      <point x="250.80000000000004" y="391.46666666666664"/>
      <point x="282.3333333333333" y="391.46666666666664" type="curve" smooth="yes"/>
      <point x="316.8666666666667" y="391.46666666666664"/>
      <point x="335.1333333333333" y="419.4666666666667"/>
      <point x="335.1333333333333" y="455.1" type="curve" smooth="yes"/>
      <point x="335.1333333333333" y="529.5666666666667"/>
      <point x="291.43333333333334" y="578.8333333333334"/>
      <point x="258.20000000000005" y="605.0" type="curve"/>
      <point x="218.66666666666666" y="605.0" type="line"/>
      <point x="277.2666666666667" y="571.1"/>
      <point x="307.23333333333335" y="524.3"/>
      <point x="313.8666666666667" y="483.6333333333333" type="curve"/>
      <point x="319.8666666666667" y="485.6333333333333"/>
      <point x="325.6" y="486.6333333333333"/>
      <point x="332.8666666666667" y="486.6333333333333" type="curve" smooth="yes"/>
      <point x="392.70000000000005" y="486.6333333333333"/>
      <point x="461.43333333333334" y="435.6333333333333"/>
      <point x="461.43333333333334" y="322.0" type="curve" smooth="yes"/>
      <point x="461.43333333333334" y="216.0"/>
      <point x="409.03333333333336" y="159.0"/>
      <point x="320.03333333333336" y="159.0" type="curve" smooth="yes"/>
      <point x="220.10000000000002" y="159.0"/>
      <point x="122.23333333333333" y="244.96666666666667"/>
      <point x="58.333333333333336" y="510.8333333333333" type="curve"/>
      <point x="39.333333333333336" y="506.2" type="line"/>
      <point x="107.4" y="217.66666666666666"/>
      <point x="215.0" y="133.0"/>
    </contour>
    <contour>
      <point x="780.5000000000001" y="-10.0" type="line"/>
      <point x="783.5" y="-9.0" type="line"/>
      <point x="783.5" y="602.0" type="line"/>
      <point x="890.2333333333333" y="602.0" type="line"/>
      <point x="876.9666666666667" y="622.0" type="line"/>
      <point x="783.5" y="622.0" type="line"/>
      <point x="780.8666666666667" y="661.0" type="line"/>
      <point x="764.5" y="674.0" type="line"/>
      <point x="760.8666666666667" y="673.0" type="line"/>
      <point x="760.8666666666667" y="618.0" type="line" smooth="yes"/>
      <point x="760.8666666666667" y="601.4666666666667"/>
      <point x="761.8666666666667" y="574.7666666666667"/>
      <point x="763.5" y="538.9" type="curve"/>
      <point x="769.7666666666667" y="537.6333333333333" type="line"/>
      <point x="762.3000000000001" y="611.0999999999999"/>
      <point x="725.5333333333333" y="622.0"/>
      <point x="697.5666666666667" y="622.0" type="curve" smooth="yes"/>
      <point x="654.1333333333333" y="622.0" type="line"/>
      <point x="667.4" y="602.0" type="line"/>
      <point x="692.3000000000001" y="602.0" type="line" smooth="yes"/>
      <point x="731.5333333333333" y="602.0"/>
      <point x="754.6" y="578.0"/>
      <point x="760.8666666666667" y="514.0" type="curve"/>
      <point x="760.8666666666667" y="3.0" type="line"/>
    </contour>
  </outline>
</glyph>
<glyph name="i-beng" format="2">
  <advance width="422.7666666666667"/>
  <unicode hex="0987"/>
  <anchor x="270.73333333333335" y="74.0" name="bottom"/>
  <anchor x="382.73333333333335" y="-100.0" name="bottom.rakaar"/>
  <anchor x="306.73333333333335" y="100.0" name="bottom.rvocalic"/>
  <anchor x="236.73333333333332" y="90.0" name="bottom.virama"/>
  <anchor x="267.73333333333335" y="626.0" name="top"/>
  <anchor x="207.73333333333332" y="636.0" name="topright"/>
  <anchor x="211.06666666666666" y="0.0" name="vedic"/>
  <outline>
    <contour>
      <point x="335.40000000000003" y="618.0" type="curve"/>
      <point x="354.4" y="618.0" type="line"/>
      <point x="348.40000000000003" y="722.2"/>
      <point x="313.0" y="768.6333333333333"/>
      <point x="243.56666666666666" y="768.6333333333333" type="curve" smooth="yes"/>
      <point x="195.33333333333331" y="768.6333333333333"/>
      <point x="155.76666666666665" y="756.0"/>
      <point x="102.16666666666667" y="756.0" type="curve" smooth="yes"/>
      <point x="43.733333333333334" y="756.0"/>
      <point x="14.4" y="783.3666666666667"/>
      <point x="14.4" y="861.0" type="curve" smooth="yes"/>
      <point x="14.4" y="872.0"/>
      <point x="15.4" y="886.0999999999999"/>
      <point x="17.033333333333335" y="898.0" type="curve"/>
      <point x="-0.9666666666666668" y="900.0" type="line"/>
      <point x="-2.5999999999999996" y="888.9"/>
      <point x="-4.233333333333333" y="870.6333333333333"/>
      <point x="-4.233333333333333" y="856.0" type="curve" smooth="yes"/>
      <point x="-4.233333333333333" y="767.3666666666667"/>
      <point x="37.36666666666666" y="733.7333333333333"/>
      <point x="102.16666666666667" y="733.7333333333333" type="curve" smooth="yes"/>
      <point x="157.5" y="733.7333333333333"/>
      <point x="188.8" y="746.3666666666667"/>
      <point x="247.73333333333335" y="746.3666666666667" type="curve" smooth="yes"/>
      <point x="309.3666666666667" y="746.3666666666667"/>
      <point x="330.40000000000003" y="694.4666666666667"/>
    </contour>
    <component base="ha-beng" xOffset="0.7333333333333333"/>
  </outline>
</glyph>
<glyph name="ii-beng" format="2">
  <advance width="540.4666666666667"/>
  <unicode hex="0988"/>
  <anchor x="468.6333333333333" y="-32.0" name="bottom"/>
  <anchor x="468.6333333333333" y="70.0" name="bottom.rakaar"/>
  <anchor x="457.3666666666667" y="13.0" name="bottom.rvocalic"/>
  <anchor x="463.6333333333333" y="0.0" name="bottom.virama"/>
  <anchor x="304.1666666666667" y="626.0" name="top"/>
  <anchor x="262.93333333333334" y="636.0" name="topright"/>
  <anchor x="269.73333333333335" y="0.0" name="vedic"/>
  <outline>
    <contour>
      <point x="451.6333333333334" y="1.9999999999999996" type="curve"/>
      <point x="469.0" y="9.0" type="line"/>
      <point x="448.3" y="77.7"/>
      <point x="432.66666666666663" y="136.06666666666666"/>
      <point x="432.66666666666663" y="233.79999999999998" type="curve" smooth="yes"/>
      <point x="432.66666666666663" y="330.8"/>
      <point x="452.8333333333333" y="407.1666666666667"/>
      <point x="475.73333333333335" y="447.26666666666665" type="curve"/>
      <point x="449.3666666666667" y="477.0" type="line"/>
      <point x="405.1333333333333" y="455.1"/>
      <point x="327.8666666666667" y="372.9"/>
      <point x="275.3333333333333" y="272.56666666666666" type="curve"/>
      <point x="281.9666666666667" y="268.3" type="line"/>
      <point x="288.40000000000003" y="288.6333333333333"/>
      <point x="301.1666666666667" y="312.8333333333333"/>
      <point x="301.1666666666667" y="358.3666666666667" type="curve" smooth="yes"/>
      <point x="301.1666666666667" y="460.73333333333335"/>
      <point x="241.13333333333333" y="509.0"/>
      <point x="154.3" y="509.0" type="curve" smooth="yes"/>
      <point x="102.69999999999999" y="509.0"/>
      <point x="72.63333333333333" y="486.0"/>
      <point x="73.26666666666667" y="447.0" type="curve" smooth="yes"/>
      <point x="73.9" y="416.0"/>
      <point x="93.43333333333334" y="400.0"/>
      <point x="119.6" y="400.0" type="curve" smooth="yes"/>
      <point x="153.03333333333333" y="400.0"/>
      <point x="169.66666666666669" y="429.0"/>
      <point x="169.66666666666669" y="465.0" type="curve" smooth="yes"/>
      <point x="169.66666666666669" y="508.0"/>
      <point x="144.5" y="564.7333333333333"/>
      <point x="91.83333333333333" y="606.0" type="curve"/>
      <point x="52.03333333333334" y="606.0" type="line"/>
      <point x="102.43333333333334" y="578.0"/>
      <point x="134.13333333333333" y="540.0"/>
      <point x="147.66666666666666" y="486.0" type="curve"/>
      <point x="132.66666666666666" y="469.6333333333333" type="line"/>
      <point x="146.93333333333334" y="478.6333333333333"/>
      <point x="160.20000000000002" y="483.6333333333333"/>
      <point x="178.1" y="483.6333333333333" type="curve" smooth="yes"/>
      <point x="236.13333333333333" y="483.6333333333333"/>
      <point x="280.5333333333333" y="438.26666666666665"/>
      <point x="280.5333333333333" y="359.3333333333333" type="curve" smooth="yes"/>
      <point x="280.5333333333333" y="314.7"/>
      <point x="274.26666666666665" y="277.7"/>
      <point x="255.83333333333331" y="244.33333333333331" type="curve" smooth="yes"/>
      <point x="235.76666666666665" y="208.33333333333334"/>
      <point x="203.20000000000002" y="174.73333333333335"/>
      <point x="171.29999999999998" y="174.73333333333335" type="curve" smooth="yes"/>
      <point x="125.8" y="174.73333333333335"/>
      <point x="94.1" y="234.26666666666665"/>
      <point x="76.3" y="269.6333333333333" type="curve"/>
      <point x="59.93333333333333" y="261.26666666666665" type="line"/>
      <point x="81.73333333333333" y="213.9"/>
      <point x="117.33333333333334" y="149.1"/>
      <point x="174.56666666666666" y="149.1" type="curve" smooth="yes"/>
      <point x="227.5666666666667" y="149.1"/>
      <point x="259.59999999999997" y="202.10000000000002"/>
      <point x="295.46666666666664" y="262.40000000000003" type="curve" smooth="yes"/>
      <point x="335.0333333333333" y="327.2"/>
      <point x="405.40000000000003" y="421.3666666666667"/>
      <point x="458.3666666666667" y="452.0" type="curve"/>
      <point x="453.0" y="456.8" type="line"/>
      <point x="430.2" y="426.8"/>
      <point x="409.40000000000003" y="333.70000000000005"/>
      <point x="409.40000000000003" y="241.79999999999998" type="curve" smooth="yes"/>
      <point x="409.40000000000003" y="155.7"/>
      <point x="425.3" y="80.16666666666667"/>
    </contour>
    <contour>
      <point x="-4.266666666666667" y="602.0" type="line"/>
      <point x="558.0" y="602.0" type="line"/>
      <point x="544.7333333333333" y="622.0" type="line"/>
      <point x="-17.533333333333335" y="622.0" type="line"/>
    </contour>
    <contour>
      <point x="421.03333333333336" y="618.0" type="curve"/>
      <point x="440.0333333333333" y="618.0" type="line"/>
      <point x="431.5" y="721.8333333333334"/>
      <point x="386.6" y="769.0"/>
      <point x="314.7" y="769.0" type="curve" smooth="yes"/>
      <point x="259.1" y="769.0"/>
      <point x="231.3" y="755.0"/>
      <point x="169.46666666666667" y="755.0" type="curve" smooth="yes"/>
      <point x="103.33333333333334" y="755.0"/>
      <point x="69.73333333333333" y="783.0"/>
      <point x="69.73333333333333" y="861.0" type="curve" smooth="yes"/>
      <point x="69.73333333333333" y="872.0"/>
      <point x="70.73333333333333" y="886.1"/>
      <point x="72.36666666666666" y="898.0" type="curve"/>
      <point x="54.366666666666674" y="900.0" type="line"/>
      <point x="52.1" y="886.3666666666667"/>
      <point x="51.1" y="869.3666666666667"/>
      <point x="51.1" y="856.0" type="curve" smooth="yes"/>
      <point x="51.1" y="767.0"/>
      <point x="93.06666666666668" y="732.7333333333333"/>
      <point x="166.83333333333334" y="732.7333333333333" type="curve" smooth="yes"/>
      <point x="231.03333333333333" y="732.7333333333333"/>
      <point x="253.3" y="746.7333333333333"/>
      <point x="320.33333333333337" y="746.7333333333333" type="curve" smooth="yes"/>
      <point x="382.23333333333335" y="746.7333333333333"/>
      <point x="414.1333333333333" y="694.4666666666667"/>
    </contour>
  </outline>
</glyph>
<glyph name="u-beng" format="2">
  <advance width="565.0666666666667"/>
  <unicode hex="0989"/>
  <anchor x="398.43333333333334" y="40.0" name="bottom"/>
  <anchor x="441.3" y="-26.0" name="bottom.rakaar"/>
  <anchor x="369.4666666666667" y="85.0" name="bottom.rvocalic"/>
  <anchor x="339.66666666666663" y="30.0" name="bottom.virama"/>
  <anchor x="268.9666666666667" y="609.7" name="top"/>
  <anchor x="258.03333333333336" y="613.7333333333333" name="topright"/>
  <anchor x="282.53333333333336" y="0.0" name="vedic"/>
  <anchor x="297.3333333333333" y="-12.0" name="nukta"/>
  <outline>
    <contour>
      <point x="447.6333333333333" y="618.0" type="curve"/>
      <point x="466.6333333333333" y="618.0" type="line"/>
      <point x="458.1" y="721.8333333333334"/>
      <point x="414.4666666666667" y="769.0"/>
      <point x="341.3" y="769.0" type="curve" smooth="yes"/>
      <point x="283.79999999999995" y="769.0"/>
      <point x="251.56666666666666" y="755.0"/>
      <point x="189.73333333333335" y="755.0" type="curve" smooth="yes"/>
      <point x="123.6" y="755.0"/>
      <point x="90.0" y="783.0"/>
      <point x="90.0" y="861.0" type="curve" smooth="yes"/>
      <point x="90.0" y="872.0"/>
      <point x="91.0" y="886.1"/>
      <point x="92.63333333333334" y="898.0" type="curve"/>
      <point x="74.63333333333334" y="900.0" type="line"/>
      <point x="72.36666666666667" y="886.3666666666667"/>
      <point x="71.36666666666667" y="869.3666666666667"/>
      <point x="71.36666666666667" y="856.0" type="curve" smooth="yes"/>
      <point x="71.36666666666667" y="767.0"/>
      <point x="113.33333333333333" y="732.7333333333333"/>
      <point x="187.1" y="732.7333333333333" type="curve" smooth="yes"/>
      <point x="251.3" y="732.7333333333333"/>
      <point x="278.0" y="746.7333333333333"/>
      <point x="346.93333333333334" y="746.7333333333333" type="curve" smooth="yes"/>
      <point x="410.1" y="746.7333333333333"/>
      <point x="440.73333333333335" y="694.4666666666667"/>
    </contour>
    <component base="dda-beng"/>
  </outline>
</glyph>
<glyph name="uu-beng" format="2">
  <advance width="615.6333333333333"/>
  <unicode hex="098A"/>
  <anchor x="452.20000000000005" y="40.0" name="bottom"/>
  <anchor x="495.06666666666666" y="-26.0" name="bottom.rakaar"/>
  <anchor x="422.8666666666667" y="85.0" name="bottom.rvocalic"/>
  <anchor x="393.06666666666666" y="30.0" name="bottom.virama"/>
  <anchor x="342.03333333333336" y="623.0" name="top"/>
  <anchor x="317.6" y="636.0" name="topright"/>
  <anchor x="307.5" y="0.0" name="vedic"/>
  <outline>
    <contour>
      <point x="377.6333333333333" y="84.0" type="curve" smooth="yes"/>
      <point x="501.03333333333336" y="84.0"/>
      <point x="559.1999999999999" y="163.13333333333335"/>
      <point x="559.1999999999999" y="282.7" type="curve" smooth="yes"/>
      <point x="559.1999999999999" y="362.43333333333334"/>
      <point x="532.8333333333333" y="413.0"/>
      <point x="505.19999999999993" y="443.0" type="curve"/>
      <point x="462.90000000000003" y="379.90000000000003"/>
      <point x="403.06666666666666" y="322.0"/>
      <point x="353.8333333333333" y="322.0" type="curve" smooth="yes"/>
      <point x="322.6" y="322.0"/>
      <point x="307.8" y="339.6333333333333"/>
      <point x="307.8" y="367.9" type="curve" smooth="yes"/>
      <point x="307.8" y="602.0" type="line"/>
      <point x="633.1666666666666" y="602.0" type="line"/>
      <point x="619.5333333333333" y="622.0" type="line"/>
      <point x="-17.533333333333335" y="622.0" type="line"/>
      <point x="-4.266666666666667" y="602.0" type="line"/>
      <point x="285.1666666666667" y="602.0" type="line"/>
      <point x="285.1666666666667" y="365.0" type="line" smooth="yes"/>
      <point x="285.1666666666667" y="335.0"/>
      <point x="297.0666666666667" y="319.0"/>
      <point x="310.9666666666667" y="310.0" type="curve" smooth="yes"/>
      <point x="324.5" y="301.0"/>
      <point x="338.4" y="298.0"/>
      <point x="354.93333333333334" y="298.0" type="curve" smooth="yes"/>
      <point x="407.23333333333335" y="298.0"/>
      <point x="462.1" y="339.4333333333333"/>
      <point x="514.3" y="412.0" type="curve"/>
      <point x="499.3" y="416.96666666666664" type="line"/>
      <point x="517.9333333333334" y="394.7"/>
      <point x="537.2" y="355.59999999999997"/>
      <point x="537.2" y="288.6" type="curve" smooth="yes"/>
      <point x="537.2" y="167.96666666666667"/>
      <point x="480.1333333333333" y="109.63333333333333"/>
      <point x="382.3333333333333" y="109.63333333333334" type="curve" smooth="yes"/>
      <point x="247.03333333333333" y="109.63333333333334"/>
      <point x="184.46666666666667" y="282.0"/>
      <point x="139.96666666666667" y="498.6333333333333" type="curve"/>
      <point x="121.33333333333333" y="494.0" type="line"/>
      <point x="152.66666666666669" y="327.46666666666664"/>
      <point x="193.89999999999998" y="188.0"/>
      <point x="288.43333333333334" y="108.0" type="curve"/>
      <point x="304.9666666666667" y="117.0" type="line"/>
      <point x="180.46666666666667" y="143.0"/>
      <point x="99.36666666666667" y="277.6333333333333"/>
      <point x="50.6" y="498.6333333333333" type="curve"/>
      <point x="31.96666666666667" y="494.0" type="line"/>
      <point x="87.10000000000001" y="230.0"/>
      <point x="182.83333333333334" y="84.0"/>
    </contour>
    <contour>
      <point x="506.29999999999995" y="618.0" type="curve"/>
      <point x="525.3000000000001" y="618.0" type="line"/>
      <point x="516.7666666666667" y="721.8333333333334"/>
      <point x="467.6666666666667" y="769.0"/>
      <point x="388.06666666666666" y="769.0" type="curve" smooth="yes"/>
      <point x="325.43333333333334" y="769.0"/>
      <point x="260.76666666666665" y="751.2"/>
      <point x="190.06666666666666" y="751.2" type="curve" smooth="yes"/>
      <point x="119.5" y="751.2"/>
      <point x="73.3" y="783.0"/>
      <point x="73.3" y="861.0" type="curve" smooth="yes"/>
      <point x="73.3" y="872.0"/>
      <point x="74.3" y="886.1"/>
      <point x="75.93333333333334" y="898.0" type="curve"/>
      <point x="57.93333333333333" y="900.0" type="line"/>
      <point x="55.666666666666664" y="886.3666666666667"/>
      <point x="54.666666666666664" y="869.3666666666667"/>
      <point x="54.666666666666664" y="856.0" type="curve" smooth="yes"/>
      <point x="54.666666666666664" y="767.0"/>
      <point x="109.23333333333333" y="728.9333333333333"/>
      <point x="187.43333333333334" y="728.9333333333333" type="curve" smooth="yes"/>
      <point x="261.1333333333333" y="728.9333333333333"/>
      <point x="319.6333333333334" y="746.7333333333333"/>
      <point x="391.1666666666667" y="746.7333333333333" type="curve" smooth="yes"/>
      <point x="461.40000000000003" y="746.7333333333333"/>
      <point x="499.4" y="694.4666666666667"/>
    </contour>
  </outline>
</glyph>
<glyph name="rVocalic-beng" format="2">
  <advance width="595.8000000000001"/>
  <unicode hex="098B"/>
  <anchor x="381.3333333333333" y="-13.0" name="bottom"/>
  <anchor x="383.9666666666667" y="50.0" name="bottom.rakaar"/>
  <anchor x="302.59999999999997" y="147.1" name="bottom.rvocalic"/>
  <anchor x="374.3333333333333" y="0.0" name="bottom.virama"/>
  <anchor x="383.9666666666667" y="602.0" name="top"/>
  <anchor x="386.6" y="602.0" name="topright"/>
  <anchor x="297.90000000000003" y="0.0" name="vedic"/>
  <outline>
    <contour>
      <point x="381.7" y="-3.0" type="line"/>
      <point x="384.7" y="-2.0" type="line"/>
      <point x="384.7" y="638.0" type="line"/>
      <point x="365.70000000000005" y="654.0" type="line"/>
      <point x="362.0666666666667" y="653.0" type="line"/>
      <point x="362.0666666666667" y="489.96666666666664" type="line"/>
      <point x="370.9666666666667" y="504.6" type="line"/>
      <point x="264.59999999999997" y="467.93333333333334"/>
      <point x="153.39999999999998" y="405.2666666666667"/>
      <point x="50.36666666666667" y="324.7" type="curve"/>
      <point x="65.46666666666667" y="296.3333333333333" type="line"/>
      <point x="196.83333333333334" y="246.6"/>
      <point x="305.16666666666663" y="147.10000000000002"/>
      <point x="367.06666666666666" y="10.633333333333333" type="curve"/>
    </contour>
    <contour>
      <point x="362.0666666666667" y="40.33333333333333" type="line"/>
      <point x="370.8" y="43.733333333333334" type="line"/>
      <point x="315.73333333333335" y="167.63333333333333"/>
      <point x="203.36666666666667" y="267.06666666666666"/>
      <point x="77.36666666666667" y="320.06666666666666" type="curve"/>
      <point x="76.63333333333333" y="311.3333333333333" type="line"/>
      <point x="183.1" y="397.8"/>
      <point x="295.6666666666667" y="451.3"/>
      <point x="368.96666666666664" y="476.8666666666667" type="curve"/>
      <point x="362.0666666666667" y="486.9666666666667" type="line"/>
    </contour>
    <contour>
      <point x="73.83333333333334" y="480.1" type="curve" smooth="yes"/>
      <point x="142.03333333333333" y="480.1"/>
      <point x="218.60000000000002" y="524.7333333333333"/>
      <point x="251.3" y="599.0" type="curve"/>
      <point x="237.83333333333334" y="594.0" type="line"/>
      <point x="262.2666666666667" y="576.0"/>
      <point x="294.3" y="534.2"/>
      <point x="325.1" y="480.1" type="curve"/>
      <point x="344.43333333333334" y="480.23333333333335" type="line"/>
      <point x="308.2" y="555.3"/>
      <point x="268.6333333333333" y="600.7333333333333"/>
      <point x="238.66666666666666" y="624.0" type="curve"/>
      <point x="202.6" y="546.7333333333333"/>
      <point x="137.29999999999998" y="505.73333333333335"/>
      <point x="77.63333333333334" y="505.73333333333335" type="curve" smooth="yes"/>
      <point x="72.0" y="505.73333333333335"/>
      <point x="65.0" y="506.73333333333335"/>
      <point x="61.0" y="508.7333333333333" type="curve"/>
      <point x="70.4" y="495.3666666666667" type="line"/>
      <point x="80.66666666666667" y="505.7333333333333"/>
      <point x="84.30000000000001" y="514.3666666666667"/>
      <point x="84.30000000000001" y="528.1" type="curve" smooth="yes"/>
      <point x="84.30000000000001" y="549.1"/>
      <point x="72.03333333333335" y="564.8333333333334"/>
      <point x="48.4" y="564.8333333333334" type="curve" smooth="yes"/>
      <point x="26.4" y="564.8333333333334"/>
      <point x="11.4" y="549.4666666666667"/>
      <point x="11.4" y="526.1" type="curve" smooth="yes"/>
      <point x="11.4" y="493.93333333333334"/>
      <point x="37.93333333333333" y="480.1"/>
    </contour>
    <contour>
      <point x="503.6" y="98.89999999999999" type="line"/>
      <point x="506.6" y="99.89999999999999" type="line"/>
      <point x="506.6" y="602.0" type="line"/>
      <point x="613.3333333333334" y="602.0" type="line"/>
      <point x="600.0666666666667" y="622.0" type="line"/>
      <point x="506.6" y="622.0" type="line"/>
      <point x="503.96666666666664" y="661.0" type="line"/>
      <point x="487.59999999999997" y="674.0" type="line"/>
      <point x="483.96666666666664" y="673.0" type="line"/>
      <point x="483.96666666666664" y="142.23333333333332" type="line"/>
      <point x="492.7" y="145.63333333333335" type="line"/>
      <point x="465.3" y="208.53333333333333"/>
      <point x="425.5" y="269.8"/>
      <point x="377.43333333333334" y="315.3666666666667" type="curve"/>
      <point x="372.2666666666667" y="289.06666666666666" type="line"/>
      <point x="419.23333333333335" y="243.23333333333335"/>
      <point x="459.2" y="180.43333333333334"/>
      <point x="488.96666666666664" y="112.53333333333333" type="curve"/>
    </contour>
  </outline>
</glyph>
<glyph name="lVocalic-beng" format="2">
  <advance width="443.6666666666667"/>
  <unicode hex="098C"/>
  <anchor x="306.8" y="602.0" name="top"/>
  <anchor x="221.33333333333334" y="0.0" name="vedic"/>
  <outline>
    <contour>
      <point x="266.7333333333333" y="53.0" type="line"/>
      <point x="330.7" y="71.0"/>
      <point x="406.8" y="138.9"/>
      <point x="406.8" y="264.6333333333333" type="curve" smooth="yes"/>
      <point x="406.8" y="384.2333333333333"/>
      <point x="342.8666666666667" y="422.3666666666667"/>
      <point x="246.2" y="450.1666666666667" type="curve" smooth="yes"/>
      <point x="163.5" y="473.7"/>
      <point x="100.26666666666667" y="494.7"/>
      <point x="100.26666666666667" y="586.9" type="curve" smooth="yes"/>
      <point x="100.26666666666667" y="628.0"/>
      <point x="111.89999999999999" y="656.0"/>
      <point x="122.53333333333333" y="681.0" type="curve"/>
      <point x="105.16666666666667" y="689.0" type="line"/>
      <point x="88.63333333333334" y="655.0"/>
      <point x="80.26666666666667" y="619.3666666666667"/>
      <point x="80.26666666666667" y="586.0" type="curve" smooth="yes"/>
      <point x="80.26666666666667" y="480.7"/>
      <point x="143.43333333333334" y="456.3333333333333"/>
      <point x="234.46666666666667" y="430.26666666666665" type="curve" smooth="yes"/>
      <point x="327.6" y="403.46666666666664"/>
      <point x="385.5333333333333" y="375.7666666666667"/>
      <point x="385.5333333333333" y="260.26666666666665" type="curve" smooth="yes"/>
      <point x="385.5333333333333" y="160.26666666666668"/>
      <point x="326.9666666666667" y="95.0"/>
      <point x="277.73333333333335" y="82.0" type="curve"/>
      <point x="289.6333333333333" y="77.0" type="line"/>
      <point x="297.5333333333333" y="201.0"/>
      <point x="264.4" y="280.0"/>
      <point x="174.83333333333334" y="280.0" type="curve" smooth="yes"/>
      <point x="107.7" y="280.0"/>
      <point x="74.0" y="226.36666666666667"/>
      <point x="74.0" y="171.73333333333332" type="curve" smooth="yes"/>
      <point x="74.0" y="109.0"/>
      <point x="107.53333333333333" y="73.0"/>
      <point x="143.06666666666666" y="73.0" type="curve" smooth="yes"/>
      <point x="170.96666666666667" y="73.0"/>
      <point x="183.86666666666665" y="91.36666666666666"/>
      <point x="183.86666666666665" y="115.0" type="curve" smooth="yes"/>
      <point x="183.86666666666665" y="139.0"/>
      <point x="166.96666666666667" y="155.0"/>
      <point x="146.06666666666666" y="155.0" type="curve" smooth="yes"/>
      <point x="125.8" y="155.0"/>
      <point x="109.63333333333333" y="139.0"/>
      <point x="111.26666666666667" y="114.26666666666667" type="curve"/>
      <point x="123.43333333333334" y="113.26666666666668" type="line"/>
      <point x="111.16666666666666" y="119.26666666666667"/>
      <point x="96.0" y="135.0"/>
      <point x="96.0" y="174.0" type="curve" smooth="yes"/>
      <point x="96.0" y="238.0"/>
      <point x="141.13333333333333" y="258.0"/>
      <point x="175.46666666666667" y="258.0" type="curve" smooth="yes"/>
      <point x="246.5" y="258.0"/>
      <point x="268.3666666666667" y="192.0"/>
      <point x="268.3666666666667" y="111.0" type="curve" smooth="yes"/>
      <point x="268.3666666666667" y="86.46666666666667"/>
      <point x="266.1" y="70.46666666666667"/>
      <point x="263.73333333333335" y="56.0" type="curve"/>
    </contour>
  </outline>
</glyph>
<glyph name="e-beng" format="2">
  <advance width="573.7333333333333"/>
  <unicode hex="098F"/>
  <anchor x="492.03333333333336" y="-19.0" name="bottom"/>
  <anchor x="492.03333333333336" y="2.0" name="bottom.rvocalic"/>
  <anchor x="482.40000000000003" y="0.0" name="bottom.virama"/>
  <anchor x="414.8333333333333" y="602.0" name="top"/>
  <anchor x="417.46666666666664" y="602.0" name="topright"/>
  <anchor x="286.8666666666667" y="0.0" name="vedic"/>
  <outline>
    <contour>
      <point x="489.76666666666665" y="-7.0" type="line"/>
      <point x="492.76666666666665" y="-6.0" type="line"/>
      <point x="492.76666666666665" y="535.1333333333334" type="line" smooth="yes"/>
      <point x="492.76666666666665" y="598.9333333333334"/>
      <point x="470.5" y="630.6333333333333"/>
      <point x="417.5666666666667" y="630.6333333333333" type="curve" smooth="yes"/>
      <point x="324.3666666666667" y="630.6333333333333"/>
      <point x="221.9" y="493.73333333333335"/>
      <point x="221.9" y="379.3666666666667" type="curve" smooth="yes"/>
      <point x="221.9" y="318.46666666666664"/>
      <point x="254.06666666666666" y="299.73333333333335"/>
      <point x="280.96666666666664" y="299.73333333333335" type="curve" smooth="yes"/>
      <point x="314.5" y="299.73333333333335"/>
      <point x="333.76666666666665" y="322.73333333333335"/>
      <point x="333.76666666666665" y="353.0" type="curve" smooth="yes"/>
      <point x="333.76666666666665" y="386.0"/>
      <point x="313.76666666666665" y="404.9"/>
      <point x="286.2333333333333" y="404.9" type="curve" smooth="yes"/>
      <point x="265.43333333333334" y="404.9"/>
      <point x="247.53333333333336" y="394.0"/>
      <point x="241.9" y="373.0" type="curve"/>
      <point x="249.43333333333334" y="379.06666666666666" type="line"/>
      <point x="247.8" y="501.8"/>
      <point x="353.7" y="606.2666666666667"/>
      <point x="417.93333333333334" y="606.2666666666667" type="curve" smooth="yes"/>
      <point x="456.96666666666664" y="606.2666666666667"/>
      <point x="470.1333333333333" y="585.7333333333333"/>
      <point x="470.1333333333333" y="528.0" type="curve" smooth="yes"/>
      <point x="470.1333333333333" y="170.0" type="line" smooth="yes"/>
      <point x="470.1333333333333" y="135.0"/>
      <point x="470.1333333333333" y="88.63333333333334"/>
      <point x="472.1333333333334" y="53.833333333333336" type="curve"/>
      <point x="441.5333333333333" y="115.7"/>
      <point x="398.2" y="126.53333333333335"/>
      <point x="357.59999999999997" y="126.53333333333335" type="curve" smooth="yes"/>
      <point x="302.1333333333333" y="126.53333333333335"/>
      <point x="261.43333333333334" y="108.36666666666667"/>
      <point x="193.8" y="108.36666666666667" type="curve" smooth="yes"/>
      <point x="113.23333333333333" y="108.36666666666667"/>
      <point x="73.16666666666667" y="155.10000000000002"/>
      <point x="73.16666666666667" y="250.83333333333334" type="curve" smooth="yes"/>
      <point x="73.16666666666667" y="290.09999999999997"/>
      <point x="79.8" y="318.6666666666667"/>
      <point x="85.80000000000001" y="341.3" type="curve"/>
      <point x="66.8" y="346.9333333333333" type="line"/>
      <point x="58.8" y="319.93333333333334"/>
      <point x="53.166666666666664" y="281.8333333333333"/>
      <point x="53.166666666666664" y="241.83333333333334" type="curve" smooth="yes"/>
      <point x="53.166666666666664" y="120.46666666666667"/>
      <point x="114.13333333333334" y="82.36666666666667"/>
      <point x="192.16666666666669" y="82.36666666666667" type="curve" smooth="yes"/>
      <point x="267.06666666666666" y="82.36666666666667"/>
      <point x="299.0333333333333" y="100.53333333333333"/>
      <point x="360.7" y="100.53333333333333" type="curve" smooth="yes"/>
      <point x="405.2" y="100.53333333333333"/>
      <point x="443.43333333333334" y="84.53333333333333"/>
      <point x="476.03333333333336" y="7.0" type="curve"/>
    </contour>
  </outline>
</glyph>
<glyph name="ai-beng" format="2">
  <advance width="657.0333333333334"/>
  <unicode hex="0990"/>
  <anchor x="438.3333333333333" y="602.0" name="top"/>
  <anchor x="414.33333333333337" y="616.0" name="topright"/>
  <anchor x="328.20000000000005" y="0.0" name="vedic"/>
  <anchor x="492.03333333333336" y="-19.0" name="bottom"/>
  <anchor x="492.03333333333336" y="2.0" name="bottom.rvocalic"/>
  <anchor x="482.40000000000003" y="0.0" name="bottom.virama"/>
  <outline>
    <contour>
      <point x="490.1333333333333" y="354.26666666666665" type="line"/>
      <point x="550.4333333333333" y="414.26666666666665"/>
      <point x="588.8666666666667" y="476.3666666666667"/>
      <point x="588.8666666666667" y="565.0" type="curve" smooth="yes"/>
      <point x="588.8666666666667" y="691.0"/>
      <point x="507.8333333333333" y="730.0"/>
      <point x="381.23333333333335" y="743.0" type="curve" smooth="yes"/>
      <point x="281.7" y="753.0"/>
      <point x="197.96666666666667" y="763.6333333333333"/>
      <point x="197.96666666666667" y="866.0666666666666" type="curve" smooth="yes"/>
      <point x="197.96666666666667" y="899.1666666666666"/>
      <point x="206.06666666666666" y="923.3666666666667"/>
      <point x="216.60000000000002" y="944.3666666666667" type="curve"/>
      <point x="197.60000000000002" y="952.0" type="line"/>
      <point x="186.70000000000002" y="929.0"/>
      <point x="177.96666666666667" y="901.5333333333334"/>
      <point x="177.96666666666667" y="864.0666666666666" type="curve" smooth="yes"/>
      <point x="177.96666666666667" y="750.0999999999999"/>
      <point x="258.43333333333334" y="729.0"/>
      <point x="374.23333333333335" y="720.0" type="curve" smooth="yes"/>
      <point x="485.93333333333334" y="711.3666666666667"/>
      <point x="566.8666666666667" y="679.0"/>
      <point x="566.8666666666667" y="567.0" type="curve" smooth="yes"/>
      <point x="566.8666666666667" y="486.3666666666667"/>
      <point x="536.8" y="432.3666666666667"/>
      <point x="484.0333333333333" y="378.3666666666667" type="curve"/>
    </contour>
    <component base="e-beng"/>
  </outline>
</glyph>
<glyph name="o-beng" format="2">
  <advance width="625.8333333333334"/>
  <unicode hex="0993"/>
  <anchor x="461.23333333333335" y="41.0" name="bottom"/>
  <anchor x="504.09999999999997" y="-25.0" name="bottom.rakaar"/>
  <anchor x="431.90000000000003" y="86.0" name="bottom.rvocalic"/>
  <anchor x="402.1" y="31.0" name="bottom.virama"/>
  <anchor x="396.5666666666667" y="602.0" name="top"/>
  <anchor x="394.3" y="602.0" name="topright"/>
  <anchor x="312.73333333333335" y="0.0" name="vedic"/>
  <outline>
    <contour>
      <point x="395.56666666666666" y="85.0" type="curve" smooth="yes"/>
      <point x="499.56666666666666" y="85.0"/>
      <point x="564.5" y="146.0"/>
      <point x="564.5" y="254.0" type="curve" smooth="yes"/>
      <point x="564.5" y="364.43333333333334"/>
      <point x="487.1" y="408.0"/>
      <point x="444.6666666666667" y="408.0" type="curve" smooth="yes"/>
      <point x="418.23333333333335" y="408.0"/>
      <point x="399.3333333333333" y="391.73333333333335"/>
      <point x="399.3333333333333" y="363.1" type="curve" smooth="yes"/>
      <point x="399.3333333333333" y="334.2"/>
      <point x="418.8666666666667" y="318.1"/>
      <point x="445.0333333333333" y="318.1" type="curve" smooth="yes"/>
      <point x="488.3666666666667" y="318.1"/>
      <point x="547.9666666666667" y="379.40000000000003"/>
      <point x="547.9666666666667" y="486.0" type="curve" smooth="yes"/>
      <point x="547.9666666666667" y="569.3666666666667"/>
      <point x="498.7333333333333" y="616.0"/>
      <point x="420.43333333333334" y="616.0" type="curve" smooth="yes"/>
      <point x="299.73333333333335" y="616.0"/>
      <point x="206.73333333333335" y="506.0"/>
      <point x="206.73333333333335" y="421.0" type="curve" smooth="yes"/>
      <point x="206.73333333333335" y="377.0"/>
      <point x="229.9" y="357.0"/>
      <point x="257.06666666666666" y="357.0" type="curve" smooth="yes"/>
      <point x="284.23333333333335" y="357.0"/>
      <point x="302.1333333333333" y="375.0"/>
      <point x="302.1333333333333" y="405.0" type="curve" smooth="yes"/>
      <point x="302.1333333333333" y="431.0"/>
      <point x="285.6" y="451.0"/>
      <point x="259.7" y="451.0" type="curve" smooth="yes"/>
      <point x="245.16666666666666" y="451.0"/>
      <point x="229.26666666666665" y="444.6333333333333"/>
      <point x="218.73333333333332" y="416.0" type="curve"/>
      <point x="232.10000000000002" y="409.0" type="line"/>
      <point x="236.73333333333335" y="532.0"/>
      <point x="342.3333333333333" y="594.2666666666667"/>
      <point x="422.43333333333334" y="594.2666666666667" type="curve" smooth="yes"/>
      <point x="490.3666666666667" y="594.2666666666667"/>
      <point x="525.9666666666667" y="552.6333333333333"/>
      <point x="525.9666666666667" y="489.0" type="curve" smooth="yes"/>
      <point x="525.9666666666667" y="432.73333333333335"/>
      <point x="505.33333333333337" y="389.0"/>
      <point x="474.53333333333336" y="374.0" type="curve"/>
      <point x="481.0" y="364.3666666666666" type="line"/>
      <point x="512.9666666666667" y="363.3666666666666"/>
      <point x="542.5" y="317.6333333333333"/>
      <point x="542.5" y="256.0" type="curve" smooth="yes"/>
      <point x="542.5" y="153.0"/>
      <point x="477.03333333333336" y="110.63333333333333"/>
      <point x="397.2" y="110.63333333333333" type="curve" smooth="yes"/>
      <point x="244.8" y="110.63333333333333"/>
      <point x="127.83333333333334" y="248.0"/>
      <point x="57.9" y="517.0" type="curve"/>
      <point x="38.9" y="512.0" type="line"/>
      <point x="114.73333333333333" y="207.0"/>
      <point x="249.96666666666667" y="85.0"/>
    </contour>
  </outline>
</glyph>
<glyph name="au-beng" format="2">
  <advance width="676.6666666666666"/>
  <unicode hex="0994"/>
  <anchor x="510.0" y="41.0" name="bottom"/>
  <anchor x="558.0" y="-25.0" name="bottom.rakaar"/>
  <anchor x="477.0" y="86.0" name="bottom.rvocalic"/>
  <anchor x="445.0" y="31.0" name="bottom.virama"/>
  <anchor x="516.0" y="602.0" name="top"/>
  <anchor x="472.0" y="616.0" name="topright"/>
  <anchor x="338.3333333333333" y="0.0" name="vedic"/>
  <outline>
    <contour>
      <point x="509.7666666666667" y="354.26666666666665" type="line"/>
      <point x="570.0666666666667" y="414.26666666666665"/>
      <point x="608.5" y="476.3666666666667"/>
      <point x="608.5" y="563.1" type="curve" smooth="yes"/>
      <point x="608.5" y="691.0"/>
      <point x="527.4666666666666" y="730.0"/>
      <point x="400.8666666666667" y="743.0" type="curve" smooth="yes"/>
      <point x="301.3333333333333" y="753.0"/>
      <point x="217.6" y="763.6333333333333"/>
      <point x="217.6" y="866.0666666666666" type="curve" smooth="yes"/>
      <point x="217.6" y="899.1666666666666"/>
      <point x="225.70000000000002" y="923.3666666666667"/>
      <point x="236.23333333333335" y="944.3666666666667" type="curve"/>
      <point x="217.23333333333335" y="952.0" type="line"/>
      <point x="206.33333333333334" y="929.0"/>
      <point x="197.60000000000002" y="901.5333333333334"/>
      <point x="197.60000000000002" y="864.0666666666666" type="curve" smooth="yes"/>
      <point x="197.60000000000002" y="750.0999999999999"/>
      <point x="278.06666666666666" y="729.0"/>
      <point x="393.8666666666667" y="720.0" type="curve" smooth="yes"/>
      <point x="505.56666666666666" y="711.3666666666667"/>
      <point x="586.5" y="679.0"/>
      <point x="586.5" y="565.1" type="curve" smooth="yes"/>
      <point x="586.5" y="486.3666666666667"/>
      <point x="556.4333333333334" y="432.3666666666667"/>
      <point x="503.66666666666663" y="378.3666666666667" type="curve"/>
    </contour>
    <component base="o-beng"/>
  </outline>
</glyph>
<glyph name="ka-beng" format="2">
  <advance width="645.9333333333333"/>
  <unicode hex="0995"/>
  <anchor x="372.83333333333337" y="11.0" name="bottom"/>
  <anchor x="381.3666666666666" y="20.0" name="bottom.rakaar"/>
  <anchor x="382.1" y="6.0" name="bottom.rvocalic"/>
  <anchor x="380.6333333333333" y="32.0" name="bottom.virama"/>
  <anchor x="192.0" y="91.66666666666667" name="nukta"/>
  <anchor x="393.1666666666667" y="602.0" name="top"/>
  <anchor x="384.0" y="602.0" name="topright"/>
  <anchor x="322.96666666666664" y="0.0" name="vedic"/>
  <outline>
    <contour>
      <point x="379.1" y="-3.0" type="line"/>
      <point x="382.1" y="-2.0" type="line"/>
      <point x="382.1" y="495.3666666666667" type="line"/>
      <point x="370.09999999999997" y="484.1" type="line"/>
      <point x="372.73333333333335" y="485.73333333333335"/>
      <point x="377.3666666666667" y="486.73333333333335"/>
      <point x="383.0" y="486.73333333333335" type="curve" smooth="yes"/>
      <point x="471.23333333333335" y="486.73333333333335"/>
      <point x="574.6333333333333" y="410.2333333333333"/>
      <point x="574.6333333333333" y="299.0333333333333" type="curve" smooth="yes"/>
      <point x="574.6333333333333" y="278.8333333333333"/>
      <point x="571.1666666666666" y="267.93333333333334"/>
      <point x="563.2666666666667" y="258.93333333333334" type="curve"/>
      <point x="572.4333333333334" y="263.93333333333334" type="line"/>
      <point x="568.8000000000001" y="288.93333333333334"/>
      <point x="552.4333333333333" y="303.56666666666666"/>
      <point x="530.2666666666667" y="303.56666666666666" type="curve" smooth="yes"/>
      <point x="502.73333333333335" y="303.56666666666666"/>
      <point x="486.8333333333333" y="284.93333333333334"/>
      <point x="486.8333333333333" y="258.3" type="curve" smooth="yes"/>
      <point x="486.8333333333333" y="228.3"/>
      <point x="507.73333333333335" y="210.3"/>
      <point x="534.3666666666667" y="210.3" type="curve" smooth="yes"/>
      <point x="563.2666666666667" y="210.3"/>
      <point x="596.2666666666667" y="230.23333333333335"/>
      <point x="596.2666666666667" y="298.03333333333336" type="curve" smooth="yes"/>
      <point x="596.2666666666667" y="420.3333333333333"/>
      <point x="486.40000000000003" y="505.73333333333335"/>
      <point x="374.73333333333335" y="513.7333333333333" type="curve"/>
      <point x="382.1" y="499.1" type="line"/>
      <point x="382.1" y="602.0" type="line"/>
      <point x="663.4666666666667" y="602.0" type="line"/>
      <point x="649.8333333333334" y="622.0" type="line"/>
      <point x="-17.533333333333335" y="622.0" type="line"/>
      <point x="-4.266666666666667" y="602.0" type="line"/>
      <point x="359.46666666666664" y="602.0" type="line"/>
      <point x="359.46666666666664" y="499.46666666666664" type="line"/>
      <point x="368.3666666666667" y="514.1" type="line"/>
      <point x="260.46666666666664" y="477.43333333333334"/>
      <point x="150.79999999999998" y="408.43333333333334"/>
      <point x="47.766666666666666" y="327.8666666666667" type="curve"/>
      <point x="62.86666666666666" y="299.5" type="line"/>
      <point x="194.23333333333335" y="249.76666666666668"/>
      <point x="300.6666666666667" y="149.63333333333335"/>
      <point x="364.46666666666664" y="10.633333333333333" type="curve"/>
    </contour>
    <contour>
      <point x="359.46666666666664" y="40.33333333333333" type="line"/>
      <point x="368.2" y="43.733333333333334" type="line"/>
      <point x="313.1333333333333" y="167.63333333333333"/>
      <point x="200.76666666666665" y="270.8666666666667"/>
      <point x="74.76666666666667" y="323.23333333333335" type="curve"/>
      <point x="74.03333333333333" y="314.5" type="line"/>
      <point x="179.86666666666667" y="400.70000000000005"/>
      <point x="292.43333333333334" y="462.0666666666667"/>
      <point x="366.3666666666667" y="486.3666666666667" type="curve"/>
      <point x="359.46666666666664" y="496.46666666666664" type="line"/>
    </contour>
  </outline>
</glyph>
<glyph name="kha-beng" format="2">
  <advance width="513.0333333333333"/>
  <unicode hex="0996"/>
  <anchor x="414.56666666666666" y="11.0" name="bottom"/>
  <anchor x="423.1" y="39.0" name="bottom.rakaar"/>
  <anchor x="423.8333333333333" y="6.0" name="bottom.rvocalic"/>
  <anchor x="416.0333333333333" y="11.733333333333333" name="bottom.virama"/>
  <anchor x="423.83333333333337" y="581.1" name="top"/>
  <anchor x="428.83333333333337" y="565.1" name="topright"/>
  <anchor x="238.4" y="0.0" name="vedic"/>
  <outline>
    <contour>
      <point x="420.8333333333333" y="-3.0" type="line"/>
      <point x="423.8333333333333" y="-2.0" type="line"/>
      <point x="423.8333333333333" y="602.0" type="line"/>
      <point x="530.5666666666666" y="602.0" type="line"/>
      <point x="517.3000000000001" y="622.0" type="line"/>
      <point x="423.8333333333333" y="622.0" type="line"/>
      <point x="421.20000000000005" y="661.0" type="line"/>
      <point x="404.83333333333337" y="674.0" type="line"/>
      <point x="401.20000000000005" y="673.0" type="line"/>
      <point x="401.20000000000005" y="40.33333333333333" type="line"/>
      <point x="409.93333333333334" y="43.733333333333334" type="line"/>
      <point x="356.1333333333334" y="172.06666666666666"/>
      <point x="239.33333333333334" y="277.2"/>
      <point x="117.3" y="321.26666666666665" type="curve"/>
      <point x="122.86666666666667" y="310.0" type="line"/>
      <point x="247.73333333333335" y="330.0"/>
      <point x="306.1333333333333" y="392.70000000000005"/>
      <point x="306.1333333333333" y="479.3333333333333" type="curve" smooth="yes"/>
      <point x="306.1333333333333" y="556.1666666666666"/>
      <point x="272.8" y="595.6333333333333"/>
      <point x="245.63333333333333" y="624.0" type="curve"/>
      <point x="209.56666666666666" y="548.6333333333333"/>
      <point x="144.26666666666668" y="507.6333333333333"/>
      <point x="80.8" y="507.6333333333333" type="curve" smooth="yes"/>
      <point x="73.89999999999999" y="507.6333333333333"/>
      <point x="65.63333333333334" y="508.6333333333333"/>
      <point x="61.0" y="510.6333333333333" type="curve"/>
      <point x="72.3" y="496.0" type="line"/>
      <point x="83.2" y="507.0"/>
      <point x="86.83333333333334" y="515.6333333333333"/>
      <point x="86.83333333333334" y="530.0" type="curve" smooth="yes"/>
      <point x="86.83333333333334" y="551.6333333333333"/>
      <point x="73.93333333333334" y="568.0"/>
      <point x="49.66666666666667" y="568.0" type="curve" smooth="yes"/>
      <point x="27.03333333333333" y="568.0"/>
      <point x="11.4" y="552.0"/>
      <point x="11.4" y="528.0" type="curve" smooth="yes"/>
      <point x="11.4" y="495.83333333333337"/>
      <point x="38.56666666666667" y="482.0"/>
      <point x="75.10000000000001" y="482.0" type="curve" smooth="yes"/>
      <point x="149.63333333333335" y="482.0"/>
      <point x="226.20000000000002" y="526.0"/>
      <point x="258.26666666666665" y="599.0" type="curve"/>
      <point x="242.8" y="592.9" type="line"/>
      <point x="261.70000000000005" y="574.9"/>
      <point x="283.50000000000006" y="541.3333333333333"/>
      <point x="283.50000000000006" y="484.33333333333337" type="curve" smooth="yes"/>
      <point x="283.50000000000006" y="387.3333333333333"/>
      <point x="196.66666666666666" y="344.0"/>
      <point x="92.86666666666667" y="333.0" type="curve"/>
      <point x="102.86666666666667" y="295.0" type="line"/>
      <point x="232.79999999999998" y="256.73333333333335"/>
      <point x="345.56666666666666" y="151.53333333333333"/>
      <point x="406.2" y="10.633333333333333" type="curve"/>
    </contour>
  </outline>
</glyph>
<glyph name="ga-beng" format="2">
  <advance width="514.4333333333334"/>
  <unicode hex="0997"/>
  <anchor x="408.96666666666664" y="66.66666666666667" name="bottom"/>
  <anchor x="424.5" y="-17.0" name="bottom.rakaar"/>
  <anchor x="425.23333333333335" y="-1.0999999999999999" name="bottom.rvocalic"/>
  <anchor x="419.5" y="5.0" name="bottom.virama"/>
  <anchor x="425.23333333333335" y="545.0" name="top"/>
  <anchor x="430.23333333333335" y="565.1" name="topright"/>
  <anchor x="257.03333333333336" y="0.0" name="vedic"/>
  <outline>
    <contour>
      <point x="422.2333333333333" y="-10.0" type="line"/>
      <point x="425.23333333333335" y="-9.0" type="line"/>
      <point x="425.23333333333335" y="602.0" type="line"/>
      <point x="531.9666666666667" y="602.0" type="line"/>
      <point x="518.6999999999999" y="622.0" type="line"/>
      <point x="425.23333333333335" y="622.0" type="line"/>
      <point x="422.6" y="661.0" type="line"/>
      <point x="406.23333333333335" y="674.0" type="line"/>
      <point x="402.6" y="673.0" type="line"/>
      <point x="402.6" y="569.0" type="line" smooth="yes"/>
      <point x="402.6" y="520.8666666666666"/>
      <point x="403.23333333333335" y="466.0333333333333"/>
      <point x="405.8666666666667" y="417.26666666666665" type="curve"/>
      <point x="412.59999999999997" y="410.3333333333333" type="line"/>
      <point x="368.4666666666667" y="539.8333333333334"/>
      <point x="298.9666666666667" y="631.0"/>
      <point x="205.4" y="631.0" type="curve" smooth="yes"/>
      <point x="122.36666666666666" y="631.0"/>
      <point x="64.23333333333333" y="561.0"/>
      <point x="30.233333333333334" y="459.53333333333336" type="curve"/>
      <point x="55.96666666666667" y="441.1" type="line"/>
      <point x="89.0" y="466.26666666666665"/>
      <point x="121.86666666666666" y="484.43333333333334"/>
      <point x="164.63333333333333" y="484.43333333333334" type="curve" smooth="yes"/>
      <point x="210.96666666666667" y="484.43333333333334"/>
      <point x="231.96666666666667" y="450.26666666666665"/>
      <point x="231.96666666666667" y="412.79999999999995" type="curve" smooth="yes"/>
      <point x="231.96666666666667" y="357.9666666666667"/>
      <point x="204.0666666666667" y="308.53333333333336"/>
      <point x="137.4" y="266.26666666666665" type="curve"/>
      <point x="157.66666666666666" y="242.0" type="line"/>
      <point x="210.89999999999998" y="282.26666666666665"/>
      <point x="255.6" y="335.7"/>
      <point x="255.6" y="409.06666666666666" type="curve" smooth="yes"/>
      <point x="255.6" y="469.53333333333336"/>
      <point x="220.33333333333334" y="509.06666666666666"/>
      <point x="165.53333333333333" y="509.06666666666666" type="curve" smooth="yes"/>
      <point x="121.13333333333334" y="509.06666666666666"/>
      <point x="81.36666666666666" y="489.0"/>
      <point x="52.766666666666666" y="462.3666666666667" type="curve"/>
      <point x="59.5" y="457.0" type="line"/>
      <point x="93.66666666666667" y="560.0"/>
      <point x="147.63333333333333" y="607.3666666666667"/>
      <point x="209.13333333333333" y="607.3666666666667" type="curve" smooth="yes"/>
      <point x="292.6666666666667" y="607.3666666666667"/>
      <point x="359.90000000000003" y="511.26666666666665"/>
      <point x="406.7" y="370.66666666666663" type="curve"/>
      <point x="402.6" y="408.96666666666664" type="line"/>
      <point x="402.6" y="3.0" type="line"/>
    </contour>
  </outline>
</glyph>
<glyph name="gha-beng" format="2">
  <advance width="471.29999999999995"/>
  <unicode hex="0998"/>
  <anchor x="372.83333333333337" y="11.0" name="bottom"/>
  <anchor x="381.3666666666666" y="39.0" name="bottom.rakaar"/>
  <anchor x="382.1" y="6.0" name="bottom.rvocalic"/>
  <anchor x="374.3" y="11.733333333333333" name="bottom.virama"/>
  <anchor x="384.3" y="602.0" name="top"/>
  <anchor x="384.0" y="602.0" name="topright"/>
  <anchor x="235.33333333333331" y="0.0" name="vedic"/>
  <outline>
    <contour>
      <point x="379.1" y="-3.0" type="line"/>
      <point x="382.1" y="-2.0" type="line"/>
      <point x="382.1" y="602.0" type="line"/>
      <point x="488.8333333333333" y="602.0" type="line"/>
      <point x="475.56666666666666" y="622.0" type="line"/>
      <point x="-17.533333333333335" y="622.0" type="line"/>
      <point x="-4.266666666666667" y="602.0" type="line"/>
      <point x="359.46666666666664" y="602.0" type="line"/>
      <point x="359.46666666666664" y="40.33333333333333" type="line"/>
      <point x="368.2" y="43.733333333333334" type="line"/>
      <point x="312.5" y="173.96666666666667"/>
      <point x="200.76666666666665" y="260.23333333333335"/>
      <point x="74.76666666666667" y="307.0" type="curve"/>
      <point x="75.5" y="298.6333333333333" type="line"/>
      <point x="148.70000000000002" y="361.5333333333333"/>
      <point x="228.7" y="405.53333333333336"/>
      <point x="284.83333333333337" y="436.6333333333333" type="curve"/>
      <point x="272.83333333333337" y="458.26666666666665" type="line"/>
      <point x="244.86666666666667" y="437.9"/>
      <point x="210.2" y="421.3666666666667"/>
      <point x="177.2" y="421.3666666666667" type="curve" smooth="yes"/>
      <point x="130.33333333333334" y="421.3666666666667"/>
      <point x="77.83333333333333" y="450.43333333333334"/>
      <point x="77.83333333333333" y="512.3333333333334" type="curve" smooth="yes"/>
      <point x="77.83333333333333" y="578.5333333333333"/>
      <point x="130.6" y="600.0"/>
      <point x="166.33333333333334" y="605.0" type="curve"/>
      <point x="136.06666666666666" y="619.0" type="line"/>
      <point x="91.46666666666667" y="606.5333333333333"/>
      <point x="52.56666666666666" y="575.6"/>
      <point x="52.56666666666666" y="510.3333333333333" type="curve" smooth="yes"/>
      <point x="52.56666666666666" y="444.43333333333334"/>
      <point x="106.89999999999999" y="397.73333333333335"/>
      <point x="182.29999999999998" y="399.3666666666667" type="curve"/>
      <point x="182.9333333333333" y="405.8333333333333" type="line"/>
      <point x="127.46666666666667" y="373.56666666666666"/>
      <point x="87.66666666666667" y="343.4666666666667"/>
      <point x="48.86666666666667" y="311.6333333333333" type="curve"/>
      <point x="62.86666666666667" y="283.2666666666667" type="line"/>
      <point x="194.23333333333335" y="239.76666666666665"/>
      <point x="301.93333333333334" y="153.43333333333334"/>
      <point x="364.46666666666664" y="10.633333333333333" type="curve"/>
    </contour>
  </outline>
</glyph>
<glyph name="nga-beng" format="2">
  <advance width="536.7666666666668"/>
  <unicode hex="0999"/>
  <anchor x="355.26666666666665" y="34.0" name="bottom"/>
  <anchor x="433.73333333333335" y="-56.0" name="bottom.rakaar"/>
  <anchor x="361.9" y="55.0" name="bottom.rvocalic"/>
  <anchor x="333.5666666666667" y="0.0" name="bottom.virama"/>
  <anchor x="269.46666666666664" y="602.0" name="top"/>
  <anchor x="271.73333333333335" y="602.0" name="topright"/>
  <anchor x="268.0666666666667" y="0.0" name="vedic"/>
  <outline>
    <contour>
      <point x="324.1" y="54.0" type="curve" smooth="yes"/>
      <point x="439.3333333333333" y="54.0"/>
      <point x="497.03333333333336" y="133.5"/>
      <point x="497.03333333333336" y="251.23333333333335" type="curve" smooth="yes"/>
      <point x="497.03333333333336" y="329.5"/>
      <point x="472.5" y="380.43333333333334"/>
      <point x="447.06666666666666" y="410.43333333333334" type="curve"/>
      <point x="404.03333333333336" y="345.7"/>
      <point x="341.20000000000005" y="282.06666666666666"/>
      <point x="284.9" y="282.06666666666666" type="curve" smooth="yes"/>
      <point x="256.56666666666666" y="282.06666666666666"/>
      <point x="241.13333333333333" y="299.06666666666666"/>
      <point x="241.13333333333333" y="328.06666666666666" type="curve" smooth="yes"/>
      <point x="241.13333333333333" y="497.0" type="line" smooth="yes"/>
      <point x="241.13333333333333" y="575.0"/>
      <point x="275.16666666666663" y="610.2666666666667"/>
      <point x="319.93333333333334" y="610.2666666666667" type="curve" smooth="yes"/>
      <point x="358.70000000000005" y="610.2666666666667"/>
      <point x="386.6666666666667" y="583.2666666666667"/>
      <point x="386.6666666666667" y="529.6333333333333" type="curve" smooth="yes"/>
      <point x="386.6666666666667" y="478.6333333333333"/>
      <point x="363.9666666666667" y="438.0"/>
      <point x="297.8666666666667" y="438.0" type="curve" smooth="yes"/>
      <point x="215.5" y="438.0"/>
      <point x="159.5" y="500.7"/>
      <point x="119.9" y="621.0" type="curve"/>
      <point x="102.26666666666667" y="614.0" type="line"/>
      <point x="126.16666666666666" y="534.5666666666666"/>
      <point x="179.20000000000002" y="414.0"/>
      <point x="297.59999999999997" y="414.0" type="curve" smooth="yes"/>
      <point x="381.9666666666667" y="414.0"/>
      <point x="409.29999999999995" y="473.90000000000003"/>
      <point x="409.3" y="526.6333333333333" type="curve" smooth="yes"/>
      <point x="409.3" y="586.2666666666667"/>
      <point x="378.96666666666664" y="633.0"/>
      <point x="319.93333333333334" y="633.0" type="curve" smooth="yes"/>
      <point x="255.73333333333332" y="633.0"/>
      <point x="218.5" y="579.6666666666666"/>
      <point x="218.5" y="501.46666666666664" type="curve" smooth="yes"/>
      <point x="218.5" y="325.43333333333334" type="line" smooth="yes"/>
      <point x="218.5" y="297.6333333333333"/>
      <point x="228.29999999999998" y="280.90000000000003"/>
      <point x="242.2" y="270.1666666666667" type="curve" smooth="yes"/>
      <point x="254.36666666666665" y="261.1666666666667"/>
      <point x="269.90000000000003" y="257.43333333333334"/>
      <point x="286.8" y="257.43333333333334" type="curve" smooth="yes"/>
      <point x="344.93333333333334" y="257.43333333333334"/>
      <point x="403.3333333333333" y="309.06666666666666"/>
      <point x="455.06666666666666" y="378.7" type="curve"/>
      <point x="440.1666666666667" y="382.6666666666667" type="line"/>
      <point x="456.9666666666667" y="360.4"/>
      <point x="475.03333333333336" y="319.93333333333334"/>
      <point x="475.03333333333336" y="255.66666666666666" type="curve" smooth="yes"/>
      <point x="475.03333333333336" y="137.23333333333335"/>
      <point x="416.1666666666667" y="80.0"/>
      <point x="325.3666666666667" y="80.0" type="curve" smooth="yes"/>
      <point x="168.13333333333333" y="80.0"/>
      <point x="99.16666666666667" y="248.0"/>
      <point x="47.8" y="498.6333333333333" type="curve"/>
      <point x="28.166666666666668" y="494.0" type="line"/>
      <point x="86.7" y="190.26666666666665"/>
      <point x="172.56666666666666" y="54.0"/>
    </contour>
  </outline>
</glyph>
<glyph name="ca-beng" format="2">
  <advance width="436.3333333333333"/>
  <unicode hex="099A"/>
  <anchor x="262.8666666666667" y="47.0" name="bottom"/>
  <anchor x="316.9" y="0.0" name="bottom.rakaar"/>
  <anchor x="246.79999999999998" y="56.0" name="bottom.rvocalic"/>
  <anchor x="212.0" y="35.0" name="bottom.virama"/>
  <anchor x="111.83333333333333" y="602.0" name="top"/>
  <anchor x="114.46666666666667" y="602.0" name="topright"/>
  <anchor x="218.16666666666666" y="0.0" name="vedic"/>
  <outline>
    <contour>
      <point x="177.4" y="50.0" type="curve" smooth="yes"/>
      <point x="286.93333333333334" y="50.0"/>
      <point x="374.66666666666663" y="216.1"/>
      <point x="373.4" y="354.3666666666667" type="curve" smooth="yes"/>
      <point x="373.4" y="373.73333333333335"/>
      <point x="358.40000000000003" y="386.73333333333335"/>
      <point x="352.1333333333333" y="390.3666666666667" type="curve"/>
      <point x="240.5" y="400.46666666666664"/>
      <point x="157.6" y="471.70000000000005"/>
      <point x="106.10000000000001" y="576.0333333333333" type="curve"/>
      <point x="100.83333333333334" y="553.9333333333333" type="line"/>
      <point x="144.16666666666669" y="444.96666666666664"/>
      <point x="247.5666666666667" y="373.8333333333333"/>
      <point x="359.6666666666667" y="363.0" type="curve"/>
      <point x="349.40000000000003" y="374.0" type="line"/>
      <point x="354.3" y="225.0"/>
      <point x="265.3" y="74.36666666666667"/>
      <point x="176.66666666666666" y="74.36666666666667" type="curve" smooth="yes"/>
      <point x="137.9" y="74.36666666666667"/>
      <point x="111.83333333333334" y="102.89999999999999"/>
      <point x="111.83333333333334" y="142.53333333333333" type="curve" smooth="yes"/>
      <point x="111.83333333333334" y="602.0" type="line"/>
      <point x="453.8666666666667" y="602.0" type="line"/>
      <point x="440.23333333333335" y="622.0" type="line"/>
      <point x="-17.533333333333335" y="622.0" type="line"/>
      <point x="-3.9" y="602.0" type="line"/>
      <point x="89.2" y="602.0" type="line"/>
      <point x="89.2" y="141.53333333333333" type="line" smooth="yes"/>
      <point x="89.2" y="86.9"/>
      <point x="125.53333333333335" y="50.0"/>
    </contour>
  </outline>
</glyph>
<glyph name="cha-beng" format="2">
  <advance width="461.7"/>
  <unicode hex="099B"/>
  <anchor x="259.1333333333333" y="106.53333333333333" name="bottom"/>
  <anchor x="372.7" y="-100.0" name="bottom.rakaar"/>
  <anchor x="305.5" y="101.83333333333333" name="bottom.rvocalic"/>
  <anchor x="242.46666666666667" y="90.0" name="bottom.virama"/>
  <anchor x="98.96666666666667" y="602.0" name="top"/>
  <anchor x="101.6" y="602.0" name="topright"/>
  <anchor x="230.53333333333333" y="0.0" name="vedic"/>
  <outline>
    <contour>
      <point x="434.3666666666667" y="-33.56666666666666" type="curve"/>
      <point x="447.3666666666667" y="-20.566666666666666" type="line"/>
      <point x="390.23333333333335" y="51.1"/>
      <point x="282.3333333333333" y="160.46666666666667"/>
      <point x="131.9" y="211.10000000000002" type="curve"/>
      <point x="136.06666666666666" y="202.46666666666667" type="line"/>
      <point x="161.76666666666668" y="197.83333333333334"/>
      <point x="183.16666666666669" y="195.56666666666666"/>
      <point x="205.5" y="195.56666666666666" type="curve" smooth="yes"/>
      <point x="317.0" y="195.56666666666666"/>
      <point x="389.9666666666667" y="257.1"/>
      <point x="389.9666666666667" y="359.83333333333337" type="curve" smooth="yes"/>
      <point x="389.9666666666667" y="459.2"/>
      <point x="331.83333333333337" y="508.0"/>
      <point x="243.46666666666667" y="508.0" type="curve" smooth="yes"/>
      <point x="179.06666666666666" y="508.0"/>
      <point x="120.13333333333334" y="536.0"/>
      <point x="94.33333333333334" y="602.0" type="curve"/>
      <point x="89.06666666666666" y="586.0" type="line"/>
      <point x="112.5" y="520.0"/>
      <point x="160.73333333333335" y="487.6333333333333"/>
      <point x="252.26666666666665" y="485.0" type="curve"/>
      <point x="243.63333333333335" y="495.0" type="line"/>
      <point x="245.89999999999998" y="396.0"/>
      <point x="197.5" y="314.0"/>
      <point x="143.1" y="314.0" type="curve" smooth="yes"/>
      <point x="114.76666666666667" y="314.0"/>
      <point x="98.96666666666667" y="331.26666666666665"/>
      <point x="98.96666666666667" y="367.59999999999997" type="curve" smooth="yes"/>
      <point x="98.96666666666667" y="602.0" type="line"/>
      <point x="479.23333333333335" y="602.0" type="line"/>
      <point x="465.96666666666664" y="622.0" type="line"/>
      <point x="-17.533333333333335" y="622.0" type="line"/>
      <point x="-4.266666666666667" y="602.0" type="line"/>
      <point x="76.33333333333334" y="602.0" type="line"/>
      <point x="76.33333333333334" y="366.59999999999997" type="line" smooth="yes"/>
      <point x="76.33333333333334" y="315.26666666666665"/>
      <point x="105.76666666666667" y="289.0"/>
      <point x="144.73333333333332" y="289.0" type="curve" smooth="yes"/>
      <point x="210.6" y="289.0"/>
      <point x="269.53333333333336" y="380.4666666666667"/>
      <point x="268.26666666666665" y="495.0" type="curve"/>
      <point x="259.90000000000003" y="485.0" type="line"/>
      <point x="320.83333333333337" y="480.0"/>
      <point x="367.9666666666667" y="448.8333333333333"/>
      <point x="367.9666666666667" y="365.8333333333333" type="curve" smooth="yes"/>
      <point x="367.9666666666667" y="260.2"/>
      <point x="292.93333333333334" y="220.2"/>
      <point x="207.56666666666666" y="220.2" type="curve" smooth="yes"/>
      <point x="153.73333333333332" y="220.2"/>
      <point x="121.83333333333333" y="229.56666666666666"/>
      <point x="92.23333333333333" y="244.56666666666666" type="curve"/>
      <point x="107.76666666666667" y="191.56666666666666" type="line"/>
      <point x="240.56666666666666" y="158.1"/>
      <point x="366.1" y="54.86666666666667"/>
    </contour>
  </outline>
</glyph>
<glyph name="ja-beng" format="2">
  <advance width="684.2666666666667"/>
  <unicode hex="099C"/>
  <anchor x="576.9333333333333" y="92.6" name="bottom"/>
  <anchor x="594.3666666666667" y="87.43333333333334" name="bottom.rakaar"/>
  <anchor x="594.4666666666667" y="28.433333333333334" name="bottom.rvocalic"/>
  <anchor x="589.0" y="17.433333333333334" name="bottom.virama"/>
  <anchor x="370.3" y="602.0" name="top"/>
  <anchor x="373.3" y="602.0" name="topright"/>
  <anchor x="342.1333333333333" y="0.0" name="vedic"/>
  <outline>
    <contour>
      <point x="307.33333333333337" y="80.0" type="curve" smooth="yes"/>
      <point x="407.43333333333334" y="80.0"/>
      <point x="458.1333333333334" y="150.0"/>
      <point x="458.1333333333334" y="249.0" type="curve" smooth="yes"/>
      <point x="458.1333333333334" y="308.6333333333334"/>
      <point x="444.7666666666667" y="362.0"/>
      <point x="401.16666666666663" y="412.0" type="curve"/>
      <point x="357.5" y="337.0"/>
      <point x="320.90000000000003" y="314.0"/>
      <point x="280.83333333333337" y="314.0" type="curve" smooth="yes"/>
      <point x="239.76666666666668" y="314.0"/>
      <point x="209.16666666666669" y="346.3666666666666"/>
      <point x="209.16666666666669" y="403.3666666666666" type="curve" smooth="yes"/>
      <point x="209.16666666666669" y="510.3666666666666"/>
      <point x="316.33333333333337" y="586.0"/>
      <point x="377.56666666666666" y="602.0" type="curve"/>
      <point x="701.8" y="602.0" type="line"/>
      <point x="689.1666666666667" y="622.0" type="line"/>
      <point x="-17.533333333333335" y="622.0" type="line"/>
      <point x="-4.266666666666667" y="602.0" type="line"/>
      <point x="364.53333333333336" y="602.0" type="line"/>
      <point x="350.4666666666667" y="613.5333333333333" type="line"/>
      <point x="282.5333333333333" y="591.9"/>
      <point x="185.53333333333333" y="516.0"/>
      <point x="185.53333333333333" y="404.3666666666667" type="curve" smooth="yes"/>
      <point x="185.53333333333333" y="328.0"/>
      <point x="232.66666666666669" y="289.0"/>
      <point x="284.46666666666664" y="289.0" type="curve" smooth="yes"/>
      <point x="346.5" y="289.0"/>
      <point x="386.83333333333337" y="341.3333333333333"/>
      <point x="414.8" y="387.0" type="curve"/>
      <point x="396.5333333333333" y="384.8" type="line"/>
      <point x="422.5" y="348.53333333333336"/>
      <point x="436.1333333333333" y="317.1666666666667"/>
      <point x="436.1333333333333" y="256.0" type="curve" smooth="yes"/>
      <point x="436.1333333333333" y="156.0"/>
      <point x="385.9" y="105.63333333333334"/>
      <point x="307.23333333333335" y="105.63333333333334" type="curve" smooth="yes"/>
      <point x="171.20000000000002" y="105.63333333333334"/>
      <point x="96.06666666666666" y="260.3"/>
      <point x="56.699999999999996" y="499.26666666666665" type="curve"/>
      <point x="37.699999999999996" y="495.0" type="line"/>
      <point x="84.6" y="200.0"/>
      <point x="177.1" y="80.0"/>
    </contour>
    <contour>
      <point x="577.1" y="19.433333333333334" type="curve"/>
      <point x="594.4666666666667" y="26.433333333333334" type="line"/>
      <point x="575.0333333333333" y="92.6"/>
      <point x="558.7666666666667" y="152.86666666666667"/>
      <point x="558.7666666666667" y="240.66666666666669" type="curve" smooth="yes"/>
      <point x="558.7666666666667" y="342.9666666666667"/>
      <point x="580.1333333333333" y="404.33333333333337"/>
      <point x="615.8" y="455.0" type="curve"/>
      <point x="600.5333333333333" y="481.0" type="line"/>
      <point x="506.9666666666667" y="485.0"/>
      <point x="449.0" y="519.2666666666667"/>
      <point x="391.5666666666667" y="614.2666666666667" type="curve"/>
      <point x="372.2" y="608.0" type="line"/>
      <point x="431.0" y="501.3666666666667"/>
      <point x="505.2333333333334" y="459.1"/>
      <point x="594.6999999999999" y="455.4666666666667" type="curve"/>
      <point x="591.1666666666666" y="466.0" type="line"/>
      <point x="560.1333333333333" y="423.9666666666667"/>
      <point x="535.5" y="351.6666666666667"/>
      <point x="535.5" y="251.83333333333334" type="curve" smooth="yes"/>
      <point x="535.5" y="165.53333333333333"/>
      <point x="552.0333333333333" y="94.43333333333332"/>
    </contour>
  </outline>
</glyph>
<glyph name="jha-beng" format="2">
  <advance width="593.2"/>
  <unicode hex="099D"/>
  <anchor x="372.83333333333337" y="11.0" name="bottom"/>
  <anchor x="381.3666666666666" y="39.0" name="bottom.rakaar"/>
  <anchor x="382.1" y="6.0" name="bottom.rvocalic"/>
  <anchor x="374.3" y="11.733333333333333" name="bottom.virama"/>
  <anchor x="384.3" y="602.0" name="top"/>
  <anchor x="431.1333333333334" y="602.0" name="topleft"/>
  <anchor x="384.0" y="602.0" name="topright"/>
  <anchor x="296.1" y="0.0" name="vedic"/>
  <outline>
    <contour>
      <point x="379.1" y="-3.0" type="line"/>
      <point x="382.1" y="-2.0" type="line"/>
      <point x="382.1" y="622.0" type="line"/>
      <point x="-17.533333333333335" y="622.0" type="line"/>
      <point x="-4.266666666666667" y="602.0" type="line"/>
      <point x="359.46666666666664" y="602.0" type="line"/>
      <point x="359.46666666666664" y="499.4666666666667" type="line"/>
      <point x="368.3666666666667" y="514.1" type="line"/>
      <point x="260.09999999999997" y="477.43333333333334"/>
      <point x="150.79999999999998" y="408.43333333333334"/>
      <point x="47.766666666666666" y="327.8666666666667" type="curve"/>
      <point x="62.86666666666666" y="299.5" type="line"/>
      <point x="194.23333333333335" y="249.76666666666668"/>
      <point x="300.6666666666667" y="149.63333333333335"/>
      <point x="364.46666666666664" y="10.633333333333333" type="curve"/>
    </contour>
    <contour>
      <point x="359.46666666666664" y="40.33333333333333" type="line"/>
      <point x="368.2" y="43.733333333333334" type="line"/>
      <point x="313.1333333333333" y="167.63333333333333"/>
      <point x="200.76666666666665" y="270.8666666666667"/>
      <point x="74.76666666666667" y="323.23333333333335" type="curve"/>
      <point x="74.03333333333333" y="314.5" type="line"/>
      <point x="180.5" y="400.96666666666664"/>
      <point x="292.43333333333334" y="462.06666666666666"/>
      <point x="366.3666666666667" y="486.3666666666667" type="curve"/>
      <point x="359.46666666666664" y="496.46666666666664" type="line"/>
    </contour>
    <contour>
      <point x="501.0" y="98.89999999999999" type="line"/>
      <point x="504.0" y="99.89999999999999" type="line"/>
      <point x="504.0" y="602.0" type="line"/>
      <point x="610.7333333333333" y="602.0" type="line"/>
      <point x="597.4666666666666" y="622.0" type="line"/>
      <point x="504.0" y="622.0" type="line"/>
      <point x="501.3666666666667" y="661.0" type="line"/>
      <point x="485.0" y="674.0" type="line"/>
      <point x="481.3666666666667" y="673.0" type="line"/>
      <point x="481.3666666666667" y="142.23333333333332" type="line"/>
      <point x="490.09999999999997" y="145.63333333333335" type="line"/>
      <point x="462.70000000000005" y="208.53333333333333"/>
      <point x="422.90000000000003" y="269.8"/>
      <point x="374.8333333333333" y="315.3666666666667" type="curve"/>
      <point x="369.6666666666667" y="289.06666666666666" type="line"/>
      <point x="416.6333333333333" y="243.23333333333335"/>
      <point x="456.6" y="180.43333333333334"/>
      <point x="486.3666666666667" y="112.53333333333333" type="curve"/>
    </contour>
  </outline>
</glyph>
<glyph name="nya-beng" format="2">
  <advance width="794.5"/>
  <unicode hex="099E"/>
  <anchor x="483.5" y="7.0" name="bottom"/>
  <anchor x="492.0333333333333" y="35.0" name="bottom.rakaar"/>
  <anchor x="492.76666666666665" y="2.0" name="bottom.rvocalic"/>
  <anchor x="484.9666666666667" y="7.7333333333333325" name="bottom.virama"/>
  <anchor x="435.06666666666666" y="602.0" name="top"/>
  <anchor x="441.0" y="602.0" name="topright"/>
  <anchor x="396.93333333333334" y="0.0" name="vedic"/>
  <outline>
    <contour>
      <point x="637.1666666666667" y="94.36666666666666" type="curve" smooth="yes"/>
      <point x="700.9333333333334" y="94.36666666666666"/>
      <point x="733.1666666666667" y="144.73333333333335"/>
      <point x="733.1666666666667" y="217.36666666666667" type="curve" smooth="yes"/>
      <point x="733.1666666666667" y="283.0"/>
      <point x="701.3000000000001" y="325.3666666666667"/>
      <point x="676.5" y="346.3666666666667" type="curve"/>
      <point x="678.5" y="335.3666666666667" type="line"/>
      <point x="703.5666666666666" y="363.3666666666667"/>
      <point x="729.2666666666668" y="410.73333333333335"/>
      <point x="729.2666666666668" y="481.3666666666667" type="curve" smooth="yes"/>
      <point x="729.2666666666668" y="542.3666666666666"/>
      <point x="702.1" y="596.3666666666667"/>
      <point x="644.7" y="596.3666666666667" type="curve" smooth="yes"/>
      <point x="555.9666666666667" y="596.3666666666667"/>
      <point x="491.3" y="448.3666666666667"/>
      <point x="484.03333333333336" y="379.3666666666667" type="curve"/>
      <point x="484.03333333333336" y="306.3666666666667" type="line"/>
      <point x="497.56666666666666" y="195.36666666666667"/>
      <point x="557.9666666666667" y="94.36666666666666"/>
    </contour>
    <contour>
      <point x="636.4333333333334" y="120.36666666666666" type="curve" smooth="yes"/>
      <point x="557.4333333333333" y="120.36666666666666"/>
      <point x="497.0333333333333" y="251.0"/>
      <point x="497.0333333333333" y="337.3666666666667" type="curve" smooth="yes"/>
      <point x="497.0333333333333" y="411.0"/>
      <point x="560.0" y="570.3666666666667"/>
      <point x="646.3333333333334" y="570.3666666666667" type="curve" smooth="yes"/>
      <point x="685.9333333333334" y="570.3666666666667"/>
      <point x="708.0" y="531.3666666666667"/>
      <point x="708.0" y="484.3666666666667" type="curve" smooth="yes"/>
      <point x="708.0" y="424.73333333333335"/>
      <point x="686.5666666666666" y="376.3666666666667"/>
      <point x="652.2333333333333" y="351.3666666666667" type="curve"/>
      <point x="669.8666666666667" y="352.3666666666667" type="line"/>
      <point x="650.4333333333334" y="372.3666666666667"/>
      <point x="634.1666666666666" y="378.3666666666667"/>
      <point x="617.3666666666667" y="378.3666666666667" type="curve" smooth="yes"/>
      <point x="594.4666666666667" y="378.3666666666667"/>
      <point x="576.5666666666667" y="364.3666666666667"/>
      <point x="576.5666666666667" y="338.3666666666667" type="curve" smooth="yes"/>
      <point x="576.5666666666667" y="311.3666666666667"/>
      <point x="593.8333333333334" y="299.3666666666667"/>
      <point x="618.3666666666667" y="299.3666666666667" type="curve" smooth="yes"/>
      <point x="639.1666666666666" y="299.3666666666667"/>
      <point x="656.7" y="309.0"/>
      <point x="673.8666666666667" y="329.3666666666667" type="curve"/>
      <point x="655.6" y="336.3666666666667" type="line"/>
      <point x="682.6666666666666" y="315.3666666666667"/>
      <point x="711.9000000000001" y="284.73333333333335"/>
      <point x="711.9000000000001" y="219.36666666666667" type="curve" smooth="yes"/>
      <point x="711.9000000000001" y="153.36666666666667"/>
      <point x="682.3" y="120.36666666666666"/>
    </contour>
    <component base="e-beng"/>
  </outline>
</glyph>
<glyph name="tta-beng" format="2">
  <advance width="435.6"/>
  <unicode hex="099F"/>
  <anchor x="262.8666666666667" y="61.63333333333333" name="bottom"/>
  <anchor x="316.9" y="14.0" name="bottom.rakaar"/>
  <anchor x="246.79999999999998" y="70.0" name="bottom.rvocalic"/>
  <anchor x="212.0" y="49.0" name="bottom.virama"/>
  <anchor x="224.43333333333334" y="636.1666666666666" name="top"/>
  <anchor x="188.73333333333335" y="655.2666666666667" name="topright"/>
  <anchor x="217.8" y="0.0" name="vedic"/>
  <anchor x="185.3" y="-32.0" name="nukta"/>
  <outline>
    <contour>
      <point x="337.8666666666667" y="618.0" type="curve"/>
      <point x="356.8666666666667" y="618.0" type="line"/>
      <point x="352.76666666666665" y="722.1999999999999"/>
      <point x="319.9" y="768.6333333333333"/>
      <point x="253.0" y="768.6333333333333" type="curve" smooth="yes"/>
      <point x="206.03333333333336" y="768.6333333333333"/>
      <point x="170.9" y="756.0"/>
      <point x="119.2" y="756.0" type="curve" smooth="yes"/>
      <point x="58.86666666666666" y="756.0"/>
      <point x="35.233333333333334" y="783.3666666666667"/>
      <point x="35.233333333333334" y="861.0" type="curve" smooth="yes"/>
      <point x="35.233333333333334" y="872.0"/>
      <point x="36.233333333333334" y="886.1"/>
      <point x="37.86666666666667" y="898.0" type="curve"/>
      <point x="19.86666666666667" y="900.0" type="line"/>
      <point x="18.233333333333334" y="888.9"/>
      <point x="16.6" y="870.6333333333333"/>
      <point x="16.6" y="856.0" type="curve" smooth="yes"/>
      <point x="16.6" y="767.3666666666667"/>
      <point x="52.5" y="733.7333333333333"/>
      <point x="119.2" y="733.7333333333333" type="curve" smooth="yes"/>
      <point x="172.63333333333333" y="733.7333333333333"/>
      <point x="200.76666666666668" y="746.3666666666667"/>
      <point x="257.1666666666667" y="746.3666666666667" type="curve" smooth="yes"/>
      <point x="316.2666666666667" y="746.3666666666667"/>
      <point x="335.40000000000003" y="694.4666666666667"/>
    </contour>
    <component base="ddha-beng"/>
  </outline>
</glyph>
<glyph name="ttha-beng" format="2">
  <advance width="476.9"/>
  <unicode hex="09A0"/>
  <anchor x="277.3666666666667" y="5.0" name="bottom"/>
  <anchor x="395.7" y="-20.0" name="bottom.rakaar"/>
  <anchor x="296.6333333333333" y="22.0" name="bottom.rvocalic"/>
  <anchor x="281.6333333333333" y="0.0" name="bottom.virama"/>
  <anchor x="364.4666666666667" y="557.0" name="top"/>
  <anchor x="369.23333333333335" y="617.0" name="topleft"/>
  <anchor x="265.8333333333333" y="602.0" name="topright"/>
  <anchor x="238.13333333333333" y="0.0" name="vedic"/>
  <outline>
    <contour>
      <point x="249.83333333333334" y="21.0" type="curve" smooth="yes"/>
      <point x="347.93333333333334" y="21.0"/>
      <point x="409.3333333333333" y="93.73333333333333"/>
      <point x="409.3333333333333" y="215.0" type="curve" smooth="yes"/>
      <point x="409.3333333333333" y="347.2666666666667"/>
      <point x="345.03333333333336" y="468.0"/>
      <point x="243.13333333333333" y="602.0" type="curve"/>
      <point x="494.43333333333334" y="602.0" type="line"/>
      <point x="481.8" y="622.0" type="line"/>
      <point x="220.43333333333334" y="622.0" type="line"/>
      <point x="187.83333333333334" y="669.0"/>
      <point x="154.5666666666667" y="722.3666666666667"/>
      <point x="154.5666666666667" y="782.8" type="curve" smooth="yes"/>
      <point x="154.5666666666667" y="823.8"/>
      <point x="169.03333333333333" y="855.2666666666667"/>
      <point x="212.1" y="883.0" type="curve"/>
      <point x="197.73333333333332" y="902.0" type="line"/>
      <point x="157.56666666666666" y="877.2666666666667"/>
      <point x="133.5666666666667" y="842.5333333333333"/>
      <point x="133.5666666666667" y="787.5333333333333" type="curve" smooth="yes"/>
      <point x="133.5666666666667" y="731.3666666666667"/>
      <point x="157.66666666666666" y="681.0"/>
      <point x="197.53333333333336" y="622.0" type="curve"/>
      <point x="-17.533333333333335" y="622.0" type="line"/>
      <point x="-4.266666666666667" y="602.0" type="line"/>
      <point x="206.33333333333331" y="602.0" type="line"/>
      <point x="224.13333333333333" y="573.0"/>
      <point x="231.6" y="508.6"/>
      <point x="231.6" y="467.3" type="curve" smooth="yes"/>
      <point x="231.6" y="348.0333333333333"/>
      <point x="188.83333333333334" y="272.8"/>
      <point x="53.3" y="239.73333333333332" type="curve"/>
      <point x="77.9" y="97.33333333333334"/>
      <point x="149.20000000000002" y="21.0"/>
    </contour>
    <contour>
      <point x="248.5666666666667" y="45.36666666666667" type="curve" smooth="yes"/>
      <point x="149.13333333333333" y="45.36666666666667"/>
      <point x="93.26666666666667" y="136.86666666666665"/>
      <point x="78.3" y="237.0" type="curve"/>
      <point x="68.76666666666667" y="217.73333333333335" type="line"/>
      <point x="180.23333333333335" y="245.26666666666668"/>
      <point x="252.6" y="309.9666666666667"/>
      <point x="252.6" y="454.29999999999995" type="curve" smooth="yes"/>
      <point x="252.6" y="504.9666666666667"/>
      <point x="243.4" y="559.0"/>
      <point x="223.60000000000002" y="608.0" type="curve"/>
      <point x="221.23333333333332" y="604.0" type="line"/>
      <point x="298.5333333333333" y="491.0"/>
      <point x="385.06666666666666" y="370.6333333333333"/>
      <point x="385.06666666666666" y="225.0" type="curve" smooth="yes"/>
      <point x="385.06666666666666" y="89.1"/>
      <point x="315.23333333333335" y="45.36666666666667"/>
    </contour>
  </outline>
</glyph>
<glyph name="dda-beng" format="2">
  <advance width="565.0666666666667"/>
  <unicode hex="09A1"/>
  <anchor x="351.96666666666664" y="65.0" name="bottom"/>
  <anchor x="444.23333333333335" y="-26.0" name="bottom.rakaar"/>
  <anchor x="371.6666666666667" y="85.0" name="bottom.rvocalic"/>
  <anchor x="342.6" y="30.0" name="bottom.virama"/>
  <anchor x="297.3333333333333" y="-12.0" name="nukta"/>
  <anchor x="257.23333333333335" y="602.0" name="top"/>
  <anchor x="259.8666666666667" y="602.0" name="topright"/>
  <anchor x="282.53333333333336" y="0.0" name="vedic"/>
  <outline>
    <contour>
      <point x="329.6" y="84.0" type="curve" smooth="yes"/>
      <point x="446.6666666666667" y="84.0"/>
      <point x="509.2666666666667" y="163.13333333333335"/>
      <point x="509.2666666666667" y="282.7" type="curve" smooth="yes"/>
      <point x="509.2666666666667" y="362.43333333333334"/>
      <point x="482.2666666666667" y="413.0"/>
      <point x="454.6333333333333" y="443.0" type="curve"/>
      <point x="412.3333333333333" y="379.90000000000003"/>
      <point x="352.5" y="322.0"/>
      <point x="303.26666666666665" y="322.0" type="curve" smooth="yes"/>
      <point x="272.03333333333336" y="322.0"/>
      <point x="257.23333333333335" y="339.6333333333333"/>
      <point x="257.23333333333335" y="367.9" type="curve" smooth="yes"/>
      <point x="257.23333333333335" y="602.0" type="line"/>
      <point x="582.6" y="602.0" type="line"/>
      <point x="568.9666666666667" y="622.0" type="line"/>
      <point x="-17.533333333333335" y="622.0" type="line"/>
      <point x="-4.266666666666667" y="602.0" type="line"/>
      <point x="234.60000000000002" y="602.0" type="line"/>
      <point x="234.60000000000002" y="365.0" type="line" smooth="yes"/>
      <point x="234.60000000000002" y="335.0"/>
      <point x="246.5" y="319.0"/>
      <point x="260.4" y="310.0" type="curve" smooth="yes"/>
      <point x="273.93333333333334" y="301.0"/>
      <point x="287.8333333333333" y="298.0"/>
      <point x="304.3666666666667" y="298.0" type="curve" smooth="yes"/>
      <point x="356.6666666666667" y="298.0"/>
      <point x="411.53333333333336" y="339.4333333333333"/>
      <point x="463.7333333333333" y="412.0" type="curve"/>
      <point x="448.1" y="415.7" type="line"/>
      <point x="466.73333333333335" y="393.43333333333334"/>
      <point x="486.6333333333333" y="355.59999999999997"/>
      <point x="486.6333333333333" y="288.6" type="curve" smooth="yes"/>
      <point x="486.6333333333333" y="167.96666666666667"/>
      <point x="423.8666666666667" y="109.63333333333333"/>
      <point x="330.5" y="109.63333333333333" type="curve" smooth="yes"/>
      <point x="177.3" y="109.63333333333333"/>
      <point x="110.86666666666667" y="267.2"/>
      <point x="59.86666666666667" y="503.40000000000003" type="curve"/>
      <point x="40.233333333333334" y="499.1333333333333" type="line"/>
      <point x="95.2" y="225.23333333333335"/>
      <point x="176.60000000000002" y="84.0"/>
    </contour>
  </outline>
</glyph>
<glyph name="ddha-beng" format="2">
  <advance width="435.6"/>
  <unicode hex="09A2"/>
  <anchor x="263.53333333333336" y="61.0" name="bottom"/>
  <anchor x="319.46666666666664" y="14.0" name="bottom.rakaar"/>
  <anchor x="249.36666666666667" y="70.0" name="bottom.rvocalic"/>
  <anchor x="214.56666666666666" y="49.0" name="bottom.virama"/>
  <anchor x="185.3" y="-32.0" name="nukta"/>
  <anchor x="114.4" y="602.0" name="top"/>
  <anchor x="117.03333333333335" y="602.0" name="topright"/>
  <anchor x="217.8" y="0.0" name="vedic"/>
  <outline>
    <contour>
      <point x="175.13333333333333" y="64.0" type="curve" smooth="yes"/>
      <point x="282.53333333333336" y="64.0"/>
      <point x="376.03333333333336" y="221.36666666666667"/>
      <point x="376.03333333333336" y="357.0" type="curve" smooth="yes"/>
      <point x="376.03333333333336" y="399.0"/>
      <point x="355.76666666666665" y="429.0"/>
      <point x="321.33333333333337" y="429.0" type="curve" smooth="yes"/>
      <point x="289.43333333333334" y="429.0"/>
      <point x="272.90000000000003" y="404.6333333333333"/>
      <point x="272.90000000000003" y="379.0" type="curve" smooth="yes"/>
      <point x="272.90000000000003" y="350.0"/>
      <point x="290.8" y="330.0"/>
      <point x="318.96666666666664" y="330.0" type="curve" smooth="yes"/>
      <point x="337.8666666666667" y="330.0"/>
      <point x="350.76666666666665" y="339.0"/>
      <point x="359.6666666666667" y="360.0" type="curve"/>
      <point x="351.03333333333336" y="363.0" type="line"/>
      <point x="349.03333333333336" y="219.0"/>
      <point x="259.0" y="88.36666666666667"/>
      <point x="175.13333333333333" y="88.36666666666667" type="curve" smooth="yes"/>
      <point x="135.63333333333335" y="88.36666666666667"/>
      <point x="111.83333333333334" y="116.9"/>
      <point x="111.83333333333334" y="156.9" type="curve" smooth="yes"/>
      <point x="111.83333333333334" y="602.0" type="line"/>
      <point x="453.1333333333334" y="602.0" type="line"/>
      <point x="439.8666666666667" y="622.0" type="line"/>
      <point x="-17.533333333333335" y="622.0" type="line"/>
      <point x="-3.9" y="602.0" type="line"/>
      <point x="89.2" y="602.0" type="line"/>
      <point x="89.2" y="155.53333333333333" type="line" smooth="yes"/>
      <point x="89.2" y="100.53333333333335"/>
      <point x="124.0" y="64.0"/>
    </contour>
  </outline>
</glyph>
<glyph name="nna-beng" format="2">
  <advance width="486.8333333333333"/>
  <unicode hex="09A3"/>
  <anchor x="381.3666666666667" y="66.66666666666667" name="bottom"/>
  <anchor x="396.9" y="-17.0" name="bottom.rakaar"/>
  <anchor x="397.6333333333333" y="-1.0999999999999999" name="bottom.rvocalic"/>
  <anchor x="391.9" y="5.0" name="bottom.virama"/>
  <anchor x="397.6333333333333" y="545.0" name="top"/>
  <anchor x="402.6333333333333" y="565.1" name="topright"/>
  <anchor x="243.23333333333332" y="0.0" name="vedic"/>
  <outline>
    <contour>
      <point x="394.6333333333334" y="-10.0" type="line"/>
      <point x="397.6333333333333" y="-9.0" type="line"/>
      <point x="397.6333333333333" y="602.0" type="line"/>
      <point x="504.3666666666667" y="602.0" type="line"/>
      <point x="491.1" y="622.0" type="line"/>
      <point x="397.6333333333333" y="622.0" type="line"/>
      <point x="395.0" y="661.0" type="line"/>
      <point x="378.6333333333333" y="674.0" type="line"/>
      <point x="375.0" y="673.0" type="line"/>
      <point x="375.0" y="563.2333333333333" type="line" smooth="yes"/>
      <point x="375.0" y="515.1"/>
      <point x="375.6333333333333" y="457.73333333333335"/>
      <point x="378.2666666666667" y="410.06666666666666" type="curve"/>
      <point x="384.9" y="406.33333333333337" type="line"/>
      <point x="314.53333333333336" y="575.6666666666666"/>
      <point x="256.83333333333337" y="627.0"/>
      <point x="179.76666666666668" y="627.0" type="curve" smooth="yes"/>
      <point x="110.9" y="627.0"/>
      <point x="52.666666666666664" y="575.0"/>
      <point x="52.666666666666664" y="481.2" type="curve" smooth="yes"/>
      <point x="52.666666666666664" y="397.43333333333334"/>
      <point x="103.30000000000001" y="333.0"/>
      <point x="179.86666666666667" y="333.0" type="curve" smooth="yes"/>
      <point x="218.3" y="333.0"/>
      <point x="240.56666666666666" y="354.0"/>
      <point x="240.56666666666666" y="388.26666666666665" type="curve" smooth="yes"/>
      <point x="240.56666666666666" y="416.9"/>
      <point x="222.66666666666666" y="437.6333333333333"/>
      <point x="194.13333333333333" y="437.6333333333333" type="curve" smooth="yes"/>
      <point x="167.86666666666667" y="437.6333333333333"/>
      <point x="148.96666666666667" y="418.0"/>
      <point x="148.96666666666667" y="391.0" type="curve" smooth="yes"/>
      <point x="148.96666666666667" y="371.0"/>
      <point x="157.96666666666667" y="356.0"/>
      <point x="168.96666666666667" y="350.3666666666667" type="curve"/>
      <point x="181.86666666666667" y="360.0" type="line"/>
      <point x="175.6" y="358.0"/>
      <point x="169.33333333333334" y="358.0"/>
      <point x="163.7" y="358.0" type="curve" smooth="yes"/>
      <point x="119.83333333333334" y="358.0"/>
      <point x="75.30000000000001" y="405.1666666666667"/>
      <point x="75.30000000000001" y="481.1" type="curve" smooth="yes"/>
      <point x="75.30000000000001" y="563.2666666666667"/>
      <point x="128.33333333333334" y="603.3666666666667"/>
      <point x="182.13333333333333" y="603.3666666666667" type="curve" smooth="yes"/>
      <point x="260.16666666666663" y="603.3666666666667"/>
      <point x="313.3" y="536.6333333333333"/>
      <point x="380.5333333333333" y="371.2" type="curve"/>
      <point x="375.0" y="401.76666666666665" type="line"/>
      <point x="375.0" y="3.0" type="line"/>
    </contour>
  </outline>
</glyph>
<glyph name="ta-beng" format="2">
  <advance width="569.4333333333334"/>
  <unicode hex="09A4"/>
  <anchor x="382.2" y="75.0" name="bottom"/>
  <anchor x="462.03333333333336" y="-18.0" name="bottom.rakaar"/>
  <anchor x="389.83333333333337" y="93.0" name="bottom.rvocalic"/>
  <anchor x="360.0333333333333" y="38.0" name="bottom.virama"/>
  <anchor x="343.59999999999997" y="602.0" name="top"/>
  <anchor x="346.2333333333333" y="602.0" name="topright"/>
  <anchor x="284.53333333333336" y="0.0" name="vedic"/>
  <outline>
    <contour>
      <point x="351.1" y="92.0" type="curve" smooth="yes"/>
      <point x="438.46666666666664" y="92.0"/>
      <point x="511.99999999999994" y="143.43333333333334"/>
      <point x="514.5333333333333" y="273.46666666666664" type="curve" smooth="yes"/>
      <point x="517.0666666666666" y="397.3666666666667"/>
      <point x="442.7" y="477.96666666666664"/>
      <point x="336.8666666666667" y="477.96666666666664" type="curve" smooth="yes"/>
      <point x="276.4666666666667" y="477.96666666666664"/>
      <point x="252.46666666666667" y="450.70000000000005"/>
      <point x="252.46666666666667" y="412.7" type="curve" smooth="yes"/>
      <point x="252.46666666666667" y="379.4333333333333"/>
      <point x="274.3666666666667" y="356.8"/>
      <point x="306.9" y="356.8" type="curve" smooth="yes"/>
      <point x="341.06666666666666" y="356.8"/>
      <point x="357.9666666666667" y="380.43333333333334"/>
      <point x="357.9666666666667" y="412.3333333333333" type="curve" smooth="yes"/>
      <point x="357.9666666666667" y="433.59999999999997"/>
      <point x="347.7" y="455.6"/>
      <point x="329.53333333333336" y="463.1333333333333" type="curve"/>
      <point x="301.83333333333337" y="436.06666666666666" type="line"/>
      <point x="311.1" y="443.43333333333334"/>
      <point x="329.90000000000003" y="451.3333333333333"/>
      <point x="354.6" y="451.3333333333333" type="curve" smooth="yes"/>
      <point x="423.8" y="451.3333333333333"/>
      <point x="492.5333333333333" y="391.7"/>
      <point x="492.5333333333333" y="281.7333333333333" type="curve" smooth="yes"/>
      <point x="492.5333333333333" y="171.33333333333334"/>
      <point x="435.3666666666667" y="117.63333333333334"/>
      <point x="347.8333333333333" y="117.63333333333334" type="curve" smooth="yes"/>
      <point x="235.53333333333333" y="117.63333333333334"/>
      <point x="126.6" y="220.63333333333333"/>
      <point x="52.63333333333333" y="505.3" type="curve"/>
      <point x="33.63333333333333" y="500.6666666666667" type="line"/>
      <point x="111.76666666666667" y="187.0"/>
      <point x="230.0666666666667" y="92.0"/>
    </contour>
    <contour>
      <point x="-4.266666666666667" y="602.0" type="line"/>
      <point x="586.9666666666667" y="602.0" type="line"/>
      <point x="573.3333333333333" y="622.0" type="line"/>
      <point x="-17.533333333333335" y="622.0" type="line"/>
    </contour>
  </outline>
</glyph>
<glyph name="tha-beng" format="2">
  <advance width="485.3666666666667"/>
  <unicode hex="09A5"/>
  <anchor x="386.90000000000003" y="11.0" name="bottom"/>
  <anchor x="395.43333333333334" y="39.0" name="bottom.rakaar"/>
  <anchor x="396.1666666666667" y="6.0" name="bottom.rvocalic"/>
  <anchor x="388.3666666666667" y="11.733333333333333" name="bottom.virama"/>
  <anchor x="396.16666666666663" y="545.0" name="top"/>
  <anchor x="401.16666666666663" y="565.1" name="topright"/>
  <anchor x="242.5" y="0.0" name="vedic"/>
  <outline>
    <contour>
      <point x="393.1666666666667" y="-3.0" type="line"/>
      <point x="396.1666666666667" y="-2.0" type="line"/>
      <point x="396.1666666666667" y="602.0" type="line"/>
      <point x="502.9" y="602.0" type="line"/>
      <point x="489.6333333333333" y="622.0" type="line"/>
      <point x="396.1666666666667" y="622.0" type="line"/>
      <point x="393.5333333333333" y="661.0" type="line"/>
      <point x="377.16666666666663" y="674.0" type="line"/>
      <point x="373.5333333333333" y="673.0" type="line"/>
      <point x="373.5333333333333" y="40.33333333333333" type="line"/>
      <point x="382.26666666666665" y="43.733333333333334" type="line"/>
      <point x="325.3" y="174.6"/>
      <point x="211.66666666666666" y="274.0333333333333"/>
      <point x="84.56666666666668" y="321.9" type="curve"/>
      <point x="90.13333333333333" y="310.6333333333333" type="line"/>
      <point x="220.06666666666666" y="330.6333333333333"/>
      <point x="276.56666666666666" y="392.43333333333334"/>
      <point x="276.56666666666666" y="478.26666666666665" type="curve" smooth="yes"/>
      <point x="276.56666666666666" y="580.3666666666667"/>
      <point x="213.36666666666667" y="623.0"/>
      <point x="144.96666666666667" y="623.0" type="curve" smooth="yes"/>
      <point x="73.2" y="623.0"/>
      <point x="30.966666666666665" y="575.1666666666666"/>
      <point x="30.966666666666665" y="532.0" type="curve" smooth="yes"/>
      <point x="30.966666666666665" y="500.0"/>
      <point x="49.6" y="479.3666666666667"/>
      <point x="76.13333333333333" y="479.3666666666667" type="curve" smooth="yes"/>
      <point x="99.30000000000001" y="479.3666666666667"/>
      <point x="116.2" y="494.6333333333333"/>
      <point x="116.2" y="521.2666666666667" type="curve" smooth="yes"/>
      <point x="116.2" y="543.5333333333333"/>
      <point x="101.66666666666667" y="566.1666666666666"/>
      <point x="67.6" y="563.6333333333333" type="curve"/>
      <point x="70.86666666666666" y="551.0" type="line"/>
      <point x="75.86666666666667" y="571.2"/>
      <point x="99.56666666666666" y="600.0"/>
      <point x="150.6" y="600.0" type="curve" smooth="yes"/>
      <point x="221.70000000000002" y="600.0"/>
      <point x="253.93333333333334" y="545.7333333333333"/>
      <point x="253.93333333333334" y="482.6333333333333" type="curve" smooth="yes"/>
      <point x="253.93333333333334" y="387.06666666666666"/>
      <point x="169.0" y="344.0"/>
      <point x="60.13333333333333" y="333.6333333333333" type="curve"/>
      <point x="72.66666666666667" y="298.1666666666667" type="line"/>
      <point x="205.13333333333333" y="253.56666666666666"/>
      <point x="314.73333333333335" y="154.06666666666666"/>
      <point x="378.53333333333336" y="10.633333333333333" type="curve"/>
    </contour>
  </outline>
</glyph>
<glyph name="da-beng" format="2">
  <advance width="455.1666666666667"/>
  <unicode hex="09A6"/>
  <anchor x="363.8666666666667" y="78.33333333333333" name="bottom"/>
  <anchor x="380.0333333333333" y="70.0" name="bottom.rakaar"/>
  <anchor x="373.1666666666667" y="12.266666666666667" name="bottom.rvocalic"/>
  <anchor x="374.6666666666667" y="0.0" name="bottom.virama"/>
  <anchor x="109.3" y="602.0" name="top"/>
  <anchor x="112.3" y="602.0" name="topright"/>
  <anchor x="227.26666666666668" y="0.0" name="vedic"/>
  <outline>
    <contour>
      <point x="362.1333333333333" y="1.9999999999999996" type="curve"/>
      <point x="380.76666666666665" y="9.0" type="line"/>
      <point x="362.59999999999997" y="73.26666666666667"/>
      <point x="344.43333333333334" y="134.16666666666666"/>
      <point x="344.43333333333334" y="233.79999999999998" type="curve" smooth="yes"/>
      <point x="344.43333333333334" y="327.6333333333333"/>
      <point x="364.6" y="404.0"/>
      <point x="387.1333333333333" y="443.0" type="curve"/>
      <point x="361.1333333333333" y="472.0" type="line"/>
      <point x="282.8333333333333" y="432.0"/>
      <point x="152.0666666666667" y="313.7333333333333"/>
      <point x="96.66666666666667" y="236.36666666666667" type="curve"/>
      <point x="109.3" y="229.36666666666667" type="line"/>
      <point x="109.3" y="602.0" type="line"/>
      <point x="472.70000000000005" y="602.0" type="line"/>
      <point x="460.43333333333334" y="622.0" type="line"/>
      <point x="-17.533333333333335" y="622.0" type="line"/>
      <point x="-3.2666666666666666" y="602.0" type="line"/>
      <point x="86.66666666666666" y="602.0" type="line"/>
      <point x="86.66666666666666" y="225.36666666666665" type="line"/>
      <point x="108.03333333333333" y="213.0" type="line"/>
      <point x="186.13333333333335" y="311.0"/>
      <point x="302.0" y="411.9"/>
      <point x="369.76666666666665" y="446.26666666666665" type="curve"/>
      <point x="364.76666666666665" y="453.6333333333333" type="line"/>
      <point x="341.9666666666667" y="423.6333333333333"/>
      <point x="321.1666666666667" y="330.53333333333336"/>
      <point x="321.1666666666667" y="241.8" type="curve" smooth="yes"/>
      <point x="321.1666666666667" y="153.8"/>
      <point x="338.33333333333337" y="75.73333333333332"/>
    </contour>
  </outline>
</glyph>
<glyph name="dha-beng" format="2">
  <advance width="459.8666666666667"/>
  <unicode hex="09A7"/>
  <anchor x="361.4" y="11.0" name="bottom"/>
  <anchor x="369.93333333333334" y="39.0" name="bottom.rakaar"/>
  <anchor x="370.66666666666663" y="6.0" name="bottom.rvocalic"/>
  <anchor x="362.8666666666667" y="11.733333333333333" name="bottom.virama"/>
  <anchor x="372.8666666666667" y="602.0" name="top"/>
  <anchor x="372.56666666666666" y="602.0" name="topright"/>
  <anchor x="229.43333333333334" y="0.0" name="vedic"/>
  <outline>
    <contour>
      <point x="367.66666666666663" y="-3.0" type="line"/>
      <point x="370.66666666666663" y="-2.0" type="line"/>
      <point x="370.66666666666663" y="602.0" type="line"/>
      <point x="477.40000000000003" y="602.0" type="line"/>
      <point x="464.1333333333333" y="622.0" type="line"/>
      <point x="348.03333333333336" y="622.0" type="line"/>
      <point x="348.03333333333336" y="505.79999999999995" type="line"/>
      <point x="356.93333333333334" y="520.4333333333333" type="line"/>
      <point x="255.0" y="477.43333333333334"/>
      <point x="142.53333333333336" y="414.76666666666665"/>
      <point x="36.333333333333336" y="334.2" type="curve"/>
      <point x="51.43333333333333" y="305.8333333333333" type="line"/>
      <point x="182.8" y="256.09999999999997"/>
      <point x="291.1333333333334" y="155.96666666666667"/>
      <point x="353.0333333333333" y="10.633333333333333" type="curve"/>
    </contour>
    <contour>
      <point x="348.03333333333336" y="40.33333333333333" type="line"/>
      <point x="356.76666666666665" y="43.733333333333334" type="line"/>
      <point x="301.70000000000005" y="176.5"/>
      <point x="189.33333333333334" y="276.56666666666666"/>
      <point x="63.333333333333336" y="329.56666666666666" type="curve"/>
      <point x="62.599999999999994" y="320.8333333333333" type="line"/>
      <point x="172.23333333333335" y="407.29999999999995"/>
      <point x="287.33333333333337" y="462.06666666666666"/>
      <point x="354.93333333333334" y="492.70000000000005" type="curve"/>
      <point x="348.03333333333336" y="502.79999999999995" type="line"/>
    </contour>
    <contour>
      <point x="178.43333333333334" y="419.6666666666667" type="curve"/>
      <point x="192.96666666666667" y="434.6666666666667" type="line"/>
      <point x="147.36666666666667" y="443.0"/>
      <point x="97.73333333333333" y="469.1"/>
      <point x="97.73333333333333" y="527.4666666666667" type="curve" smooth="yes"/>
      <point x="97.73333333333333" y="585.7333333333333"/>
      <point x="136.53333333333333" y="604.7333333333333"/>
      <point x="168.60000000000002" y="604.7333333333333" type="curve" smooth="yes"/>
      <point x="178.13333333333333" y="604.7333333333333"/>
      <point x="187.03333333333333" y="603.0"/>
      <point x="194.29999999999998" y="600.0" type="curve"/>
      <point x="188.03333333333333" y="611.0" type="line"/>
      <point x="172.76666666666668" y="604.7333333333333"/>
      <point x="167.66666666666669" y="590.7333333333333"/>
      <point x="167.66666666666669" y="577.0" type="curve" smooth="yes"/>
      <point x="167.66666666666669" y="552.0"/>
      <point x="183.83333333333334" y="539.0"/>
      <point x="203.83333333333334" y="539.0" type="curve" smooth="yes"/>
      <point x="223.36666666666667" y="539.0"/>
      <point x="238.0" y="553.0"/>
      <point x="238.0" y="577.0" type="curve" smooth="yes"/>
      <point x="238.0" y="603.0"/>
      <point x="220.46666666666667" y="630.0"/>
      <point x="171.6" y="630.0" type="curve" smooth="yes"/>
      <point x="121.9" y="630.0"/>
      <point x="73.46666666666667" y="596.3666666666667"/>
      <point x="73.46666666666667" y="529.4666666666667" type="curve" smooth="yes"/>
      <point x="73.46666666666667" y="456.73333333333335"/>
      <point x="134.2" y="426.0"/>
    </contour>
  </outline>
</glyph>
<glyph name="na-beng" format="2">
  <advance width="441.5"/>
  <unicode hex="09A8"/>
  <anchor x="337.29999999999995" y="64.8" name="bottom"/>
  <anchor x="351.56666666666666" y="39.0" name="bottom.rakaar"/>
  <anchor x="352.29999999999995" y="6.0" name="bottom.rvocalic"/>
  <anchor x="344.5" y="11.733333333333333" name="bottom.virama"/>
  <anchor x="354.5" y="602.0" name="top"/>
  <anchor x="354.2" y="602.0" name="topright"/>
  <anchor x="220.43333333333334" y="0.0" name="vedic"/>
  <outline>
    <contour>
      <point x="349.29999999999995" y="-3.0" type="line"/>
      <point x="352.29999999999995" y="-2.0" type="line"/>
      <point x="352.29999999999995" y="602.0" type="line"/>
      <point x="459.03333333333336" y="602.0" type="line"/>
      <point x="445.76666666666665" y="622.0" type="line"/>
      <point x="-17.533333333333335" y="622.0" type="line"/>
      <point x="-4.266666666666667" y="602.0" type="line"/>
      <point x="329.6666666666667" y="602.0" type="line"/>
      <point x="329.6666666666667" y="255.46666666666667" type="line" smooth="yes"/>
      <point x="329.6666666666667" y="212.16666666666666"/>
      <point x="331.93333333333334" y="149.6"/>
      <point x="333.93333333333334" y="105.66666666666666" type="curve"/>
      <point x="338.2" y="105.66666666666666" type="line"/>
      <point x="328.0666666666667" y="215.63333333333333"/>
      <point x="266.1" y="395.0"/>
      <point x="112.33333333333333" y="395.0" type="curve" smooth="yes"/>
      <point x="68.63333333333333" y="395.0"/>
      <point x="38.099999999999994" y="371.3666666666667"/>
      <point x="38.099999999999994" y="330.3666666666667" type="curve" smooth="yes"/>
      <point x="38.099999999999994" y="294.3666666666666"/>
      <point x="60.36666666666667" y="272.0"/>
      <point x="93.53333333333333" y="272.0" type="curve" smooth="yes"/>
      <point x="126.33333333333334" y="272.0"/>
      <point x="146.23333333333335" y="295.0"/>
      <point x="146.23333333333335" y="326.6333333333333" type="curve" smooth="yes"/>
      <point x="146.23333333333335" y="350.6333333333333"/>
      <point x="137.6" y="368.53333333333336"/>
      <point x="120.8" y="376.53333333333336" type="curve"/>
      <point x="106.16666666666666" y="361.0" type="line"/>
      <point x="110.80000000000001" y="363.0"/>
      <point x="120.7" y="366.0"/>
      <point x="131.6" y="366.0" type="curve" smooth="yes"/>
      <point x="268.53333333333336" y="366.0"/>
      <point x="331.40000000000003" y="144.96666666666667"/>
      <point x="333.4" y="10.633333333333333" type="curve"/>
    </contour>
  </outline>
</glyph>
<glyph name="pa-beng" format="2">
  <advance width="555.0333333333334"/>
  <unicode hex="09AA"/>
  <anchor x="449.56666666666666" y="66.66666666666667" name="bottom"/>
  <anchor x="465.09999999999997" y="-17.0" name="bottom.rakaar"/>
  <anchor x="465.8333333333333" y="-1.0999999999999999" name="bottom.rvocalic"/>
  <anchor x="460.09999999999997" y="5.0" name="bottom.virama"/>
  <anchor x="465.83333333333337" y="545.0" name="top"/>
  <anchor x="470.83333333333337" y="565.1" name="topright"/>
  <anchor x="277.20000000000005" y="0.0" name="vedic"/>
  <outline>
    <contour>
      <point x="462.83333333333337" y="-10.0" type="line"/>
      <point x="465.8333333333333" y="-9.0" type="line"/>
      <point x="465.8333333333333" y="602.0" type="line"/>
      <point x="572.5666666666667" y="602.0" type="line"/>
      <point x="559.3" y="622.0" type="line"/>
      <point x="465.83333333333337" y="622.0" type="line"/>
      <point x="463.2" y="661.0" type="line"/>
      <point x="446.8333333333333" y="674.0" type="line"/>
      <point x="443.2" y="673.0" type="line"/>
      <point x="443.2" y="549.4666666666667" type="line" smooth="yes"/>
      <point x="443.2" y="501.3333333333333"/>
      <point x="443.8333333333333" y="446.5"/>
      <point x="445.20000000000005" y="397.73333333333335" type="curve"/>
      <point x="453.09999999999997" y="394.73333333333335" type="line"/>
      <point x="393.3" y="521.3"/>
      <point x="321.1" y="626.6333333333333"/>
      <point x="222.39999999999998" y="626.6333333333333" type="curve" smooth="yes"/>
      <point x="134.06666666666666" y="626.6333333333333"/>
      <point x="72.26666666666667" y="548.5666666666667"/>
      <point x="22.666666666666664" y="450.1" type="curve"/>
      <point x="47.666666666666664" y="429.4666666666667" type="line"/>
      <point x="62.56666666666666" y="441.66666666666663"/>
      <point x="84.39999999999999" y="451.93333333333334"/>
      <point x="115.0" y="451.93333333333334" type="curve" smooth="yes"/>
      <point x="171.66666666666666" y="451.93333333333334"/>
      <point x="183.5" y="406.5"/>
      <point x="183.5" y="361.8666666666667" type="curve" smooth="yes"/>
      <point x="183.5" y="320.56666666666666"/>
      <point x="173.33333333333334" y="284.8666666666667"/>
      <point x="159.16666666666669" y="263.6" type="curve"/>
      <point x="181.89999999999998" y="243.70000000000002" type="line"/>
      <point x="390.16666666666663" y="493.3666666666667" type="line"/>
      <point x="373.6333333333333" y="513.9333333333334" type="line"/>
      <point x="184.0666666666667" y="285.8" type="line"/>
      <point x="189.16666666666666" y="280.16666666666663" type="line"/>
      <point x="199.86666666666667" y="302.7"/>
      <point x="205.4" y="339.26666666666665"/>
      <point x="205.4" y="367.5" type="curve" smooth="yes"/>
      <point x="205.4" y="428.9333333333333"/>
      <point x="176.6" y="476.93333333333334"/>
      <point x="115.63333333333334" y="476.93333333333334" type="curve" smooth="yes"/>
      <point x="82.4" y="476.93333333333334"/>
      <point x="58.56666666666666" y="464.5"/>
      <point x="45.1" y="452.2" type="curve"/>
      <point x="51.56666666666666" y="446.8333333333333" type="line"/>
      <point x="101.33333333333334" y="542.8000000000001"/>
      <point x="157.66666666666666" y="603.6333333333333"/>
      <point x="225.76666666666668" y="603.6333333333333" type="curve" smooth="yes"/>
      <point x="317.0" y="603.6333333333333"/>
      <point x="389.2" y="483.2"/>
      <point x="449.4666666666667" y="357.76666666666665" type="curve"/>
      <point x="443.2" y="389.43333333333334" type="line"/>
      <point x="443.2" y="3.0" type="line"/>
    </contour>
  </outline>
</glyph>
<glyph name="pha-beng" format="2">
  <advance width="607.3"/>
  <unicode hex="09AB"/>
  <anchor x="366.8666666666667" y="11.0" name="bottom"/>
  <anchor x="375.40000000000003" y="39.0" name="bottom.rakaar"/>
  <anchor x="376.1333333333333" y="6.0" name="bottom.rvocalic"/>
  <anchor x="368.3333333333333" y="11.733333333333333" name="bottom.virama"/>
  <anchor x="378.3333333333333" y="602.0" name="top"/>
  <anchor x="378.0333333333333" y="602.0" name="topright"/>
  <anchor x="303.46666666666664" y="0.0" name="vedic"/>
  <outline>
    <contour>
      <point x="373.1333333333333" y="-3.0" type="line"/>
      <point x="376.1333333333333" y="-2.0" type="line"/>
      <point x="376.1333333333333" y="507.1666666666667" type="line"/>
      <point x="364.1333333333334" y="494.0" type="line"/>
      <point x="368.1333333333333" y="495.0"/>
      <point x="374.5" y="496.0"/>
      <point x="379.1333333333333" y="496.0" type="curve" smooth="yes"/>
      <point x="468.9666666666667" y="496.0"/>
      <point x="545.8666666666667" y="448.0"/>
      <point x="545.8666666666667" y="349.0" type="curve" smooth="yes"/>
      <point x="545.8666666666667" y="331.26666666666665"/>
      <point x="543.5" y="309.2"/>
      <point x="532.8666666666667" y="298.2" type="curve"/>
      <point x="541.4000000000001" y="303.20000000000005" type="line"/>
      <point x="537.7666666666667" y="328.20000000000005"/>
      <point x="521.4" y="342.8333333333333"/>
      <point x="499.23333333333335" y="342.8333333333333" type="curve" smooth="yes"/>
      <point x="471.7" y="342.8333333333333"/>
      <point x="455.8" y="324.20000000000005"/>
      <point x="455.8" y="297.56666666666666" type="curve" smooth="yes"/>
      <point x="455.8" y="267.56666666666666"/>
      <point x="476.7" y="249.56666666666666"/>
      <point x="503.3333333333333" y="249.56666666666666" type="curve" smooth="yes"/>
      <point x="544.9" y="249.56666666666666"/>
      <point x="567.7666666666667" y="287.23333333333335"/>
      <point x="567.7666666666667" y="343.73333333333335" type="curve" smooth="yes"/>
      <point x="567.7666666666667" y="467.56666666666666"/>
      <point x="465.8666666666667" y="521.0"/>
      <point x="376.4" y="521.0" type="curve" smooth="yes"/>
      <point x="366.5" y="521.0"/>
      <point x="357.5" y="520.0"/>
      <point x="353.50000000000006" y="519.0" type="curve"/>
      <point x="353.50000000000006" y="40.33333333333333" type="line"/>
      <point x="362.23333333333335" y="43.733333333333334" type="line"/>
      <point x="305.9" y="161.3"/>
      <point x="195.06666666666666" y="245.23333333333332"/>
      <point x="67.8" y="287.73333333333335" type="curve"/>
      <point x="66.7" y="279.0" type="line"/>
      <point x="124.83333333333333" y="336.2666666666667"/>
      <point x="191.5" y="380.90000000000003"/>
      <point x="252.63333333333333" y="418.0" type="curve"/>
      <point x="215.6" y="488.26666666666665"/>
      <point x="129.26666666666668" y="571.8333333333334"/>
      <point x="19.1" y="610.0" type="curve"/>
      <point x="23.633333333333333" y="602.0" type="line"/>
      <point x="624.8333333333333" y="602.0" type="line"/>
      <point x="611.5666666666667" y="622.0" type="line"/>
      <point x="-17.533333333333335" y="622.0" type="line"/>
      <point x="6.1" y="585.3666666666667" type="line"/>
      <point x="115.23333333333333" y="553.8000000000001"/>
      <point x="187.36666666666667" y="482.66666666666663"/>
      <point x="230.63333333333333" y="417.0" type="curve"/>
      <point x="229.73333333333335" y="432.3666666666667" type="line"/>
      <point x="187.5" y="409.6333333333333"/>
      <point x="106.83333333333333" y="353.6333333333333"/>
      <point x="40.8" y="292.0" type="curve"/>
      <point x="55.9" y="264.0" type="line"/>
      <point x="188.53333333333333" y="224.13333333333333"/>
      <point x="293.43333333333334" y="143.3"/>
      <point x="358.5" y="10.633333333333333" type="curve"/>
    </contour>
  </outline>
</glyph>
<glyph name="ba-beng" format="2">
  <advance width="471.29999999999995"/>
  <unicode hex="09AC"/>
  <anchor x="372.83333333333337" y="11.0" name="bottom"/>
  <anchor x="381.3666666666666" y="39.0" name="bottom.rakaar"/>
  <anchor x="382.1" y="6.0" name="bottom.rvocalic"/>
  <anchor x="374.3" y="4.3999999999999995" name="bottom.virama"/>
  <anchor x="192.0" y="91.66666666666667" name="nukta"/>
  <anchor x="384.3" y="602.0" name="top"/>
  <anchor x="384.0" y="602.0" name="topright"/>
  <anchor x="235.33333333333331" y="0.0" name="vedic"/>
  <outline>
    <contour>
      <point x="379.1" y="-3.0" type="line"/>
      <point x="382.1" y="-2.0" type="line"/>
      <point x="382.1" y="602.0" type="line"/>
      <point x="488.8333333333333" y="602.0" type="line"/>
      <point x="475.56666666666666" y="622.0" type="line"/>
      <point x="-17.533333333333335" y="622.0" type="line"/>
      <point x="-4.266666666666667" y="602.0" type="line"/>
      <point x="359.46666666666664" y="602.0" type="line"/>
      <point x="359.46666666666664" y="499.4666666666667" type="line"/>
      <point x="368.3666666666667" y="514.1" type="line"/>
      <point x="260.09999999999997" y="477.43333333333334"/>
      <point x="150.79999999999998" y="408.43333333333334"/>
      <point x="47.766666666666666" y="327.8666666666667" type="curve"/>
      <point x="62.86666666666666" y="299.5" type="line"/>
      <point x="194.23333333333335" y="249.76666666666668"/>
      <point x="300.6666666666667" y="149.63333333333335"/>
      <point x="364.46666666666664" y="10.633333333333333" type="curve"/>
    </contour>
    <contour>
      <point x="359.46666666666664" y="40.33333333333333" type="line"/>
      <point x="368.2" y="43.733333333333334" type="line"/>
      <point x="313.1333333333333" y="167.63333333333333"/>
      <point x="200.76666666666665" y="270.8666666666667"/>
      <point x="74.76666666666667" y="323.23333333333335" type="curve"/>
      <point x="74.03333333333333" y="314.5" type="line"/>
      <point x="180.5" y="400.9666666666667"/>
      <point x="292.43333333333334" y="462.0666666666667"/>
      <point x="366.3666666666667" y="486.3666666666667" type="curve"/>
      <point x="359.46666666666664" y="496.46666666666664" type="line"/>
    </contour>
  </outline>
</glyph>
<glyph name="bha-beng" format="2">
  <advance width="572.3666666666667"/>
  <unicode hex="09AD"/>
  <anchor x="374.76666666666665" y="85.73333333333333" name="bottom"/>
  <anchor x="461.4" y="2.0" name="bottom.rakaar"/>
  <anchor x="389.56666666666666" y="113.0" name="bottom.rvocalic"/>
  <anchor x="359.7666666666667" y="58.0" name="bottom.virama"/>
  <anchor x="313.2666666666667" y="602.0" name="top"/>
  <anchor x="315.90000000000003" y="602.0" name="topright"/>
  <anchor x="286.0" y="0.0" name="vedic"/>
  <outline>
    <contour>
      <point x="354.76666666666665" y="112.0" type="curve" smooth="yes"/>
      <point x="444.3333333333333" y="112.0"/>
      <point x="525.0666666666666" y="166.43333333333334"/>
      <point x="525.0666666666666" y="300.0" type="curve" smooth="yes"/>
      <point x="525.0666666666666" y="388.6333333333333"/>
      <point x="489.3666666666667" y="446.0"/>
      <point x="452.76666666666665" y="480.0" type="curve"/>
      <point x="411.6333333333333" y="398.8666666666667"/>
      <point x="357.6666666666667" y="365.3333333333333"/>
      <point x="301.3666666666667" y="371.96666666666664" type="curve"/>
      <point x="302.56666666666666" y="364.3333333333333" type="line"/>
      <point x="319.3666666666667" y="369.3333333333333"/>
      <point x="326.00000000000006" y="387.70000000000005"/>
      <point x="326.00000000000006" y="405.7" type="curve" smooth="yes"/>
      <point x="326.00000000000006" y="432.3333333333333"/>
      <point x="310.3666666666667" y="451.3333333333333"/>
      <point x="282.8333333333333" y="451.3333333333333" type="curve" smooth="yes"/>
      <point x="254.66666666666666" y="451.3333333333333"/>
      <point x="239.03333333333333" y="431.43333333333334"/>
      <point x="239.03333333333333" y="405.3333333333333" type="curve" smooth="yes"/>
      <point x="239.03333333333333" y="375.3333333333333"/>
      <point x="260.0333333333333" y="347.33333333333337"/>
      <point x="312.9" y="347.33333333333337" type="curve" smooth="yes"/>
      <point x="362.9666666666667" y="347.33333333333337"/>
      <point x="418.4666666666667" y="369.43333333333334"/>
      <point x="465.1333333333333" y="451.0" type="curve"/>
      <point x="449.76666666666665" y="450.9" type="line"/>
      <point x="474.4666666666667" y="424.9"/>
      <point x="502.43333333333334" y="381.26666666666665"/>
      <point x="502.43333333333334" y="304.0" type="curve" smooth="yes"/>
      <point x="502.43333333333334" y="193.43333333333334"/>
      <point x="441.96666666666664" y="137.63333333333333"/>
      <point x="351.8666666666667" y="137.63333333333333" type="curve" smooth="yes"/>
      <point x="234.33333333333334" y="137.63333333333333"/>
      <point x="127.33333333333333" y="236.6"/>
      <point x="52.63333333333333" y="521.6333333333333" type="curve"/>
      <point x="33.63333333333333" y="517.0" type="line"/>
      <point x="113.23333333333333" y="201.86666666666667"/>
      <point x="229.96666666666667" y="112.0"/>
    </contour>
    <contour>
      <point x="-4.266666666666667" y="602.0" type="line"/>
      <point x="589.9" y="602.0" type="line"/>
      <point x="576.6333333333333" y="622.0" type="line"/>
      <point x="-17.533333333333335" y="622.0" type="line"/>
    </contour>
  </outline>
</glyph>
<glyph name="ma-beng" format="2">
  <advance width="464.33333333333337"/>
  <unicode hex="09AE"/>
  <anchor x="362.6666666666667" y="36.93333333333333" name="bottom"/>
  <anchor x="374.4" y="39.0" name="bottom.rakaar"/>
  <anchor x="375.1333333333333" y="6.0" name="bottom.rvocalic"/>
  <anchor x="367.3333333333333" y="11.733333333333333" name="bottom.virama"/>
  <anchor x="377.3333333333333" y="602.0" name="top"/>
  <anchor x="377.03333333333336" y="602.0" name="topright"/>
  <anchor x="232.16666666666669" y="0.0" name="vedic"/>
  <outline>
    <contour>
      <point x="372.1333333333333" y="-3.0" type="line"/>
      <point x="375.1333333333333" y="-2.0" type="line"/>
      <point x="375.1333333333333" y="602.0" type="line"/>
      <point x="481.8666666666667" y="602.0" type="line"/>
      <point x="468.6" y="622.0" type="line"/>
      <point x="-17.533333333333335" y="622.0" type="line"/>
      <point x="-4.266666666666667" y="602.0" type="line"/>
      <point x="45.166666666666664" y="602.0" type="line"/>
      <point x="42.0" y="615.9" type="line"/>
      <point x="31.533333333333335" y="595.0"/>
      <point x="25.8" y="573.6333333333333"/>
      <point x="25.8" y="552.5333333333333" type="curve" smooth="yes"/>
      <point x="25.8" y="493.3333333333333"/>
      <point x="60.16666666666667" y="468.0"/>
      <point x="115.80000000000001" y="447.73333333333335" type="curve" smooth="yes"/>
      <point x="179.13333333333333" y="425.2"/>
      <point x="207.10000000000002" y="396.33333333333337"/>
      <point x="207.10000000000002" y="327.93333333333334" type="curve" smooth="yes"/>
      <point x="207.10000000000002" y="303.0"/>
      <point x="200.36666666666667" y="290.0"/>
      <point x="191.46666666666667" y="281.0" type="curve"/>
      <point x="210.10000000000002" y="297.0" type="line"/>
      <point x="199.83333333333334" y="304.0"/>
      <point x="177.66666666666669" y="310.6333333333333"/>
      <point x="160.13333333333333" y="310.6333333333333" type="curve" smooth="yes"/>
      <point x="123.06666666666668" y="310.6333333333333"/>
      <point x="102.8" y="288.3666666666667"/>
      <point x="102.8" y="253.73333333333335" type="curve" smooth="yes"/>
      <point x="102.8" y="217.36666666666667"/>
      <point x="126.96666666666667" y="196.36666666666667"/>
      <point x="157.86666666666665" y="196.36666666666667" type="curve" smooth="yes"/>
      <point x="187.56666666666666" y="196.36666666666667"/>
      <point x="211.46666666666667" y="212.1"/>
      <point x="224.36666666666667" y="265.0" type="curve"/>
      <point x="209.46666666666667" y="264.0" type="line"/>
      <point x="271.5" y="249.26666666666665"/>
      <point x="337.76666666666665" y="139.96666666666667"/>
      <point x="357.5" y="10.633333333333333" type="curve"/>
    </contour>
    <contour>
      <point x="356.1333333333333" y="82.76666666666667" type="curve"/>
      <point x="359.8666666666667" y="82.76666666666667" type="line"/>
      <point x="338.6333333333334" y="180.16666666666666"/>
      <point x="280.23333333333335" y="266.3666666666667"/>
      <point x="220.0" y="291.0" type="curve"/>
      <point x="225.73333333333335" y="273.0" type="line"/>
      <point x="228.73333333333335" y="291.2666666666667"/>
      <point x="230.1" y="303.0"/>
      <point x="230.1" y="318.73333333333335" type="curve" smooth="yes"/>
      <point x="230.1" y="393.0333333333333"/>
      <point x="206.26666666666665" y="437.56666666666666"/>
      <point x="127.9" y="466.9" type="curve" smooth="yes"/>
      <point x="79.06666666666666" y="485.9"/>
      <point x="47.8" y="502.1666666666667"/>
      <point x="47.8" y="553.0666666666667" type="curve" smooth="yes"/>
      <point x="47.8" y="573.0"/>
      <point x="53.266666666666666" y="591.0"/>
      <point x="63.36666666666667" y="611.0" type="curve"/>
      <point x="52.63333333333334" y="602.0" type="line"/>
      <point x="352.5" y="602.0" type="line"/>
      <point x="352.5" y="259.8" type="line" smooth="yes"/>
      <point x="352.5" y="205.73333333333332"/>
      <point x="352.8666666666667" y="136.83333333333331"/>
    </contour>
  </outline>
</glyph>
<glyph name="ya-beng" format="2">
  <advance width="465.33333333333337"/>
  <unicode hex="09AF"/>
  <anchor x="366.8666666666667" y="11.0" name="bottom"/>
  <anchor x="375.40000000000003" y="39.0" name="bottom.rakaar"/>
  <anchor x="376.1333333333333" y="6.0" name="bottom.rvocalic"/>
  <anchor x="368.3333333333333" y="24.4" name="bottom.virama"/>
  <anchor x="184.56666666666666" y="90.56666666666666" name="nukta"/>
  <anchor x="378.3333333333333" y="602.0" name="top"/>
  <anchor x="378.0333333333333" y="602.0" name="topright"/>
  <anchor x="232.16666666666669" y="0.0" name="vedic"/>
  <outline>
    <contour>
      <point x="373.1333333333333" y="-3.0" type="line"/>
      <point x="376.1333333333333" y="-2.0" type="line"/>
      <point x="376.1333333333333" y="602.0" type="line"/>
      <point x="482.8666666666667" y="602.0" type="line"/>
      <point x="469.59999999999997" y="622.0" type="line"/>
      <point x="-17.533333333333335" y="622.0" type="line"/>
      <point x="6.1" y="585.3666666666667" type="line"/>
      <point x="115.23333333333333" y="553.8"/>
      <point x="187.36666666666667" y="482.66666666666663"/>
      <point x="230.63333333333333" y="417.0" type="curve"/>
      <point x="229.73333333333335" y="432.3666666666667" type="line"/>
      <point x="187.5" y="409.6333333333333"/>
      <point x="104.93333333333334" y="352.3666666666667"/>
      <point x="40.8" y="292.0" type="curve"/>
      <point x="55.9" y="264.0" type="line"/>
      <point x="188.53333333333333" y="224.13333333333333"/>
      <point x="293.43333333333334" y="143.3"/>
      <point x="358.5" y="10.633333333333333" type="curve"/>
    </contour>
    <contour>
      <point x="353.50000000000006" y="40.33333333333333" type="line"/>
      <point x="362.23333333333335" y="43.733333333333334" type="line"/>
      <point x="305.9" y="161.3"/>
      <point x="195.06666666666666" y="245.23333333333332"/>
      <point x="67.8" y="287.73333333333335" type="curve"/>
      <point x="66.7" y="279.0" type="line"/>
      <point x="122.93333333333332" y="335.0"/>
      <point x="191.5" y="380.90000000000003"/>
      <point x="252.63333333333333" y="418.0" type="curve"/>
      <point x="215.6" y="488.26666666666665"/>
      <point x="129.26666666666668" y="571.8333333333334"/>
      <point x="19.1" y="610.0" type="curve"/>
      <point x="24.0" y="602.0" type="line"/>
      <point x="353.50000000000006" y="602.0" type="line"/>
    </contour>
  </outline>
</glyph>
<glyph name="la-beng" format="2">
  <advance width="543.4"/>
  <unicode hex="09B2"/>
  <anchor x="437.93333333333334" y="66.66666666666667" name="bottom"/>
  <anchor x="453.4666666666667" y="-17.0" name="bottom.rakaar"/>
  <anchor x="454.2" y="-1.0999999999999999" name="bottom.rvocalic"/>
  <anchor x="448.4666666666667" y="5.0" name="bottom.virama"/>
  <anchor x="456.4" y="602.0" name="top"/>
  <anchor x="456.09999999999997" y="602.0" name="topright"/>
  <anchor x="271.2" y="0.0" name="vedic"/>
  <outline>
    <contour>
      <point x="451.2" y="-10.0" type="line"/>
      <point x="454.2" y="-9.0" type="line"/>
      <point x="454.2" y="602.0" type="line"/>
      <point x="560.9333333333334" y="602.0" type="line"/>
      <point x="547.6666666666666" y="622.0" type="line"/>
      <point x="-17.533333333333335" y="622.0" type="line"/>
      <point x="-4.266666666666667" y="602.0" type="line"/>
      <point x="431.5666666666667" y="602.0" type="line"/>
      <point x="431.5666666666667" y="452.0" type="line" smooth="yes"/>
      <point x="431.5666666666667" y="400.1666666666667"/>
      <point x="433.56666666666666" y="358.53333333333336"/>
      <point x="436.2" y="330.0" type="curve"/>
      <point x="438.56666666666666" y="339.0" type="line"/>
      <point x="402.43333333333334" y="429.0"/>
      <point x="366.8333333333333" y="462.0"/>
      <point x="327.76666666666665" y="462.0" type="curve" smooth="yes"/>
      <point x="292.8" y="462.0"/>
      <point x="262.3666666666666" y="430.0"/>
      <point x="256.46666666666664" y="363.0" type="curve"/>
      <point x="262.46666666666664" y="367.0" type="line"/>
      <point x="239.76666666666668" y="422.73333333333335"/>
      <point x="199.8" y="464.0"/>
      <point x="140.03333333333333" y="464.0" type="curve" smooth="yes"/>
      <point x="79.26666666666667" y="464.0"/>
      <point x="31.400000000000002" y="417.29999999999995"/>
      <point x="31.400000000000002" y="337.93333333333334" type="curve" smooth="yes"/>
      <point x="31.400000000000002" y="256.8333333333333"/>
      <point x="83.73333333333333" y="195.63333333333333"/>
      <point x="155.9" y="195.63333333333333" type="curve" smooth="yes"/>
      <point x="196.6" y="195.63333333333333"/>
      <point x="218.13333333333335" y="217.73333333333332"/>
      <point x="218.13333333333335" y="251.63333333333333" type="curve" smooth="yes"/>
      <point x="218.13333333333335" y="281.0"/>
      <point x="199.86666666666667" y="301.0"/>
      <point x="170.96666666666667" y="301.0" type="curve" smooth="yes"/>
      <point x="143.96666666666667" y="301.0"/>
      <point x="125.43333333333332" y="281.0"/>
      <point x="125.43333333333332" y="254.0" type="curve" smooth="yes"/>
      <point x="125.43333333333332" y="234.0"/>
      <point x="134.43333333333334" y="219.0"/>
      <point x="145.06666666666666" y="213.0" type="curve"/>
      <point x="157.23333333333335" y="223.73333333333332" type="line"/>
      <point x="150.96666666666667" y="221.73333333333332"/>
      <point x="144.33333333333334" y="221.73333333333332"/>
      <point x="139.06666666666666" y="221.73333333333332" type="curve" smooth="yes"/>
      <point x="100.63333333333333" y="221.73333333333332"/>
      <point x="54.03333333333333" y="261.8333333333333"/>
      <point x="54.03333333333333" y="336.20000000000005" type="curve" smooth="yes"/>
      <point x="54.03333333333333" y="403.83333333333337"/>
      <point x="93.9" y="440.0"/>
      <point x="143.66666666666669" y="440.0" type="curve" smooth="yes"/>
      <point x="190.53333333333336" y="440.0"/>
      <point x="230.23333333333335" y="407.9"/>
      <point x="256.46666666666664" y="336.9" type="curve"/>
      <point x="273.09999999999997" y="330.0" type="line"/>
      <point x="279.3666666666666" y="406.0"/>
      <point x="301.53333333333336" y="438.0"/>
      <point x="331.5" y="438.0" type="curve" smooth="yes"/>
      <point x="371.73333333333335" y="438.0"/>
      <point x="407.8666666666667" y="379.6333333333334"/>
      <point x="439.0" y="292.6333333333333" type="curve"/>
      <point x="432.20000000000005" y="336.26666666666665" type="line"/>
      <point x="431.5666666666667" y="3.0" type="line"/>
    </contour>
  </outline>
</glyph>
<glyph name="sha-beng" format="2">
  <advance width="537.6"/>
  <unicode hex="09B6"/>
  <anchor x="432.1333333333333" y="66.66666666666667" name="bottom"/>
  <anchor x="447.6666666666667" y="-17.0" name="bottom.rakaar"/>
  <anchor x="448.4" y="-1.0999999999999999" name="bottom.rvocalic"/>
  <anchor x="442.6666666666667" y="5.0" name="bottom.virama"/>
  <anchor x="448.40000000000003" y="545.0" name="top"/>
  <anchor x="453.40000000000003" y="565.1" name="topright"/>
  <anchor x="268.3" y="0.0" name="vedic"/>
  <outline>
    <contour>
      <point x="445.4" y="-10.0" type="line"/>
      <point x="448.4" y="-9.0" type="line"/>
      <point x="448.4" y="602.0" type="line"/>
      <point x="555.1333333333333" y="602.0" type="line"/>
      <point x="541.8666666666667" y="622.0" type="line"/>
      <point x="448.4" y="622.0" type="line"/>
      <point x="445.7666666666667" y="661.0" type="line"/>
      <point x="429.40000000000003" y="674.0" type="line"/>
      <point x="425.7666666666667" y="673.0" type="line"/>
      <point x="425.7666666666667" y="581.6666666666666" type="line" smooth="yes"/>
      <point x="425.7666666666667" y="533.5333333333333"/>
      <point x="426.40000000000003" y="485.03333333333336"/>
      <point x="429.0333333333333" y="437.3666666666667" type="curve"/>
      <point x="435.66666666666663" y="433.0" type="line"/>
      <point x="391.90000000000003" y="552.6333333333333"/>
      <point x="350.8333333333333" y="629.0"/>
      <point x="289.8" y="629.0" type="curve" smooth="yes"/>
      <point x="254.83333333333334" y="629.0"/>
      <point x="214.70000000000002" y="605.0"/>
      <point x="177.36666666666667" y="504.0" type="curve"/>
      <point x="137.23333333333332" y="600.4666666666667"/>
      <point x="105.69999999999999" y="622.0"/>
      <point x="53.13333333333334" y="622.0" type="curve" smooth="yes"/>
      <point x="-17.533333333333335" y="622.0" type="line"/>
      <point x="-4.266666666666667" y="602.0" type="line"/>
      <point x="49.766666666666666" y="602.0" type="line" smooth="yes"/>
      <point x="96.9" y="602.0"/>
      <point x="122.60000000000001" y="582.0"/>
      <point x="163.73333333333332" y="484.0" type="curve"/>
      <point x="170.73333333333335" y="494.0" type="line"/>
      <point x="116.76666666666667" y="477.0"/>
      <point x="71.0" y="443.0"/>
      <point x="71.0" y="402.0" type="curve" smooth="yes"/>
      <point x="71.0" y="366.0"/>
      <point x="93.53333333333333" y="351.0"/>
      <point x="114.33333333333333" y="351.0" type="curve" smooth="yes"/>
      <point x="145.66666666666666" y="351.0"/>
      <point x="175.73333333333335" y="374.0"/>
      <point x="181.36666666666665" y="432.0" type="curve"/>
      <point x="191.26666666666665" y="370.0"/>
      <point x="215.96666666666667" y="351.0"/>
      <point x="243.13333333333333" y="351.0" type="curve" smooth="yes"/>
      <point x="269.56666666666666" y="351.0"/>
      <point x="286.4666666666667" y="370.0"/>
      <point x="286.4666666666667" y="401.0" type="curve" smooth="yes"/>
      <point x="286.4666666666667" y="447.6333333333333"/>
      <point x="232.8" y="487.0"/>
      <point x="190.73333333333335" y="492.0" type="curve"/>
      <point x="196.0" y="481.0" type="line"/>
      <point x="221.06666666666666" y="564.0"/>
      <point x="254.93333333333334" y="605.0"/>
      <point x="290.5333333333333" y="605.0" type="curve" smooth="yes"/>
      <point x="347.73333333333335" y="605.0"/>
      <point x="386.1666666666667" y="516.6333333333333"/>
      <point x="429.4" y="400.59999999999997" type="curve"/>
      <point x="425.7666666666667" y="429.06666666666666" type="line"/>
      <point x="425.7666666666667" y="3.0" type="line"/>
    </contour>
  </outline>
</glyph>
<glyph name="ssa-beng" format="2">
  <advance width="465.33333333333337"/>
  <unicode hex="09B7"/>
  <anchor x="366.8666666666667" y="11.0" name="bottom"/>
  <anchor x="375.40000000000003" y="39.0" name="bottom.rakaar"/>
  <anchor x="376.1333333333333" y="6.0" name="bottom.rvocalic"/>
  <anchor x="368.3333333333333" y="11.733333333333333" name="bottom.virama"/>
  <anchor x="378.3333333333333" y="602.0" name="top"/>
  <anchor x="378.0333333333333" y="602.0" name="topright"/>
  <anchor x="232.16666666666669" y="0.0" name="vedic"/>
  <outline>
    <contour>
      <point x="373.1333333333333" y="-3.0" type="line"/>
      <point x="376.1333333333333" y="-2.0" type="line"/>
      <point x="376.1333333333333" y="602.0" type="line"/>
      <point x="482.8666666666667" y="602.0" type="line"/>
      <point x="469.59999999999997" y="622.0" type="line"/>
      <point x="-17.533333333333335" y="622.0" type="line"/>
      <point x="6.1" y="585.3666666666667" type="line"/>
      <point x="146.13333333333333" y="553.3666666666667"/>
      <point x="283.16666666666663" y="411.6"/>
      <point x="361.0333333333333" y="308.23333333333335" type="curve"/>
      <point x="362.1333333333333" y="330.23333333333335" type="line"/>
      <point x="328.76666666666665" y="393.33333333333337"/>
      <point x="159.13333333333335" y="571.0"/>
      <point x="17.1" y="610.0" type="curve"/>
      <point x="22.733333333333334" y="602.0" type="line"/>
      <point x="353.50000000000006" y="602.0" type="line"/>
      <point x="353.50000000000006" y="40.33333333333333" type="line"/>
      <point x="362.23333333333335" y="43.733333333333334" type="line"/>
      <point x="305.9" y="161.29999999999998"/>
      <point x="195.06666666666666" y="245.23333333333335"/>
      <point x="65.96666666666667" y="288.4666666666667" type="curve"/>
      <point x="64.86666666666667" y="279.0" type="line"/>
      <point x="113.63333333333334" y="335.0"/>
      <point x="194.13333333333333" y="397.1"/>
      <point x="258.43333333333334" y="439.8333333333333" type="curve"/>
      <point x="239.53333333333333" y="455.8333333333333" type="line"/>
      <point x="188.3" y="423.6333333333333"/>
      <point x="96.00000000000001" y="350.53333333333336"/>
      <point x="39.7" y="292.0" type="curve"/>
      <point x="55.9" y="264.0" type="line"/>
      <point x="188.53333333333333" y="224.13333333333333"/>
      <point x="293.43333333333334" y="143.3"/>
      <point x="358.5" y="10.633333333333333" type="curve"/>
    </contour>
  </outline>
</glyph>
<glyph name="sa-beng" format="2">
  <advance width="526.7"/>
  <unicode hex="09B8"/>
  <anchor x="421.23333333333335" y="66.66666666666667" name="bottom"/>
  <anchor x="436.76666666666665" y="-17.0" name="bottom.rakaar"/>
  <anchor x="437.5" y="-1.0999999999999999" name="bottom.rvocalic"/>
  <anchor x="431.76666666666665" y="5.0" name="bottom.virama"/>
  <anchor x="439.70000000000005" y="602.0" name="top"/>
  <anchor x="439.40000000000003" y="602.0" name="topright"/>
  <anchor x="263.03333333333336" y="0.0" name="vedic"/>
  <outline>
    <contour>
      <point x="434.5" y="-10.0" type="line"/>
      <point x="437.5" y="-9.0" type="line"/>
      <point x="437.5" y="602.0" type="line"/>
      <point x="544.2333333333333" y="602.0" type="line"/>
      <point x="530.9666666666667" y="622.0" type="line"/>
      <point x="-17.533333333333335" y="622.0" type="line"/>
      <point x="7.1" y="586.0" type="line"/>
      <point x="19.0" y="588.0"/>
      <point x="29.900000000000002" y="588.0"/>
      <point x="46.06666666666666" y="588.0" type="curve" smooth="yes"/>
      <point x="135.33333333333334" y="588.0"/>
      <point x="248.56666666666666" y="542.0"/>
      <point x="247.66666666666669" y="310.0" type="curve"/>
      <point x="263.3" y="338.3666666666667" type="line"/>
      <point x="265.2" y="526.3666666666667"/>
      <point x="170.4" y="606.6333333333333"/>
      <point x="48.0" y="612.0" type="curve"/>
      <point x="49.0" y="601.0" type="line"/>
      <point x="414.8666666666667" y="602.0" type="line"/>
      <point x="414.8666666666667" y="514.3333333333334" type="line" smooth="yes"/>
      <point x="414.8666666666667" y="456.1666666666667"/>
      <point x="416.5" y="400.6333333333333"/>
      <point x="418.5" y="374.0" type="curve"/>
      <point x="424.76666666666665" y="371.6333333333333" type="line"/>
      <point x="398.1666666666667" y="429.73333333333335"/>
      <point x="372.0" y="458.0"/>
      <point x="340.93333333333334" y="458.0" type="curve" smooth="yes"/>
      <point x="312.1333333333333" y="458.0"/>
      <point x="280.26666666666665" y="435.0"/>
      <point x="249.3" y="341.0" type="curve" smooth="yes"/>
      <point x="215.7" y="240.36666666666667"/>
      <point x="186.03333333333333" y="205.0"/>
      <point x="148.70000000000002" y="205.0" type="curve" smooth="yes"/>
      <point x="106.2" y="205.0"/>
      <point x="70.13333333333333" y="266.0"/>
      <point x="51.96666666666666" y="301.0" type="curve"/>
      <point x="35.599999999999994" y="293.0" type="line"/>
      <point x="58.13333333333333" y="246.0"/>
      <point x="95.56666666666666" y="179.0"/>
      <point x="149.7" y="179.0" type="curve" smooth="yes"/>
      <point x="191.3" y="179.0"/>
      <point x="223.8" y="199.0"/>
      <point x="264.3" y="312.0" type="curve" smooth="yes"/>
      <point x="300.06666666666666" y="411.23333333333335"/>
      <point x="322.93333333333334" y="432.3666666666667"/>
      <point x="345.3" y="432.3666666666667" type="curve" smooth="yes"/>
      <point x="373.0" y="432.3666666666667"/>
      <point x="396.43333333333334" y="394.73333333333335"/>
      <point x="421.76666666666665" y="337.79999999999995" type="curve"/>
      <point x="414.8666666666667" y="372.0" type="line"/>
      <point x="414.8666666666667" y="3.0" type="line"/>
    </contour>
  </outline>
</glyph>
